<?xml version="1.0" encoding="UTF-8" standalone="no"?>
<!-- Created with Inkscape (http://www.inkscape.org/) -->

<svg
   width="93.448952mm"
   height="36.615158mm"
   viewBox="0 0 93.448952 36.615158"
   version="1.1"
   id="svg5"
   inkscape:version="1.1.2 (0a00cf5339, 2022-02-04)"
   sodipodi:docname="awkward-motivation-venn-diagram.svg"
   xmlns:inkscape="http://www.inkscape.org/namespaces/inkscape"
   xmlns:sodipodi="http://sodipodi.sourceforge.net/DTD/sodipodi-0.dtd"
   xmlns="http://www.w3.org/2000/svg"
   xmlns:svg="http://www.w3.org/2000/svg">
  <sodipodi:namedview
     id="namedview7"
     pagecolor="#ffffff"
     bordercolor="#666666"
     borderopacity="1.0"
     inkscape:pageshadow="2"
     inkscape:pageopacity="0.0"
     inkscape:pagecheckerboard="0"
     inkscape:document-units="mm"
     showgrid="false"
     inkscape:zoom="2.835936"
     inkscape:cx="256.70537"
     inkscape:cy="72.639157"
     inkscape:window-width="2554"
     inkscape:window-height="1365"
     inkscape:window-x="1920"
     inkscape:window-y="32"
     inkscape:window-maximized="1"
     inkscape:current-layer="layer1"
     fit-margin-top="2"
     fit-margin-left="2"
     fit-margin-right="2"
     fit-margin-bottom="2" />
  <defs
     id="defs2" />
  <g
     inkscape:label="Layer 1"
     inkscape:groupmode="layer"
     id="layer1"
     transform="translate(-25.498205,-115.56571)">
    <ellipse
       style="font-variation-settings:normal;opacity:1;vector-effect:none;fill:#ffff00;fill-opacity:1;fill-rule:evenodd;stroke:none;stroke-width:0.264583;stroke-linecap:butt;stroke-linejoin:miter;stroke-miterlimit:4;stroke-dasharray:none;stroke-dashoffset:0;stroke-opacity:1;-inkscape-stroke:none;stop-color:#000000;stop-opacity:1"
       id="path9379"
       cx="53.802662"
       cy="133.87329"
       rx="26.172165"
       ry="16.175287" />
    <ellipse
       style="font-variation-settings:normal;opacity:1;vector-effect:none;fill:#00f4ff;fill-opacity:0.507802;fill-rule:evenodd;stroke:none;stroke-width:0.264583;stroke-linecap:butt;stroke-linejoin:miter;stroke-miterlimit:4;stroke-dasharray:none;stroke-dashoffset:0;stroke-opacity:1;-inkscape-stroke:none;stop-color:#000000;stop-opacity:1"
       id="ellipse9461"
       cx="90.6427"
       cy="133.87329"
       rx="26.172165"
       ry="16.175287" />
    <g
       aria-label="array-oriented
interface and
performance"
       id="text3726"
       style="font-size:4.23333px;line-height:1.25;font-family:'DejaVu Sans';-inkscape-font-specification:'DejaVu Sans';text-align:center;text-anchor:middle;stroke-width:0.264583">
      <path
         d="m 82.976582,128.58576 q -0.460953,0 -0.63872,0.10542 -0.177767,0.10542 -0.177767,0.35967 0,0.20257 0.132292,0.32246 0.134358,0.11782 0.363802,0.11782 0.316259,0 0.506428,-0.22324 0.192236,-0.22531 0.192236,-0.59738 v -0.0848 z m 0.75861,-0.1571 v 1.32085 h -0.380339 v -0.3514 q -0.130224,0.21084 -0.324527,0.31213 -0.194304,0.0992 -0.475423,0.0992 -0.355534,0 -0.566373,-0.19844 -0.208773,-0.20051 -0.208773,-0.53537 0,-0.39067 0.260449,-0.58911 0.262516,-0.19844 0.781347,-0.19844 h 0.5333 v -0.0372 q 0,-0.26252 -0.173632,-0.40515 -0.171566,-0.14469 -0.483691,-0.14469 -0.198438,0 -0.38654,0.0475 -0.188102,0.0475 -0.361734,0.14263 v -0.3514 q 0.208772,-0.0806 0.405142,-0.11989 0.196371,-0.0413 0.382406,-0.0413 0.502294,0 0.750341,0.26045 0.248047,0.26045 0.248047,0.78961 z"
         id="path879" />
      <path
         d="m 85.860125,127.78994 q -0.06408,-0.0372 -0.14056,-0.0537 -0.07441,-0.0186 -0.165364,-0.0186 -0.322461,0 -0.496094,0.21084 -0.171565,0.20877 -0.171565,0.60151 v 1.21956 h -0.382406 v -2.3151 h 0.382406 v 0.35967 q 0.119889,-0.21084 0.312125,-0.31213 0.192236,-0.10335 0.467155,-0.10335 0.03927,0 0.08682,0.006 0.04754,0.004 0.10542,0.0145 z"
         id="path881" />
      <path
         d="m 87.526171,127.78994 q -0.06408,-0.0372 -0.140559,-0.0537 -0.07441,-0.0186 -0.165365,-0.0186 -0.32246,0 -0.496093,0.21084 -0.171566,0.20877 -0.171566,0.60151 v 1.21956 h -0.382405 v -2.3151 h 0.382405 v 0.35967 q 0.119889,-0.21084 0.312126,-0.31213 0.192236,-0.10335 0.467154,-0.10335 0.03927,0 0.08682,0.006 0.04754,0.004 0.105419,0.0145 z"
         id="path883" />
      <path
         d="m 88.977245,128.58576 q -0.460954,0 -0.638721,0.10542 -0.177766,0.10542 -0.177766,0.35967 0,0.20257 0.132291,0.32246 0.134359,0.11782 0.363802,0.11782 0.316259,0 0.506429,-0.22324 0.192236,-0.22531 0.192236,-0.59738 v -0.0848 z m 0.758609,-0.1571 v 1.32085 h -0.380338 v -0.3514 q -0.130225,0.21084 -0.324528,0.31213 -0.194303,0.0992 -0.475423,0.0992 -0.355533,0 -0.566373,-0.19844 -0.208773,-0.20051 -0.208773,-0.53537 0,-0.39067 0.260449,-0.58911 0.262516,-0.19844 0.781347,-0.19844 h 0.533301 v -0.0372 q 0,-0.26252 -0.173633,-0.40515 -0.171566,-0.14469 -0.483691,-0.14469 -0.198437,0 -0.386539,0.0475 -0.188102,0.0475 -0.361735,0.14263 v -0.3514 q 0.208773,-0.0806 0.405143,-0.11989 0.19637,-0.0413 0.382405,-0.0413 0.502295,0 0.750341,0.26045 0.248047,0.26045 0.248047,0.78961 z"
         id="path885" />
      <path
         d="m 91.482516,129.96449 q -0.16123,0.41341 -0.314192,0.5395 -0.152963,0.12609 -0.409277,0.12609 h -0.303858 v -0.31833 h 0.223242 q 0.157097,0 0.243913,-0.0744 0.08682,-0.0744 0.192236,-0.3514 l 0.06821,-0.17364 -0.936376,-2.27789 h 0.403076 l 0.723469,1.81074 0.723469,-1.81074 h 0.403076 z"
         id="path887" />
      <path
         d="m 92.75789,128.42039 h 1.114143 v 0.339 H 92.75789 Z"
         id="path889" />
      <path
         d="m 95.45333,127.70106 q -0.305924,0 -0.483691,0.23978 -0.177767,0.23771 -0.177767,0.65319 0,0.41548 0.1757,0.65525 0.177767,0.23772 0.485758,0.23772 0.303857,0 0.481624,-0.23978 0.177767,-0.23978 0.177767,-0.65319 0,-0.41135 -0.177767,-0.65112 -0.177767,-0.24185 -0.481624,-0.24185 z m 0,-0.32246 q 0.496093,0 0.77928,0.32246 0.283186,0.32246 0.283186,0.89297 0,0.56844 -0.283186,0.89297 -0.283187,0.32246 -0.77928,0.32246 -0.498161,0 -0.781347,-0.32246 -0.28112,-0.32453 -0.28112,-0.89297 0,-0.57051 0.28112,-0.89297 0.283186,-0.32246 0.781347,-0.32246 z"
         id="path891" />
      <path
         d="m 98.487767,127.78994 q -0.06408,-0.0372 -0.14056,-0.0537 -0.07441,-0.0186 -0.165364,-0.0186 -0.322461,0 -0.496094,0.21084 -0.171565,0.20877 -0.171565,0.60151 v 1.21956 h -0.382405 v -2.3151 h 0.382405 v 0.35967 q 0.119889,-0.21084 0.312125,-0.31213 0.192236,-0.10335 0.467155,-0.10335 0.03927,0 0.08682,0.006 0.04754,0.004 0.10542,0.0145 z"
         id="path893" />
      <path
         d="m 98.886708,127.43441 h 0.380339 v 2.3151 h -0.380339 z m 0,-0.90124 h 0.380339 v 0.48163 h -0.380339 z"
         id="path895" />
      <path
         d="m 102.0431,128.49688 v 0.18603 h -1.74873 q 0.0248,0.39274 0.23565,0.59945 0.2129,0.20464 0.59118,0.20464 0.2191,0 0.42374,-0.0538 0.20671,-0.0537 0.40928,-0.16123 v 0.35967 q -0.20464,0.0868 -0.41961,0.13229 -0.21498,0.0455 -0.43615,0.0455 -0.55397,0 -0.8785,-0.32246 -0.322461,-0.32247 -0.322461,-0.8723 0,-0.56844 0.305921,-0.90124 0.30799,-0.33486 0.82889,-0.33486 0.46716,0 0.73794,0.30179 0.27285,0.29972 0.27285,0.81649 z m -0.38034,-0.11162 q -0.004,-0.31213 -0.1757,-0.49817 -0.16949,-0.18603 -0.45061,-0.18603 -0.31833,0 -0.51057,0.17983 -0.19017,0.17984 -0.2191,0.50643 z"
         id="path897" />
      <path
         d="m 104.59178,128.35218 v 1.39733 h -0.38034 v -1.38493 q 0,-0.32866 -0.12815,-0.49195 -0.12816,-0.1633 -0.38448,-0.1633 -0.30799,0 -0.48575,0.19637 -0.17777,0.19637 -0.17777,0.53537 v 1.30844 h -0.38241 v -2.3151 h 0.38241 v 0.35967 q 0.13643,-0.20878 0.32039,-0.31213 0.18604,-0.10335 0.42788,-0.10335 0.39895,0 0.60358,0.24805 0.20464,0.24598 0.20464,0.72553 z"
         id="path899" />
      <path
         d="m 105.7266,126.77709 v 0.65732 h 0.78341 V 127.73 h -0.78341 v 1.25677 q 0,0.28318 0.0765,0.3638 0.0786,0.0806 0.31626,0.0806 h 0.39067 v 0.31832 h -0.39067 q -0.44029,0 -0.60772,-0.1633 -0.16743,-0.16536 -0.16743,-0.59944 V 127.73 h -0.27905 v -0.29559 h 0.27905 v -0.65732 z"
         id="path901" />
      <path
         d="m 108.99048,128.49688 v 0.18603 h -1.74873 q 0.0248,0.39274 0.23564,0.59945 0.21291,0.20464 0.59118,0.20464 0.21911,0 0.42375,-0.0538 0.2067,-0.0537 0.40927,-0.16123 v 0.35967 q -0.20463,0.0868 -0.41961,0.13229 -0.21497,0.0455 -0.43615,0.0455 -0.55397,0 -0.8785,-0.32246 -0.32246,-0.32247 -0.32246,-0.8723 0,-0.56844 0.30593,-0.90124 0.30799,-0.33486 0.82889,-0.33486 0.46715,0 0.73794,0.30179 0.27285,0.29972 0.27285,0.81649 z m -0.38034,-0.11162 q -0.004,-0.31213 -0.1757,-0.49817 -0.1695,-0.18603 -0.45062,-0.18603 -0.31833,0 -0.51056,0.17983 -0.19017,0.17984 -0.21911,0.50643 z"
         id="path903" />
      <path
         d="m 111.13815,127.78581 v -1.25264 h 0.38034 v 3.21634 h -0.38034 v -0.34726 q -0.11989,0.2067 -0.30386,0.30799 -0.1819,0.0992 -0.43821,0.0992 -0.41962,0 -0.6842,-0.33487 -0.26252,-0.33486 -0.26252,-0.88056 0,-0.54571 0.26252,-0.88057 0.26458,-0.33486 0.6842,-0.33486 0.25631,0 0.43821,0.10128 0.18397,0.0992 0.30386,0.30593 z m -1.29605,0.80822 q 0,0.41961 0.17157,0.65939 0.17363,0.23771 0.47542,0.23771 0.30179,0 0.47543,-0.23771 0.17363,-0.23978 0.17363,-0.65939 0,-0.41961 -0.17363,-0.65733 -0.17364,-0.23977 -0.47543,-0.23977 -0.30179,0 -0.47542,0.23977 -0.17157,0.23772 -0.17157,0.65733 z"
         id="path905" />
      <path
         d="m 83.017923,132.72607 h 0.380339 v 2.3151 h -0.380339 z m 0,-0.90123 h 0.380339 v 0.48162 h -0.380339 z"
         id="path907" />
      <path
         d="m 86.118507,133.64384 v 1.39733 h -0.380339 v -1.38492 q 0,-0.32867 -0.128157,-0.49196 -0.128157,-0.1633 -0.384472,-0.1633 -0.307992,0 -0.485758,0.19637 -0.177767,0.19637 -0.177767,0.53537 v 1.30844 h -0.382405 v -2.3151 h 0.382405 v 0.35967 q 0.136425,-0.20877 0.320393,-0.31213 0.186035,-0.10335 0.427881,-0.10335 0.398942,0 0.60358,0.24805 0.204639,0.24598 0.204639,0.72553 z"
         id="path909" />
      <path
         d="m 87.25332,132.06875 v 0.65732 h 0.783414 v 0.29559 H 87.25332 v 1.25677 q 0,0.28319 0.07648,0.3638 0.07855,0.0806 0.31626,0.0806 h 0.390673 v 0.31832 H 87.64606 q -0.440283,0 -0.607715,-0.16329 -0.167431,-0.16537 -0.167431,-0.59945 v -1.25677 h -0.279053 v -0.29559 h 0.279053 v -0.65732 z"
         id="path911" />
      <path
         d="m 90.517201,133.78854 v 0.18603 h -1.748729 q 0.0248,0.39274 0.235644,0.59945 0.212907,0.20464 0.591178,0.20464 0.219108,0 0.423746,-0.0538 0.206706,-0.0537 0.409277,-0.16123 v 0.35967 q -0.204638,0.0868 -0.419612,0.13229 -0.214974,0.0455 -0.436149,0.0455 -0.553971,0 -0.878498,-0.32246 -0.322461,-0.32246 -0.322461,-0.8723 0,-0.56844 0.305924,-0.90124 0.307992,-0.33486 0.82889,-0.33486 0.467154,0 0.737938,0.30179 0.272852,0.29972 0.272852,0.81649 z m -0.380338,-0.11162 q -0.0041,-0.31213 -0.1757,-0.49816 -0.169499,-0.18604 -0.450618,-0.18604 -0.318327,0 -0.510563,0.17984 -0.190169,0.17983 -0.219108,0.50642 z"
         id="path913" />
      <path
         d="m 92.482971,133.08161 q -0.06408,-0.0372 -0.14056,-0.0538 -0.07441,-0.0186 -0.165364,-0.0186 -0.322461,0 -0.496094,0.21084 -0.171565,0.20877 -0.171565,0.60151 v 1.21956 h -0.382406 v -2.3151 h 0.382406 v 0.35967 q 0.119889,-0.21084 0.312125,-0.31213 0.192236,-0.10335 0.467155,-0.10335 0.03927,0 0.08682,0.006 0.04754,0.004 0.10542,0.0145 z"
         id="path915" />
      <path
         d="m 94.053933,131.82484 v 0.31625 h -0.363802 q -0.204639,0 -0.285254,0.0827 -0.07855,0.0827 -0.07855,0.29765 v 0.20464 h 0.626318 v 0.29559 h -0.626318 v 2.01951 h -0.382405 v -2.01951 H 92.58012 v -0.29559 h 0.363802 v -0.16123 q 0,-0.38654 0.179834,-0.56224 0.179834,-0.17776 0.570507,-0.17776 z"
         id="path917" />
      <path
         d="m 95.42439,133.87742 q -0.460953,0 -0.63872,0.10542 -0.177767,0.10542 -0.177767,0.35967 0,0.20257 0.132292,0.32246 0.134359,0.11782 0.363802,0.11782 0.316259,0 0.506428,-0.22324 0.192237,-0.22531 0.192237,-0.59738 v -0.0847 z m 0.75861,-0.15709 v 1.32084 h -0.380338 v -0.3514 q -0.130225,0.21084 -0.324528,0.31213 -0.194303,0.0992 -0.475423,0.0992 -0.355534,0 -0.566373,-0.19844 -0.208773,-0.2005 -0.208773,-0.53537 0,-0.39067 0.260449,-0.58911 0.262516,-0.19843 0.781347,-0.19843 h 0.533301 v -0.0372 q 0,-0.26252 -0.173633,-0.40514 -0.171566,-0.1447 -0.483691,-0.1447 -0.198437,0 -0.38654,0.0475 -0.188102,0.0476 -0.361734,0.14263 v -0.3514 q 0.208772,-0.0806 0.405143,-0.11989 0.19637,-0.0413 0.382405,-0.0413 0.502294,0 0.750341,0.26045 0.248047,0.26045 0.248047,0.78962 z"
         id="path919" />
      <path
         d="m 98.632461,132.81496 v 0.35553 q -0.16123,-0.0889 -0.324528,-0.13229 -0.16123,-0.0455 -0.326594,-0.0455 -0.370003,0 -0.574642,0.23565 -0.204638,0.23357 -0.204638,0.65732 0,0.42375 0.204638,0.65939 0.204639,0.23358 0.574642,0.23358 0.165364,0 0.326594,-0.0434 0.163298,-0.0455 0.324528,-0.13436 v 0.3514 q -0.159163,0.0744 -0.330729,0.11162 -0.169498,0.0372 -0.361734,0.0372 -0.522965,0 -0.830957,-0.32866 -0.307991,-0.32867 -0.307991,-0.88677 0,-0.56637 0.310058,-0.8909 0.312126,-0.32453 0.853694,-0.32453 0.1757,0 0.343131,0.0372 0.167432,0.0351 0.324528,0.10749 z"
         id="path921" />
      <path
         d="m 101.27416,133.78854 v 0.18603 h -1.748731 q 0.0248,0.39274 0.235644,0.59945 0.212907,0.20464 0.591177,0.20464 0.21911,0 0.42375,-0.0538 0.2067,-0.0537 0.40927,-0.16123 v 0.35967 q -0.20463,0.0868 -0.41961,0.13229 -0.21497,0.0455 -0.43615,0.0455 -0.553967,0 -0.878495,-0.32246 -0.322461,-0.32246 -0.322461,-0.8723 0,-0.56844 0.305924,-0.90124 0.307992,-0.33486 0.828892,-0.33486 0.46715,0 0.73794,0.30179 0.27285,0.29972 0.27285,0.81649 z m -0.38034,-0.11162 q -0.004,-0.31213 -0.1757,-0.49816 -0.1695,-0.18604 -0.45062,-0.18604 -0.318325,0 -0.510561,0.17984 -0.190169,0.17983 -0.219108,0.50642 z"
         id="path923" />
      <path
         d="m 104.29619,133.87742 q -0.46095,0 -0.63872,0.10542 -0.17776,0.10542 -0.17776,0.35967 0,0.20257 0.13229,0.32246 0.13436,0.11782 0.3638,0.11782 0.31626,0 0.50643,-0.22324 0.19223,-0.22531 0.19223,-0.59738 v -0.0847 z m 0.75861,-0.15709 v 1.32084 h -0.38034 v -0.3514 q -0.13022,0.21084 -0.32452,0.31213 -0.19431,0.0992 -0.47543,0.0992 -0.35553,0 -0.56637,-0.19844 -0.20877,-0.2005 -0.20877,-0.53537 0,-0.39067 0.26045,-0.58911 0.26251,-0.19843 0.78134,-0.19843 h 0.5333 v -0.0372 q 0,-0.26252 -0.17363,-0.40514 -0.17156,-0.1447 -0.48369,-0.1447 -0.19844,0 -0.38654,0.0475 -0.1881,0.0476 -0.36173,0.14263 v -0.3514 q 0.20877,-0.0806 0.40514,-0.11989 0.19637,-0.0413 0.38241,-0.0413 0.50229,0 0.75034,0.26045 0.24804,0.26045 0.24804,0.78962 z"
         id="path925" />
      <path
         d="m 107.76265,133.64384 v 1.39733 h -0.38034 v -1.38492 q 0,-0.32867 -0.12816,-0.49196 -0.12816,-0.1633 -0.38447,-0.1633 -0.30799,0 -0.48576,0.19637 -0.17777,0.19637 -0.17777,0.53537 v 1.30844 h -0.3824 v -2.3151 h 0.3824 v 0.35967 q 0.13643,-0.20877 0.3204,-0.31213 0.18603,-0.10335 0.42788,-0.10335 0.39894,0 0.60358,0.24805 0.20464,0.24598 0.20464,0.72553 z"
         id="path927" />
      <path
         d="m 110.04468,133.07747 v -1.25263 h 0.38033 v 3.21633 h -0.38033 v -0.34726 q -0.11989,0.2067 -0.30386,0.30799 -0.1819,0.0992 -0.43822,0.0992 -0.41961,0 -0.68419,-0.33486 -0.26252,-0.33487 -0.26252,-0.88057 0,-0.5457 0.26252,-0.88057 0.26458,-0.33486 0.68419,-0.33486 0.25632,0 0.43822,0.10129 0.18397,0.0992 0.30386,0.30592 z m -1.29605,0.80822 q 0,0.41961 0.17157,0.65939 0.17363,0.23771 0.47542,0.23771 0.30179,0 0.47542,-0.23771 0.17364,-0.23978 0.17364,-0.65939 0,-0.41961 -0.17364,-0.65732 -0.17363,-0.23978 -0.47542,-0.23978 -0.30179,0 -0.47542,0.23978 -0.17157,0.23771 -0.17157,0.65732 z"
         id="path929" />
      <path
         d="m 83.925361,139.98557 v 1.22783 h -0.382406 v -3.19567 h 0.382406 v 0.3514 q 0.119889,-0.2067 0.30179,-0.30592 0.183968,-0.10129 0.438216,-0.10129 0.421679,0 0.684195,0.33487 0.264583,0.33486 0.264583,0.88056 0,0.5457 -0.264583,0.88057 -0.262516,0.33486 -0.684195,0.33486 -0.254248,0 -0.438216,-0.0992 -0.181901,-0.10128 -0.30179,-0.30799 z m 1.293976,-0.80822 q 0,-0.41961 -0.173632,-0.65732 -0.171566,-0.23978 -0.473356,-0.23978 -0.30179,0 -0.475423,0.23978 -0.171565,0.23771 -0.171565,0.65732 0,0.41961 0.171565,0.65939 0.173633,0.23771 0.475423,0.23771 0.30179,0 0.473356,-0.23771 0.173632,-0.23978 0.173632,-0.65939 z"
         id="path931" />
      <path
         d="m 88.224836,139.0802 v 0.18604 h -1.748729 q 0.02481,0.39274 0.235645,0.59944 0.212906,0.20464 0.591177,0.20464 0.219108,0 0.423747,-0.0537 0.206705,-0.0538 0.409277,-0.16123 v 0.35966 q -0.204639,0.0868 -0.419612,0.1323 -0.214974,0.0455 -0.436149,0.0455 -0.553971,0 -0.878499,-0.32246 -0.32246,-0.32246 -0.32246,-0.8723 0,-0.56844 0.305924,-0.90123 0.307991,-0.33487 0.828889,-0.33487 0.467155,0 0.737939,0.30179 0.272851,0.29973 0.272851,0.81649 z m -0.380338,-0.11162 q -0.0041,-0.31213 -0.1757,-0.49816 -0.169498,-0.18604 -0.450618,-0.18604 -0.318326,0 -0.510563,0.17984 -0.190169,0.17983 -0.219107,0.50643 z"
         id="path933" />
      <path
         d="m 90.190606,138.37327 q -0.06408,-0.0372 -0.14056,-0.0537 -0.07441,-0.0186 -0.165364,-0.0186 -0.322461,0 -0.496093,0.21084 -0.171566,0.20877 -0.171566,0.60151 v 1.21957 h -0.382405 v -2.31511 h 0.382405 v 0.35967 q 0.119889,-0.21084 0.312125,-0.31212 0.192236,-0.10336 0.467155,-0.10336 0.03927,0 0.08682,0.006 0.04754,0.004 0.10542,0.0145 z"
         id="path935" />
      <path
         d="m 91.761568,137.1165 v 0.31626 h -0.363801 q -0.204639,0 -0.285254,0.0827 -0.07855,0.0827 -0.07855,0.29766 v 0.20463 h 0.626318 v 0.29559 h -0.626318 v 2.01952 H 90.65156 v -2.01952 h -0.363802 v -0.29559 h 0.363802 v -0.16123 q 0,-0.38654 0.179833,-0.56224 0.179834,-0.17776 0.570508,-0.17776 z"
         id="path937" />
      <path
         d="m 92.976997,138.28438 q -0.305924,0 -0.483691,0.23978 -0.177766,0.23771 -0.177766,0.65319 0,0.41548 0.175699,0.65526 0.177767,0.23771 0.485758,0.23771 0.303858,0 0.481624,-0.23978 0.177767,-0.23978 0.177767,-0.65319 0,-0.41134 -0.177767,-0.65112 -0.177766,-0.24185 -0.481624,-0.24185 z m 0,-0.32246 q 0.496094,0 0.77928,0.32246 0.283187,0.32246 0.283187,0.89297 0,0.56844 -0.283187,0.89297 -0.283186,0.32246 -0.77928,0.32246 -0.49816,0 -0.781347,-0.32246 -0.281119,-0.32453 -0.281119,-0.89297 0,-0.57051 0.281119,-0.89297 0.283187,-0.32246 0.781347,-0.32246 z"
         id="path939" />
      <path
         d="m 96.011435,138.37327 q -0.06408,-0.0372 -0.14056,-0.0537 -0.07441,-0.0186 -0.165365,-0.0186 -0.32246,0 -0.496093,0.21084 -0.171566,0.20877 -0.171566,0.60151 v 1.21957 h -0.382405 v -2.31511 h 0.382405 v 0.35967 q 0.11989,-0.21084 0.312126,-0.31212 0.192236,-0.10336 0.467154,-0.10336 0.03927,0 0.08682,0.006 0.04754,0.004 0.105419,0.0145 z"
         id="path941" />
      <path
         d="m 98.138435,138.46215 q 0.142627,-0.25631 0.341064,-0.37827 0.198437,-0.12196 0.467155,-0.12196 0.361734,0 0.558105,0.25425 0.19637,0.25218 0.19637,0.71934 v 1.39733 h -0.382405 v -1.38493 q 0,-0.3328 -0.117822,-0.49403 -0.117823,-0.16123 -0.359668,-0.16123 -0.295589,0 -0.467155,0.19637 -0.171565,0.19637 -0.171565,0.53537 v 1.30845 h -0.382406 v -1.38493 q 0,-0.33486 -0.117822,-0.49403 -0.117822,-0.16123 -0.363802,-0.16123 -0.291454,0 -0.46302,0.19844 -0.171566,0.19637 -0.171566,0.5333 v 1.30845 h -0.382405 v -2.31511 h 0.382405 v 0.35967 q 0.130225,-0.21291 0.312126,-0.31419 0.181901,-0.10129 0.432014,-0.10129 0.252181,0 0.427881,0.12816 0.177767,0.12816 0.262516,0.37207 z"
         id="path943" />
      <path
         d="m 101.51187,139.16908 q -0.46095,0 -0.63872,0.10542 -0.17777,0.10542 -0.17777,0.35967 0,0.20257 0.13229,0.32246 0.13436,0.11782 0.36381,0.11782 0.31626,0 0.50642,-0.22324 0.19224,-0.22531 0.19224,-0.59738 v -0.0847 z m 0.75861,-0.15709 v 1.32085 h -0.38034 v -0.3514 q -0.13022,0.21084 -0.32453,0.31212 -0.1943,0.0992 -0.47542,0.0992 -0.35553,0 -0.56637,-0.19844 -0.20878,-0.2005 -0.20878,-0.53536 0,-0.39068 0.26045,-0.58911 0.26252,-0.19844 0.78135,-0.19844 h 0.5333 v -0.0372 q 0,-0.26252 -0.17363,-0.40514 -0.17157,-0.1447 -0.48369,-0.1447 -0.19844,0 -0.38654,0.0476 -0.1881,0.0475 -0.36174,0.14262 v -0.3514 q 0.20878,-0.0806 0.40515,-0.11989 0.19637,-0.0413 0.3824,-0.0413 0.5023,0 0.75034,0.26045 0.24805,0.26045 0.24805,0.78962 z"
         id="path945" />
      <path
         d="m 104.97832,138.93551 v 1.39733 h -0.38034 v -1.38493 q 0,-0.32866 -0.12815,-0.49196 -0.12816,-0.1633 -0.38448,-0.1633 -0.30799,0 -0.48575,0.19637 -0.17777,0.19637 -0.17777,0.53537 v 1.30845 h -0.38241 v -2.31511 h 0.38241 v 0.35967 q 0.13642,-0.20877 0.32039,-0.31212 0.18604,-0.10336 0.42788,-0.10336 0.39894,0 0.60358,0.24805 0.20464,0.24598 0.20464,0.72554 z"
         id="path947" />
      <path
         d="m 107.40298,138.10662 v 0.35553 q -0.16123,-0.0889 -0.32453,-0.13229 -0.16123,-0.0455 -0.32659,-0.0455 -0.37001,0 -0.57465,0.23565 -0.20463,0.23358 -0.20463,0.65732 0,0.42375 0.20463,0.65939 0.20464,0.23358 0.57465,0.23358 0.16536,0 0.32659,-0.0434 0.1633,-0.0455 0.32453,-0.13436 v 0.3514 q -0.15917,0.0744 -0.33073,0.11162 -0.1695,0.0372 -0.36174,0.0372 -0.52296,0 -0.83095,-0.32866 -0.30799,-0.32866 -0.30799,-0.88677 0,-0.56637 0.31005,-0.8909 0.31213,-0.32453 0.8537,-0.32453 0.1757,0 0.34313,0.0372 0.16743,0.0351 0.32453,0.10749 z"
         id="path949" />
      <path
         d="m 110.04468,139.0802 v 0.18604 h -1.74873 q 0.0248,0.39274 0.23564,0.59944 0.21291,0.20464 0.59118,0.20464 0.21911,0 0.42375,-0.0537 0.2067,-0.0538 0.40927,-0.16123 v 0.35966 q -0.20464,0.0868 -0.41961,0.1323 -0.21497,0.0455 -0.43615,0.0455 -0.55397,0 -0.8785,-0.32246 -0.32246,-0.32246 -0.32246,-0.8723 0,-0.56844 0.30593,-0.90123 0.30799,-0.33487 0.82889,-0.33487 0.46715,0 0.73793,0.30179 0.27286,0.29973 0.27286,0.81649 z m -0.38034,-0.11162 q -0.004,-0.31213 -0.1757,-0.49816 -0.1695,-0.18604 -0.45062,-0.18604 -0.31833,0 -0.51056,0.17984 -0.19017,0.17983 -0.21911,0.50643 z"
         id="path951" />
    </g>
    <g
       aria-label="arbitrary data
structures"
       id="text3826"
       style="font-size:4.23333px;line-height:1.25;font-family:'DejaVu Sans';-inkscape-font-specification:'DejaVu Sans';text-align:center;text-anchor:middle;stroke-width:0.264583">
      <path
         d="m 33.679931,131.64191 q -0.460953,0 -0.63872,0.10542 -0.177767,0.10542 -0.177767,0.35967 0,0.20257 0.132292,0.32246 0.134359,0.11782 0.363802,0.11782 0.316259,0 0.506428,-0.22324 0.192236,-0.22531 0.192236,-0.59738 v -0.0848 z m 0.75861,-0.15709 v 1.32084 h -0.380339 v -0.3514 q -0.130224,0.21084 -0.324527,0.31213 -0.194303,0.0992 -0.475423,0.0992 -0.355534,0 -0.566373,-0.19844 -0.208773,-0.2005 -0.208773,-0.53537 0,-0.39067 0.260449,-0.58911 0.262516,-0.19843 0.781347,-0.19843 h 0.5333 v -0.0372 q 0,-0.26252 -0.173632,-0.40514 -0.171566,-0.1447 -0.483691,-0.1447 -0.198438,0 -0.38654,0.0475 -0.188102,0.0476 -0.361734,0.14263 v -0.3514 q 0.208772,-0.0806 0.405143,-0.11989 0.19637,-0.0413 0.382405,-0.0413 0.502294,0 0.750341,0.26045 0.248047,0.26045 0.248047,0.78962 z"
         id="path832" />
      <path
         d="m 36.563474,130.8461 q -0.06408,-0.0372 -0.14056,-0.0538 -0.07441,-0.0186 -0.165364,-0.0186 -0.322461,0 -0.496094,0.21084 -0.171565,0.20877 -0.171565,0.60151 v 1.21956 h -0.382406 v -2.3151 h 0.382406 v 0.35967 q 0.119889,-0.21084 0.312125,-0.31213 0.192236,-0.10335 0.467155,-0.10335 0.03927,0 0.08682,0.006 0.04754,0.004 0.10542,0.0145 z"
         id="path834" />
      <path
         d="m 38.624328,131.65018 q 0,-0.41961 -0.173632,-0.65732 -0.171566,-0.23978 -0.473356,-0.23978 -0.30179,0 -0.475423,0.23978 -0.171565,0.23771 -0.171565,0.65732 0,0.41961 0.171565,0.65939 0.173633,0.23771 0.475423,0.23771 0.30179,0 0.473356,-0.23771 0.173632,-0.23978 0.173632,-0.65939 z m -1.293976,-0.80822 q 0.119889,-0.2067 0.30179,-0.30592 0.183968,-0.10129 0.438216,-0.10129 0.421679,0 0.684195,0.33486 0.264583,0.33487 0.264583,0.88057 0,0.5457 -0.264583,0.88057 -0.262516,0.33486 -0.684195,0.33486 -0.254248,0 -0.438216,-0.0992 -0.181901,-0.10129 -0.30179,-0.30799 v 0.34726 h -0.382406 v -3.21633 h 0.382406 z"
         id="path836" />
      <path
         d="m 39.649588,130.49056 h 0.380338 v 2.3151 h -0.380338 z m 0,-0.90123 h 0.380338 v 0.48162 h -0.380338 z"
         id="path838" />
      <path
         d="m 41.201947,129.83324 v 0.65732 h 0.783414 v 0.29559 h -0.783414 v 1.25677 q 0,0.28319 0.07648,0.3638 0.07855,0.0806 0.316259,0.0806 h 0.390674 v 0.31832 h -0.390674 q -0.440282,0 -0.607714,-0.16329 -0.167431,-0.16537 -0.167431,-0.59945 v -1.25677 h -0.279053 v -0.29559 h 0.279053 v -0.65732 z"
         id="path840" />
      <path
         d="m 43.827107,130.8461 q -0.06408,-0.0372 -0.14056,-0.0538 -0.07441,-0.0186 -0.165364,-0.0186 -0.322461,0 -0.496093,0.21084 -0.171566,0.20877 -0.171566,0.60151 v 1.21956 h -0.382405 v -2.3151 h 0.382405 v 0.35967 q 0.119889,-0.21084 0.312125,-0.31213 0.192237,-0.10335 0.467155,-0.10335 0.03927,0 0.08682,0.006 0.04754,0.004 0.10542,0.0145 z"
         id="path842" />
      <path
         d="m 45.27818,131.64191 q -0.460954,0 -0.63872,0.10542 -0.177767,0.10542 -0.177767,0.35967 0,0.20257 0.132291,0.32246 0.134359,0.11782 0.363802,0.11782 0.31626,0 0.506429,-0.22324 0.192236,-0.22531 0.192236,-0.59738 v -0.0848 z m 0.758609,-0.15709 v 1.32084 h -0.380338 v -0.3514 q -0.130225,0.21084 -0.324528,0.31213 -0.194303,0.0992 -0.475423,0.0992 -0.355533,0 -0.566373,-0.19844 -0.208772,-0.2005 -0.208772,-0.53537 0,-0.39067 0.260449,-0.58911 0.262516,-0.19843 0.781347,-0.19843 h 0.5333 v -0.0372 q 0,-0.26252 -0.173633,-0.40514 -0.171565,-0.1447 -0.483691,-0.1447 -0.198437,0 -0.386539,0.0475 -0.188102,0.0476 -0.361735,0.14263 v -0.3514 q 0.208773,-0.0806 0.405143,-0.11989 0.19637,-0.0413 0.382405,-0.0413 0.502295,0 0.750342,0.26045 0.248046,0.26045 0.248046,0.78962 z"
         id="path844" />
      <path
         d="m 48.161723,130.8461 q -0.06408,-0.0372 -0.14056,-0.0538 -0.07441,-0.0186 -0.165364,-0.0186 -0.322461,0 -0.496094,0.21084 -0.171565,0.20877 -0.171565,0.60151 v 1.21956 h -0.382406 v -2.3151 h 0.382406 v 0.35967 q 0.119889,-0.21084 0.312125,-0.31213 0.192236,-0.10335 0.467155,-0.10335 0.03927,0 0.08682,0.006 0.04754,0.004 0.10542,0.0145 z"
         id="path846" />
      <path
         d="m 49.523912,133.02064 q -0.16123,0.41341 -0.314192,0.5395 -0.152962,0.12609 -0.409277,0.12609 h -0.303858 v -0.31833 h 0.223242 q 0.157097,0 0.243913,-0.0744 0.08682,-0.0744 0.192236,-0.3514 l 0.06821,-0.17363 -0.936376,-2.2779 h 0.403076 l 0.723469,1.81074 0.72347,-1.81074 H 50.5409 Z"
         id="path848" />
      <path
         d="m 53.935009,130.84196 v -1.25263 h 0.380338 v 3.21633 h -0.380338 v -0.34726 q -0.11989,0.2067 -0.303858,0.30799 -0.1819,0.0992 -0.438215,0.0992 -0.419613,0 -0.684196,-0.33486 -0.262516,-0.33487 -0.262516,-0.88057 0,-0.5457 0.262516,-0.88057 0.264583,-0.33486 0.684196,-0.33486 0.256315,0 0.438215,0.10129 0.183968,0.0992 0.303858,0.30592 z m -1.296044,0.80822 q 0,0.41961 0.171565,0.65939 0.173633,0.23771 0.475423,0.23771 0.30179,0 0.475423,-0.23771 0.173633,-0.23978 0.173633,-0.65939 0,-0.41961 -0.173633,-0.65732 -0.173633,-0.23978 -0.475423,-0.23978 -0.30179,0 -0.475423,0.23978 -0.171565,0.23771 -0.171565,0.65732 z"
         id="path850" />
      <path
         d="m 56.150892,131.64191 q -0.460953,0 -0.63872,0.10542 -0.177767,0.10542 -0.177767,0.35967 0,0.20257 0.132292,0.32246 0.134358,0.11782 0.363801,0.11782 0.31626,0 0.506429,-0.22324 0.192236,-0.22531 0.192236,-0.59738 v -0.0848 z m 0.758609,-0.15709 v 1.32084 h -0.380338 v -0.3514 q -0.130224,0.21084 -0.324528,0.31213 -0.194303,0.0992 -0.475422,0.0992 -0.355534,0 -0.566374,-0.19844 -0.208772,-0.2005 -0.208772,-0.53537 0,-0.39067 0.260449,-0.58911 0.262516,-0.19843 0.781347,-0.19843 h 0.5333 v -0.0372 q 0,-0.26252 -0.173633,-0.40514 -0.171565,-0.1447 -0.483691,-0.1447 -0.198437,0 -0.386539,0.0475 -0.188102,0.0476 -0.361735,0.14263 v -0.3514 q 0.208773,-0.0806 0.405143,-0.11989 0.19637,-0.0413 0.382405,-0.0413 0.502295,0 0.750342,0.26045 0.248046,0.26045 0.248046,0.78962 z"
         id="path852" />
      <path
         d="m 58.069121,129.83324 v 0.65732 h 0.783414 v 0.29559 h -0.783414 v 1.25677 q 0,0.28319 0.07648,0.3638 0.07855,0.0806 0.31626,0.0806 h 0.390673 v 0.31832 h -0.390673 q -0.440283,0 -0.607715,-0.16329 -0.167431,-0.16537 -0.167431,-0.59945 v -1.25677 h -0.279053 v -0.29559 h 0.279053 v -0.65732 z"
         id="path854" />
      <path
         d="m 60.404894,131.64191 q -0.460954,0 -0.638721,0.10542 -0.177766,0.10542 -0.177766,0.35967 0,0.20257 0.132291,0.32246 0.134359,0.11782 0.363802,0.11782 0.316259,0 0.506429,-0.22324 0.192236,-0.22531 0.192236,-0.59738 v -0.0848 z m 0.758609,-0.15709 v 1.32084 h -0.380338 v -0.3514 q -0.130225,0.21084 -0.324528,0.31213 -0.194303,0.0992 -0.475423,0.0992 -0.355533,0 -0.566373,-0.19844 -0.208773,-0.2005 -0.208773,-0.53537 0,-0.39067 0.260449,-0.58911 0.262516,-0.19843 0.781347,-0.19843 h 0.533301 v -0.0372 q 0,-0.26252 -0.173633,-0.40514 -0.171566,-0.1447 -0.483691,-0.1447 -0.198437,0 -0.386539,0.0475 -0.188102,0.0476 -0.361735,0.14263 v -0.3514 q 0.208773,-0.0806 0.405143,-0.11989 0.19637,-0.0413 0.382405,-0.0413 0.502295,0 0.750341,0.26045 0.248047,0.26045 0.248047,0.78962 z"
         id="path856" />
      <path
         d="m 38.054854,135.85044 v 0.35966 q -0.16123,-0.0827 -0.334863,-0.12402 -0.173632,-0.0413 -0.359667,-0.0413 -0.283187,0 -0.425814,0.0868 -0.14056,0.0868 -0.14056,0.26045 0,0.13229 0.101286,0.20877 0.101286,0.0744 0.40721,0.14262 l 0.130225,0.0289 q 0.405143,0.0868 0.574641,0.24598 0.171566,0.1571 0.171566,0.44029 0,0.32246 -0.256315,0.51056 -0.254248,0.1881 -0.700732,0.1881 -0.186035,0 -0.388606,-0.0372 -0.200505,-0.0351 -0.423747,-0.10748 v -0.39274 q 0.21084,0.10955 0.415478,0.16536 0.204639,0.0537 0.405143,0.0537 0.268717,0 0.413411,-0.091 0.144694,-0.093 0.144694,-0.26045 0,-0.15502 -0.10542,-0.23771 -0.103352,-0.0827 -0.456819,-0.15916 l -0.132291,-0.031 q -0.353467,-0.0744 -0.510563,-0.22737 -0.157096,-0.15503 -0.157096,-0.42375 0,-0.32659 0.23151,-0.50436 0.23151,-0.17777 0.657323,-0.17777 0.21084,0 0.396875,0.031 0.186035,0.031 0.343131,0.093 z"
         id="path858" />
      <path
         d="m 39.160729,135.1249 v 0.65732 h 0.783414 v 0.29559 h -0.783414 v 1.25677 q 0,0.28319 0.07648,0.3638 0.07855,0.0806 0.31626,0.0806 h 0.390673 v 0.31833 H 39.55347 q -0.440283,0 -0.607715,-0.1633 -0.167431,-0.16537 -0.167431,-0.59945 v -1.25677 h -0.279053 v -0.29559 h 0.279053 v -0.65732 z"
         id="path860" />
      <path
         d="m 41.78589,136.13776 q -0.06408,-0.0372 -0.14056,-0.0537 -0.07441,-0.0186 -0.165365,-0.0186 -0.32246,0 -0.496093,0.21084 -0.171566,0.20877 -0.171566,0.60151 v 1.21957 h -0.382405 v -2.31511 h 0.382405 v 0.35967 q 0.11989,-0.21084 0.312126,-0.31212 0.192236,-0.10336 0.467154,-0.10336 0.03927,0 0.08682,0.006 0.04754,0.004 0.10542,0.0145 z"
         id="path862" />
      <path
         d="m 42.145557,137.18369 v -1.40147 h 0.380338 v 1.387 q 0,0.32866 0.128158,0.49402 0.128157,0.1633 0.384472,0.1633 0.307991,0 0.485758,-0.19637 0.179834,-0.19637 0.179834,-0.53537 v -1.31258 h 0.380338 v 2.31511 h -0.380338 v -0.35554 q -0.138493,0.21084 -0.322461,0.3142 -0.1819,0.10128 -0.423746,0.10128 -0.398942,0 -0.605647,-0.24805 -0.206706,-0.24804 -0.206706,-0.72553 z m 0.957047,-1.45728 z"
         id="path864" />
      <path
         d="m 46.533916,135.87111 v 0.35553 q -0.16123,-0.0889 -0.324527,-0.13229 -0.161231,-0.0455 -0.326595,-0.0455 -0.370003,0 -0.574642,0.23565 -0.204638,0.23358 -0.204638,0.65732 0,0.42375 0.204638,0.65939 0.204639,0.23358 0.574642,0.23358 0.165364,0 0.326595,-0.0434 0.163297,-0.0455 0.324527,-0.13436 v 0.3514 q -0.159163,0.0744 -0.330729,0.11162 -0.169498,0.0372 -0.361734,0.0372 -0.522965,0 -0.830957,-0.32866 -0.307991,-0.32866 -0.307991,-0.88677 0,-0.56637 0.310058,-0.8909 0.312126,-0.32453 0.853694,-0.32453 0.1757,0 0.343132,0.0372 0.167431,0.0351 0.324527,0.10749 z"
         id="path866" />
      <path
         d="m 47.571578,135.1249 v 0.65732 h 0.783414 v 0.29559 h -0.783414 v 1.25677 q 0,0.28319 0.07648,0.3638 0.07855,0.0806 0.316259,0.0806 h 0.390674 v 0.31833 h -0.390674 q -0.440283,0 -0.607714,-0.1633 -0.167432,-0.16537 -0.167432,-0.59945 v -1.25677 H 46.91012 v -0.29559 h 0.279052 v -0.65732 z"
         id="path868" />
      <path
         d="m 48.815946,137.18369 v -1.40147 h 0.380338 v 1.387 q 0,0.32866 0.128158,0.49402 0.128157,0.1633 0.384472,0.1633 0.307991,0 0.485758,-0.19637 0.179834,-0.19637 0.179834,-0.53537 v -1.31258 h 0.380338 v 2.31511 h -0.380338 v -0.35554 q -0.138493,0.21084 -0.322461,0.3142 -0.181901,0.10128 -0.423746,0.10128 -0.398942,0 -0.605648,-0.24805 -0.206705,-0.24804 -0.206705,-0.72553 z m 0.957047,-1.45728 z"
         id="path870" />
      <path
         d="m 52.879777,136.13776 q -0.06408,-0.0372 -0.14056,-0.0537 -0.07441,-0.0186 -0.165364,-0.0186 -0.322461,0 -0.496094,0.21084 -0.171565,0.20877 -0.171565,0.60151 v 1.21957 h -0.382406 v -2.31511 h 0.382406 v 0.35967 q 0.119889,-0.21084 0.312125,-0.31212 0.192236,-0.10336 0.467155,-0.10336 0.03927,0 0.08682,0.006 0.04754,0.004 0.10542,0.0145 z"
         id="path872" />
      <path
         d="m 55.16594,136.84469 v 0.18604 h -1.748729 q 0.0248,0.39274 0.235644,0.59944 0.212907,0.20464 0.591178,0.20464 0.219108,0 0.423746,-0.0537 0.206706,-0.0538 0.409277,-0.16123 v 0.35966 q -0.204638,0.0868 -0.419612,0.1323 -0.214974,0.0455 -0.436149,0.0455 -0.553971,0 -0.878498,-0.32246 -0.322461,-0.32246 -0.322461,-0.8723 0,-0.56844 0.305924,-0.90123 0.307992,-0.33487 0.82889,-0.33487 0.467154,0 0.737938,0.30179 0.272852,0.29973 0.272852,0.81649 z m -0.380338,-0.11162 q -0.0041,-0.31213 -0.1757,-0.49816 -0.169499,-0.18604 -0.450618,-0.18604 -0.318327,0 -0.510563,0.17984 -0.190169,0.17983 -0.219108,0.50643 z"
         id="path874" />
      <path
         d="m 57.266068,135.85044 v 0.35966 q -0.16123,-0.0827 -0.334863,-0.12402 -0.173632,-0.0413 -0.359667,-0.0413 -0.283187,0 -0.425814,0.0868 -0.140559,0.0868 -0.140559,0.26045 0,0.13229 0.101285,0.20877 0.101286,0.0744 0.40721,0.14262 l 0.130225,0.0289 q 0.405143,0.0868 0.574641,0.24598 0.171566,0.1571 0.171566,0.44029 0,0.32246 -0.256315,0.51056 -0.254248,0.1881 -0.700732,0.1881 -0.186035,0 -0.388606,-0.0372 -0.200505,-0.0351 -0.423747,-0.10748 v -0.39274 q 0.21084,0.10955 0.415478,0.16536 0.204639,0.0537 0.405143,0.0537 0.268718,0 0.413411,-0.091 0.144694,-0.093 0.144694,-0.26045 0,-0.15502 -0.10542,-0.23771 -0.103352,-0.0827 -0.456819,-0.15916 l -0.132291,-0.031 q -0.353467,-0.0744 -0.510563,-0.22737 -0.157096,-0.15503 -0.157096,-0.42375 0,-0.32659 0.23151,-0.50436 0.23151,-0.17777 0.657324,-0.17777 0.210839,0 0.396874,0.031 0.186035,0.031 0.343131,0.093 z"
         id="path876" />
    </g>
    <ellipse
       style="font-variation-settings:normal;opacity:1;vector-effect:none;fill:none;fill-opacity:1;fill-rule:evenodd;stroke:#000000;stroke-width:0.264583;stroke-linecap:butt;stroke-linejoin:miter;stroke-miterlimit:4;stroke-dasharray:none;stroke-dashoffset:0;stroke-opacity:1;-inkscape-stroke:none;stop-color:#000000;stop-opacity:1"
       id="ellipse14503"
       cx="53.802662"
       cy="133.87329"
       rx="26.172165"
       ry="16.175287" />
    <ellipse
       style="font-variation-settings:normal;opacity:1;vector-effect:none;fill:none;fill-opacity:0.507802;fill-rule:evenodd;stroke:#000000;stroke-width:0.264583;stroke-linecap:butt;stroke-linejoin:miter;stroke-miterlimit:4;stroke-dasharray:none;stroke-dashoffset:0;stroke-opacity:1;-inkscape-stroke:none;stop-color:#000000;stop-opacity:1"
       id="ellipse14505"
       cx="90.6427"
       cy="133.87329"
       rx="26.172165"
       ry="16.175287" />
  </g>
</svg>
