<?xml version="1.0" encoding="UTF-8" standalone="no"?>
<!-- Created with Inkscape (http://www.inkscape.org/) -->

<svg
   width="154.96762mm"
   height="94.379189mm"
   viewBox="0 0 154.96762 94.379189"
   version="1.1"
   id="svg5"
   inkscape:version="1.1.2 (0a00cf5339, 2022-02-04)"
   sodipodi:docname="python-array-layout.svg"
   xmlns:inkscape="http://www.inkscape.org/namespaces/inkscape"
   xmlns:sodipodi="http://sodipodi.sourceforge.net/DTD/sodipodi-0.dtd"
   xmlns="http://www.w3.org/2000/svg"
   xmlns:svg="http://www.w3.org/2000/svg">
  <sodipodi:namedview
     id="namedview7"
     pagecolor="#ffffff"
     bordercolor="#666666"
     borderopacity="1.0"
     inkscape:pageshadow="2"
     inkscape:pageopacity="0.0"
     inkscape:pagecheckerboard="0"
     inkscape:document-units="mm"
     showgrid="false"
     inkscape:object-paths="false"
     inkscape:zoom="1.2316241"
     inkscape:cx="198.92433"
     inkscape:cy="317.46699"
     inkscape:window-width="2554"
     inkscape:window-height="1365"
     inkscape:window-x="1920"
     inkscape:window-y="32"
     inkscape:window-maximized="1"
     inkscape:current-layer="layer1"
     fit-margin-top="5"
     fit-margin-left="5"
     fit-margin-right="5"
     fit-margin-bottom="5" />
  <defs
     id="defs2">
    <marker
       style="overflow:visible"
       id="Arrow1Mend"
       refX="0"
       refY="0"
       orient="auto"
       inkscape:stockid="Arrow1Mend"
       inkscape:isstock="true">
      <path
         transform="matrix(-0.4,0,0,-0.4,-4,0)"
         style="fill:context-stroke;fill-rule:evenodd;stroke:context-stroke;stroke-width:1pt"
         d="M 0,0 5,-5 -12.5,0 5,5 Z"
         id="path54148" />
    </marker>
    <marker
       style="overflow:visible"
       id="Arrow1Mend-3"
       refX="0"
       refY="0"
       orient="auto"
       inkscape:stockid="Arrow1Mend"
       inkscape:isstock="true">
      <path
         transform="matrix(-0.4,0,0,-0.4,-4,0)"
         style="fill:context-stroke;fill-rule:evenodd;stroke:context-stroke;stroke-width:1pt"
         d="M 0,0 5,-5 -12.5,0 5,5 Z"
         id="path54148-6" />
    </marker>
  </defs>
  <g
     inkscape:label="Layer 1"
     inkscape:groupmode="layer"
     id="layer1"
     transform="translate(-16.865248,-81.82902)">
    <rect
       style="font-variation-settings:normal;opacity:1;vector-effect:none;fill:#eef8fa;fill-opacity:1;fill-rule:evenodd;stroke:#000000;stroke-width:0.264583;stroke-linecap:butt;stroke-linejoin:miter;stroke-miterlimit:4;stroke-dasharray:none;stroke-dashoffset:0;stroke-opacity:1;-inkscape-stroke:none;stop-color:#000000;stop-opacity:1"
       id="rect39466"
       width="38.869743"
       height="84.114609"
       x="74.914207"
       y="86.961311" />
    <rect
       style="font-variation-settings:normal;opacity:1;vector-effect:none;fill:#fff4ec;fill-opacity:1;fill-rule:evenodd;stroke:#000000;stroke-width:0.264583;stroke-linecap:butt;stroke-linejoin:miter;stroke-miterlimit:4;stroke-dasharray:none;stroke-dashoffset:0;stroke-opacity:1;-inkscape-stroke:none;stop-color:#000000;stop-opacity:1"
       id="rect51208"
       width="38.86974"
       height="32.12669"
       x="21.99754"
       y="86.961311" />
    <g
       aria-label="array PyObject
reference count
type PyObject*
other stuff..."
       id="text16910"
       style="font-size:4.23333px;line-height:1.5;font-family:'DejaVu Sans';-inkscape-font-specification:'DejaVu Sans';stroke-width:0.264583">
      <path
         d="m 25.691242,91.344709 q -0.231511,0 -0.349333,0.07855 -0.115755,0.07855 -0.115755,0.23151 0,0.14056 0.09302,0.221175 0.09508,0.07855 0.262516,0.07855 0.208772,0 0.351399,-0.148828 0.142627,-0.150896 0.142627,-0.376205 v -0.08475 z m 1.130679,-0.279052 v 1.320848 h -0.746207 v -0.343131 q -0.148828,0.21084 -0.334863,0.307991 -0.186035,0.09508 -0.452685,0.09508 -0.359668,0 -0.584977,-0.208773 -0.223242,-0.21084 -0.223242,-0.545703 0,-0.407209 0.279053,-0.597379 0.281119,-0.190169 0.880565,-0.190169 h 0.436149 v -0.05788 q 0,-0.1757 -0.138493,-0.256315 -0.138493,-0.08268 -0.432014,-0.08268 -0.237712,0 -0.44235,0.04754 -0.204639,0.04754 -0.380339,0.142627 v -0.564306 q 0.237712,-0.05788 0.47749,-0.08682 0.239779,-0.03101 0.479557,-0.03101 0.626318,0 0.903303,0.248047 0.279053,0.24598 0.279053,0.802018 z"
         style="font-weight:bold;fill:#ff6600"
         id="path1853" />
      <path
         d="m 29.230041,90.701855 q -0.09715,-0.04547 -0.194303,-0.06615 -0.09508,-0.02274 -0.192237,-0.02274 -0.285253,0 -0.440282,0.183968 -0.152963,0.181901 -0.152963,0.522965 v 1.066601 h -0.740005 v -2.315102 h 0.740005 v 0.380338 q 0.142627,-0.227376 0.326595,-0.330729 0.186035,-0.10542 0.444417,-0.10542 0.03721,0 0.08062,0.0041 0.04341,0.0021 0.126091,0.0124 z"
         style="font-weight:bold;fill:#ff6600"
         id="path1855" />
      <path
         d="m 31.317767,90.701855 q -0.09715,-0.04547 -0.194303,-0.06615 -0.09508,-0.02274 -0.192237,-0.02274 -0.285253,0 -0.440282,0.183968 -0.152962,0.181901 -0.152962,0.522965 v 1.066601 h -0.740006 v -2.315102 h 0.740006 v 0.380338 q 0.142626,-0.227376 0.326594,-0.330729 0.186035,-0.10542 0.444417,-0.10542 0.03721,0 0.08062,0.0041 0.04341,0.0021 0.126091,0.0124 z"
         style="font-weight:bold;fill:#ff6600"
         id="path1857" />
      <path
         d="m 32.723365,91.344709 q -0.231511,0 -0.349333,0.07855 -0.115755,0.07855 -0.115755,0.23151 0,0.14056 0.09302,0.221175 0.09508,0.07855 0.262516,0.07855 0.208772,0 0.351399,-0.148828 0.142627,-0.150896 0.142627,-0.376205 v -0.08475 z m 1.130679,-0.279052 v 1.320848 h -0.746207 v -0.343131 q -0.148828,0.21084 -0.334863,0.307991 -0.186035,0.09508 -0.452685,0.09508 -0.359668,0 -0.584977,-0.208773 -0.223242,-0.21084 -0.223242,-0.545703 0,-0.407209 0.279053,-0.597379 0.281119,-0.190169 0.880565,-0.190169 h 0.436149 v -0.05788 q 0,-0.1757 -0.138493,-0.256315 -0.138492,-0.08268 -0.432014,-0.08268 -0.237712,0 -0.44235,0.04754 -0.204639,0.04754 -0.380338,0.142627 v -0.564306 q 0.237711,-0.05788 0.477489,-0.08682 0.239779,-0.03101 0.479557,-0.03101 0.626318,0 0.903304,0.248047 0.279052,0.24598 0.279052,0.802018 z"
         style="font-weight:bold;fill:#ff6600"
         id="path1859" />
      <path
         d="m 34.108292,90.071403 h 0.740006 l 0.622184,1.570962 0.529166,-1.570962 h 0.740006 l -0.973583,2.53421 q -0.146761,0.386539 -0.343131,0.539502 -0.194304,0.155029 -0.514697,0.155029 h -0.427881 v -0.485758 h 0.23151 q 0.188102,0 0.272852,-0.05994 0.08682,-0.05994 0.134358,-0.214974 l 0.02067,-0.06408 z"
         style="font-weight:bold;fill:#ff6600"
         id="path1861" />
      <path
         d="m 38.994811,89.643522 v 1.159619 h 0.525032 q 0.291455,0 0.450619,-0.150895 0.159163,-0.150896 0.159163,-0.429948 0,-0.276985 -0.159163,-0.427881 -0.159164,-0.150895 -0.450619,-0.150895 z m -0.417545,-0.343131 h 0.942577 q 0.518831,0 0.783415,0.235645 0.26665,0.233577 0.26665,0.686262 0,0.456819 -0.26665,0.690397 -0.264584,0.233577 -0.783415,0.233577 h -0.525032 v 1.240233 h -0.417545 z"
         id="path1863" />
      <path
         d="m 42.076791,92.601479 q -0.16123,0.413411 -0.314192,0.539501 -0.152962,0.126091 -0.409277,0.126091 h -0.303857 v -0.318327 h 0.223242 q 0.157096,0 0.243912,-0.07441 0.08682,-0.07441 0.192236,-0.351399 l 0.06821,-0.173633 -0.936376,-2.277895 h 0.403076 l 0.723469,1.810741 0.72347,-1.810741 h 0.403075 z"
         id="path1865" />
      <path
         d="m 44.887987,89.583578 q -0.454752,0 -0.723469,0.338997 -0.26665,0.338997 -0.26665,0.923974 0,0.582909 0.26665,0.921907 0.268717,0.338997 0.723469,0.338997 0.454752,0 0.719336,-0.338997 0.26665,-0.338998 0.26665,-0.921907 0,-0.584977 -0.26665,-0.923974 -0.264584,-0.338997 -0.719336,-0.338997 z m 0,-0.338997 q 0.649056,0 1.037662,0.436148 0.388607,0.434082 0.388607,1.16582 0,0.72967 -0.388607,1.165819 -0.388606,0.434082 -1.037662,0.434082 -0.651122,0 -1.041796,-0.434082 -0.388606,-0.434082 -0.388606,-1.165819 0,-0.731738 0.388606,-1.16582 0.390674,-0.436148 1.041796,-0.436148 z"
         id="path1867" />
      <path
         d="m 48.61282,91.231021 q 0,-0.419612 -0.173633,-0.657324 -0.171565,-0.239778 -0.473355,-0.239778 -0.30179,0 -0.475423,0.239778 -0.171566,0.237712 -0.171566,0.657324 0,0.419612 0.171566,0.659391 0.173633,0.237711 0.475423,0.237711 0.30179,0 0.473355,-0.237711 0.173633,-0.239779 0.173633,-0.659391 z m -1.293977,-0.808219 q 0.11989,-0.206705 0.30179,-0.305924 0.183968,-0.101286 0.438216,-0.101286 0.42168,0 0.684196,0.334863 0.264583,0.334863 0.264583,0.880566 0,0.545703 -0.264583,0.880566 -0.262516,0.334863 -0.684196,0.334863 -0.254248,0 -0.438216,-0.09922 -0.1819,-0.101286 -0.30179,-0.307991 v 0.347265 h -0.382405 v -3.216338 h 0.382405 z"
         id="path1869" />
      <path
         d="m 49.638079,90.071403 h 0.380339 v 2.356443 q 0,0.44235 -0.169499,0.640787 -0.167431,0.198438 -0.541569,0.198438 H 49.162657 V 92.94461 h 0.101285 q 0.217041,0 0.295589,-0.101286 0.07855,-0.09922 0.07855,-0.415478 z m 0,-0.901236 h 0.380339 v 0.481624 h -0.380339 z"
         id="path1871" />
      <path
         d="m 52.794474,91.133869 v 0.186035 h -1.748729 q 0.0248,0.392741 0.235644,0.599447 0.212907,0.204638 0.591178,0.204638 0.219108,0 0.423746,-0.05374 0.206706,-0.05374 0.409277,-0.161231 v 0.359668 q -0.204638,0.08682 -0.419612,0.132292 -0.214974,0.04547 -0.436149,0.04547 -0.553971,0 -0.878498,-0.322461 -0.322461,-0.322461 -0.322461,-0.872297 0,-0.568441 0.305924,-0.901237 0.307992,-0.334863 0.82889,-0.334863 0.467154,0 0.737938,0.301791 0.272852,0.299723 0.272852,0.816486 z m -0.380339,-0.111621 q -0.0041,-0.312125 -0.175699,-0.49816 -0.169499,-0.186035 -0.450618,-0.186035 -0.318327,0 -0.510563,0.179834 -0.190169,0.179834 -0.219108,0.506429 z"
         id="path1873" />
      <path
         d="m 55.084772,90.160286 v 0.355534 q -0.161231,-0.08888 -0.324528,-0.132292 -0.161231,-0.04547 -0.326595,-0.04547 -0.370003,0 -0.574641,0.235644 -0.204639,0.233578 -0.204639,0.657324 0,0.423746 0.204639,0.659391 0.204638,0.233577 0.574641,0.233577 0.165364,0 0.326595,-0.04341 0.163297,-0.04547 0.324528,-0.134359 v 0.3514 q -0.159164,0.07441 -0.330729,0.111621 -0.169499,0.03721 -0.361735,0.03721 -0.522965,0 -0.830956,-0.328662 -0.307992,-0.328662 -0.307992,-0.886767 0,-0.566373 0.310059,-0.890901 0.312125,-0.324528 0.853694,-0.324528 0.175699,0 0.343131,0.03721 0.167431,0.03514 0.324528,0.107487 z"
         id="path1875" />
      <path
         d="m 56.122434,89.414079 v 0.657324 h 0.783414 v 0.295589 h -0.783414 v 1.25677 q 0,0.283186 0.07648,0.363801 0.07855,0.08062 0.31626,0.08062 h 0.390673 v 0.318326 h -0.390673 q -0.440283,0 -0.607715,-0.163297 -0.167431,-0.165365 -0.167431,-0.599446 v -1.25677 h -0.279053 v -0.295589 h 0.279053 v -0.657324 z"
         id="path1877" />
      <path
         d="m 26.038507,96.776931 q -0.06408,-0.03721 -0.14056,-0.05374 -0.07441,-0.0186 -0.165364,-0.0186 -0.322461,0 -0.496094,0.21084 -0.171565,0.208772 -0.171565,0.601513 V 98.7365 h -0.382406 v -2.315102 h 0.382406 v 0.359667 q 0.119889,-0.210839 0.312125,-0.312125 0.192236,-0.103353 0.467155,-0.103353 0.03927,0 0.08682,0.0062 0.04754,0.0041 0.10542,0.01447 z"
         id="path1879" />
      <path
         d="m 28.32467,97.483864 v 0.186035 h -1.748729 q 0.02481,0.392741 0.235645,0.599446 0.212906,0.204639 0.591178,0.204639 0.219107,0 0.423746,-0.05374 0.206706,-0.05374 0.409277,-0.16123 v 0.359668 q -0.204639,0.08682 -0.419612,0.132291 -0.214974,0.04547 -0.436149,0.04547 -0.553971,0 -0.878499,-0.32246 -0.32246,-0.322461 -0.32246,-0.872298 0,-0.56844 0.305924,-0.901236 0.307991,-0.334863 0.828889,-0.334863 0.467155,0 0.737939,0.30179 0.272851,0.299723 0.272851,0.816487 z m -0.380338,-0.111621 q -0.0041,-0.312125 -0.1757,-0.49816 -0.169498,-0.186035 -0.450618,-0.186035 -0.318326,0 -0.510562,0.179834 -0.19017,0.179833 -0.219108,0.506428 z"
         id="path1881" />
      <path
         d="m 30.120941,95.520161 v 0.31626 H 29.75714 q -0.204639,0 -0.285254,0.08268 -0.07855,0.08268 -0.07855,0.297656 v 0.204639 h 0.626318 v 0.295589 H 29.393338 V 98.7365 h -0.382405 v -2.019513 h -0.363802 v -0.295589 h 0.363802 v -0.161231 q 0,-0.386539 0.179833,-0.562239 0.179834,-0.177767 0.570508,-0.177767 z"
         id="path1883" />
      <path
         d="m 32.419508,97.483864 v 0.186035 h -1.748729 q 0.0248,0.392741 0.235644,0.599446 0.212907,0.204639 0.591178,0.204639 0.219108,0 0.423746,-0.05374 0.206706,-0.05374 0.409277,-0.16123 v 0.359668 q -0.204638,0.08682 -0.419612,0.132291 -0.214974,0.04547 -0.436149,0.04547 -0.553971,0 -0.878498,-0.32246 -0.322461,-0.322461 -0.322461,-0.872298 0,-0.56844 0.305924,-0.901236 0.307991,-0.334863 0.828889,-0.334863 0.467155,0 0.737939,0.30179 0.272852,0.299723 0.272852,0.816487 z m -0.380339,-0.111621 q -0.0041,-0.312125 -0.175699,-0.49816 -0.169499,-0.186035 -0.450619,-0.186035 -0.318326,0 -0.510562,0.179834 -0.190169,0.179833 -0.219108,0.506428 z"
         id="path1885" />
      <path
         d="m 34.385277,96.776931 q -0.06408,-0.03721 -0.14056,-0.05374 -0.07441,-0.0186 -0.165364,-0.0186 -0.322461,0 -0.496093,0.21084 -0.171566,0.208772 -0.171566,0.601513 V 98.7365 h -0.382405 v -2.315102 h 0.382405 v 0.359667 q 0.119889,-0.210839 0.312125,-0.312125 0.192237,-0.103353 0.467155,-0.103353 0.03927,0 0.08682,0.0062 0.04754,0.0041 0.10542,0.01447 z"
         id="path1887" />
      <path
         d="m 36.671441,97.483864 v 0.186035 h -1.748729 q 0.02481,0.392741 0.235644,0.599446 0.212907,0.204639 0.591178,0.204639 0.219108,0 0.423747,-0.05374 0.206705,-0.05374 0.409277,-0.16123 v 0.359668 q -0.204639,0.08682 -0.419613,0.132291 -0.214973,0.04547 -0.436148,0.04547 -0.553971,0 -0.878499,-0.32246 -0.322461,-0.322461 -0.322461,-0.872298 0,-0.56844 0.305925,-0.901236 0.307991,-0.334863 0.828889,-0.334863 0.467155,0 0.737939,0.30179 0.272851,0.299723 0.272851,0.816487 z m -0.380338,-0.111621 q -0.0041,-0.312125 -0.1757,-0.49816 -0.169498,-0.186035 -0.450618,-0.186035 -0.318326,0 -0.510563,0.179834 -0.190169,0.179833 -0.219108,0.506428 z"
         id="path1889" />
      <path
         d="m 39.22012,97.33917 v 1.39733 h -0.380338 v -1.384927 q 0,-0.328662 -0.128158,-0.49196 -0.128157,-0.163297 -0.384472,-0.163297 -0.307991,0 -0.485758,0.19637 -0.177767,0.196371 -0.177767,0.535368 V 98.7365 h -0.382405 v -2.315102 h 0.382405 v 0.359667 q 0.136426,-0.208772 0.320394,-0.312125 0.186035,-0.103353 0.42788,-0.103353 0.398942,0 0.60358,0.248047 0.204639,0.245979 0.204639,0.725536 z"
         id="path1891" />
      <path
         d="m 41.644777,96.510281 v 0.355534 q -0.161231,-0.08888 -0.324528,-0.132292 -0.16123,-0.04548 -0.326595,-0.04548 -0.370003,0 -0.574641,0.235644 -0.204639,0.233577 -0.204639,0.657324 0,0.423746 0.204639,0.65939 0.204638,0.233578 0.574641,0.233578 0.165365,0 0.326595,-0.04341 0.163297,-0.04548 0.324528,-0.134359 v 0.351399 q -0.159164,0.07441 -0.330729,0.111621 -0.169499,0.03721 -0.361735,0.03721 -0.522965,0 -0.830956,-0.328661 -0.307992,-0.328662 -0.307992,-0.886767 0,-0.566373 0.310059,-0.890901 0.312125,-0.324528 0.853694,-0.324528 0.175699,0 0.343131,0.03721 0.167431,0.03514 0.324528,0.107488 z"
         id="path1893" />
      <path
         d="m 44.286474,97.483864 v 0.186035 h -1.748729 q 0.02481,0.392741 0.235645,0.599446 0.212906,0.204639 0.591177,0.204639 0.219108,0 0.423747,-0.05374 0.206705,-0.05374 0.409277,-0.16123 v 0.359668 q -0.204639,0.08682 -0.419612,0.132291 -0.214974,0.04547 -0.436149,0.04547 -0.553971,0 -0.878499,-0.32246 -0.32246,-0.322461 -0.32246,-0.872298 0,-0.56844 0.305924,-0.901236 0.307991,-0.334863 0.828889,-0.334863 0.467155,0 0.737939,0.30179 0.272851,0.299723 0.272851,0.816487 z m -0.380338,-0.111621 q -0.0041,-0.312125 -0.1757,-0.49816 -0.169498,-0.186035 -0.450618,-0.186035 -0.318326,0 -0.510563,0.179834 -0.190169,0.179833 -0.219107,0.506428 z"
         id="path1895" />
      <path
         d="m 47.922424,96.510281 v 0.355534 q -0.161231,-0.08888 -0.324528,-0.132292 -0.16123,-0.04548 -0.326595,-0.04548 -0.370003,0 -0.574641,0.235644 -0.204639,0.233577 -0.204639,0.657324 0,0.423746 0.204639,0.65939 0.204638,0.233578 0.574641,0.233578 0.165365,0 0.326595,-0.04341 0.163297,-0.04548 0.324528,-0.134359 v 0.351399 q -0.159164,0.07441 -0.330729,0.111621 -0.169499,0.03721 -0.361735,0.03721 -0.522965,0 -0.830956,-0.328661 -0.307991,-0.328662 -0.307991,-0.886767 0,-0.566373 0.310058,-0.890901 0.312125,-0.324528 0.853694,-0.324528 0.1757,0 0.343131,0.03721 0.167432,0.03514 0.324528,0.107488 z"
         id="path1897" />
      <path
         d="m 49.480984,96.688048 q -0.305924,0 -0.483691,0.239778 -0.177767,0.237712 -0.177767,0.65319 0,0.415478 0.1757,0.655256 0.177767,0.237712 0.485758,0.237712 0.303857,0 0.481624,-0.239779 0.177767,-0.239778 0.177767,-0.653189 0,-0.411344 -0.177767,-0.651123 -0.177767,-0.241845 -0.481624,-0.241845 z m 0,-0.322461 q 0.496094,0 0.77928,0.322461 0.283187,0.32246 0.283187,0.892968 0,0.56844 -0.283187,0.892968 -0.283186,0.32246 -0.77928,0.32246 -0.49816,0 -0.781347,-0.32246 -0.281119,-0.324528 -0.281119,-0.892968 0,-0.570508 0.281119,-0.892968 0.283187,-0.322461 0.781347,-0.322461 z"
         id="path1899" />
      <path
         d="m 51.134629,97.822861 v -1.401463 h 0.380338 v 1.386994 q 0,0.328662 0.128158,0.494026 0.128157,0.163298 0.384472,0.163298 0.307991,0 0.485758,-0.196371 0.179834,-0.19637 0.179834,-0.535367 v -1.31258 h 0.380338 V 98.7365 h -0.380338 v -0.355534 q -0.138493,0.21084 -0.322461,0.314193 -0.181901,0.101285 -0.423746,0.101285 -0.398942,0 -0.605647,-0.248046 -0.206706,-0.248047 -0.206706,-0.725537 z m 0.957047,-1.457274 z"
         id="path1901" />
      <path
         d="M 55.781369,97.33917 V 98.7365 H 55.40103 v -1.384927 q 0,-0.328662 -0.128157,-0.49196 -0.128157,-0.163297 -0.384472,-0.163297 -0.307992,0 -0.485758,0.19637 -0.177767,0.196371 -0.177767,0.535368 V 98.7365 h -0.382405 v -2.315102 h 0.382405 v 0.359667 q 0.136426,-0.208772 0.320393,-0.312125 0.186035,-0.103353 0.427881,-0.103353 0.398942,0 0.60358,0.248047 0.204639,0.245979 0.204639,0.725536 z"
         id="path1903" />
      <path
         d="m 56.916183,95.764074 v 0.657324 h 0.783414 v 0.295589 h -0.783414 v 1.256769 q 0,0.283187 0.07648,0.363802 0.07855,0.08061 0.316259,0.08061 h 0.390674 V 98.7365 h -0.390674 q -0.440282,0 -0.607714,-0.163298 -0.167431,-0.165364 -0.167431,-0.599446 v -1.256769 h -0.279053 v -0.295589 h 0.279053 v -0.657324 z"
         id="path1905" />
      <path
         d="m 25.073192,102.11407 v 0.65732 h 0.783414 v 0.29559 h -0.783414 v 1.25677 q 0,0.28319 0.07648,0.3638 0.07855,0.0806 0.316259,0.0806 h 0.390674 v 0.31832 h -0.390674 q -0.440282,0 -0.607714,-0.16329 -0.167431,-0.16537 -0.167431,-0.59945 v -1.25677 h -0.279053 v -0.29559 h 0.279053 v -0.65732 z"
         id="path1907" />
      <path
         d="m 27.320081,105.30147 q -0.16123,0.41341 -0.314192,0.5395 -0.152962,0.12609 -0.409277,0.12609 h -0.303857 v -0.31833 h 0.223242 q 0.157096,0 0.243912,-0.0744 0.08682,-0.0744 0.192236,-0.3514 l 0.06821,-0.17363 -0.936376,-2.2779 h 0.403076 l 0.723469,1.81074 0.72347,-1.81074 h 0.403076 z"
         id="path1909" />
      <path
         d="m 29.230041,104.73923 v 1.22783 h -0.382405 v -3.19567 h 0.382405 v 0.3514 q 0.119889,-0.2067 0.30179,-0.30592 0.183968,-0.10129 0.438216,-0.10129 0.421679,0 0.684195,0.33486 0.264583,0.33487 0.264583,0.88057 0,0.5457 -0.264583,0.88057 -0.262516,0.33486 -0.684195,0.33486 -0.254248,0 -0.438216,-0.0992 -0.181901,-0.10129 -0.30179,-0.30799 z m 1.293977,-0.80822 q 0,-0.41961 -0.173633,-0.65732 -0.171566,-0.23978 -0.473356,-0.23978 -0.30179,0 -0.475422,0.23978 -0.171566,0.23771 -0.171566,0.65732 0,0.41961 0.171566,0.65939 0.173632,0.23771 0.475422,0.23771 0.30179,0 0.473356,-0.23771 0.173633,-0.23978 0.173633,-0.65939 z"
         id="path1911" />
      <path
         d="m 33.529516,103.83386 v 0.18603 h -1.748729 q 0.02481,0.39274 0.235645,0.59945 0.212906,0.20464 0.591177,0.20464 0.219108,0 0.423747,-0.0538 0.206705,-0.0537 0.409277,-0.16123 v 0.35967 q -0.204639,0.0868 -0.419612,0.13229 -0.214974,0.0455 -0.436149,0.0455 -0.553971,0 -0.878499,-0.32246 -0.32246,-0.32246 -0.32246,-0.8723 0,-0.56844 0.305924,-0.90124 0.307991,-0.33486 0.828889,-0.33486 0.467155,0 0.737939,0.30179 0.272851,0.29972 0.272851,0.81649 z m -0.380338,-0.11162 q -0.0041,-0.31213 -0.1757,-0.49816 -0.169498,-0.18604 -0.450618,-0.18604 -0.318326,0 -0.510563,0.17984 -0.190169,0.17983 -0.219107,0.50642 z"
         id="path1913" />
      <path
         d="m 35.933502,102.34351 v 1.15962 h 0.525032 q 0.291455,0 0.450618,-0.1509 0.159163,-0.15089 0.159163,-0.42994 0,-0.27699 -0.159163,-0.42788 -0.159163,-0.1509 -0.450618,-0.1509 z m -0.417546,-0.34313 h 0.942578 q 0.518831,0 0.783414,0.23564 0.26665,0.23358 0.26665,0.68627 0,0.45682 -0.26665,0.69039 -0.264583,0.23358 -0.783414,0.23358 h -0.525032 v 1.24023 h -0.417546 z"
         id="path1915" />
      <path
         d="m 39.015481,105.30147 q -0.16123,0.41341 -0.314192,0.5395 -0.152962,0.12609 -0.409277,0.12609 h -0.303857 v -0.31833 h 0.223242 q 0.157096,0 0.243912,-0.0744 0.08682,-0.0744 0.192236,-0.3514 l 0.06821,-0.17363 -0.936376,-2.2779 h 0.403076 l 0.723469,1.81074 0.72347,-1.81074 h 0.403076 z"
         id="path1917" />
      <path
         d="m 41.826677,102.28357 q -0.454752,0 -0.723469,0.33899 -0.26665,0.339 -0.26665,0.92398 0,0.58291 0.26665,0.9219 0.268717,0.339 0.723469,0.339 0.454753,0 0.719336,-0.339 0.26665,-0.33899 0.26665,-0.9219 0,-0.58498 -0.26665,-0.92398 -0.264583,-0.33899 -0.719336,-0.33899 z m 0,-0.339 q 0.649056,0 1.037662,0.43615 0.388607,0.43408 0.388607,1.16582 0,0.72967 -0.388607,1.16582 -0.388606,0.43408 -1.037662,0.43408 -0.651122,0 -1.041796,-0.43408 -0.388606,-0.43408 -0.388606,-1.16582 0,-0.73174 0.388606,-1.16582 0.390674,-0.43615 1.041796,-0.43615 z"
         id="path1919" />
      <path
         d="m 45.551512,103.93101 q 0,-0.41961 -0.173632,-0.65732 -0.171566,-0.23978 -0.473356,-0.23978 -0.30179,0 -0.475423,0.23978 -0.171566,0.23771 -0.171566,0.65732 0,0.41961 0.171566,0.65939 0.173633,0.23771 0.475423,0.23771 0.30179,0 0.473356,-0.23771 0.173632,-0.23978 0.173632,-0.65939 z m -1.293977,-0.80822 q 0.11989,-0.2067 0.301791,-0.30592 0.183967,-0.10129 0.438215,-0.10129 0.42168,0 0.684196,0.33486 0.264583,0.33487 0.264583,0.88057 0,0.5457 -0.264583,0.88057 -0.262516,0.33486 -0.684196,0.33486 -0.254248,0 -0.438215,-0.0992 -0.181901,-0.10129 -0.301791,-0.30799 v 0.34726 H 43.87513 v -3.21633 h 0.382405 z"
         id="path1921" />
      <path
         d="m 46.576771,102.77139 h 0.380339 v 2.35645 q 0,0.44235 -0.169499,0.64078 -0.167431,0.19844 -0.541568,0.19844 h -0.144694 v -0.32246 h 0.101285 q 0.217041,0 0.295589,-0.10129 0.07855,-0.0992 0.07855,-0.41547 z m 0,-0.90123 h 0.380339 v 0.48162 h -0.380339 z"
         id="path1923" />
      <path
         d="m 49.733164,103.83386 v 0.18603 h -1.748729 q 0.02481,0.39274 0.235644,0.59945 0.212907,0.20464 0.591178,0.20464 0.219108,0 0.423746,-0.0538 0.206706,-0.0537 0.409277,-0.16123 v 0.35967 q -0.204638,0.0868 -0.419612,0.13229 -0.214974,0.0455 -0.436149,0.0455 -0.55397,0 -0.878498,-0.32246 -0.322461,-0.32246 -0.322461,-0.8723 0,-0.56844 0.305924,-0.90124 0.307992,-0.33486 0.82889,-0.33486 0.467154,0 0.737939,0.30179 0.272851,0.29972 0.272851,0.81649 z m -0.380338,-0.11162 q -0.0041,-0.31213 -0.1757,-0.49816 -0.169499,-0.18604 -0.450618,-0.18604 -0.318327,0 -0.510563,0.17984 -0.190169,0.17983 -0.219108,0.50642 z"
         id="path1925" />
      <path
         d="m 52.023462,102.86028 v 0.35553 q -0.161231,-0.0889 -0.324528,-0.13229 -0.16123,-0.0455 -0.326595,-0.0455 -0.370003,0 -0.574641,0.23565 -0.204639,0.23357 -0.204639,0.65732 0,0.42375 0.204639,0.65939 0.204638,0.23358 0.574641,0.23358 0.165365,0 0.326595,-0.0434 0.163297,-0.0455 0.324528,-0.13436 v 0.3514 q -0.159164,0.0744 -0.330729,0.11162 -0.169499,0.0372 -0.361735,0.0372 -0.522965,0 -0.830956,-0.32866 -0.307992,-0.32866 -0.307992,-0.88677 0,-0.56637 0.310059,-0.8909 0.312125,-0.32453 0.853694,-0.32453 0.175699,0 0.343131,0.0372 0.167431,0.0351 0.324528,0.10749 z"
         id="path1927" />
      <path
         d="m 53.061124,102.11407 v 0.65732 h 0.783414 v 0.29559 h -0.783414 v 1.25677 q 0,0.28319 0.07648,0.3638 0.07855,0.0806 0.31626,0.0806 h 0.390673 v 0.31832 h -0.390673 q -0.440283,0 -0.607715,-0.16329 -0.167431,-0.16537 -0.167431,-0.59945 v -1.25677 h -0.279053 v -0.29559 h 0.279053 v -0.65732 z"
         id="path1929" />
      <path
         d="m 55.936398,102.50888 -0.742073,0.401 0.742073,0.40308 -0.119889,0.20257 -0.694531,-0.41961 v 0.77928 h -0.235644 v -0.77928 l -0.694531,0.41961 -0.119889,-0.20257 0.742073,-0.40308 -0.742073,-0.401 0.119889,-0.20464 0.694531,0.41961 v -0.77928 h 0.235644 v 0.77928 l 0.694531,-0.41961 z"
         id="path1931" />
      <path
         d="m 25.59409,109.38804 q -0.305924,0 -0.483691,0.23978 -0.177767,0.23771 -0.177767,0.65319 0,0.41547 0.1757,0.65525 0.177767,0.23771 0.485758,0.23771 0.303857,0 0.481624,-0.23978 0.177767,-0.23977 0.177767,-0.65318 0,-0.41135 -0.177767,-0.65113 -0.177767,-0.24184 -0.481624,-0.24184 z m 0,-0.32246 q 0.496093,0 0.77928,0.32246 0.283186,0.32246 0.283186,0.89297 0,0.56844 -0.283186,0.89296 -0.283187,0.32246 -0.77928,0.32246 -0.49816,0 -0.781347,-0.32246 -0.28112,-0.32452 -0.28112,-0.89296 0,-0.57051 0.28112,-0.89297 0.283187,-0.32246 0.781347,-0.32246 z"
         id="path1933" />
      <path
         d="m 27.663213,108.46406 v 0.65733 h 0.783414 v 0.29559 h -0.783414 v 1.25677 q 0,0.28318 0.07648,0.3638 0.07855,0.0806 0.316259,0.0806 h 0.390674 v 0.31833 h -0.390674 q -0.440283,0 -0.607714,-0.1633 -0.167432,-0.16536 -0.167432,-0.59944 v -1.25677 h -0.279052 v -0.29559 h 0.279052 v -0.65733 z"
         id="path1935" />
      <path
         d="m 30.871283,110.03916 v 1.39733 h -0.380338 v -1.38493 q 0,-0.32866 -0.128158,-0.49196 -0.128157,-0.16329 -0.384472,-0.16329 -0.307991,0 -0.485758,0.19637 -0.177767,0.19637 -0.177767,0.53536 v 1.30845 h -0.382405 v -3.21634 h 0.382405 v 1.2609 q 0.136426,-0.20877 0.320394,-0.31212 0.186035,-0.10335 0.42788,-0.10335 0.398942,0 0.603581,0.24804 0.204638,0.24598 0.204638,0.72554 z"
         id="path1937" />
      <path
         d="m 33.610131,110.18385 v 0.18604 h -1.748729 q 0.02481,0.39274 0.235645,0.59944 0.212906,0.20464 0.591178,0.20464 0.219107,0 0.423746,-0.0537 0.206705,-0.0537 0.409277,-0.16123 v 0.35967 q -0.204639,0.0868 -0.419612,0.13229 -0.214974,0.0455 -0.436149,0.0455 -0.553971,0 -0.878499,-0.32246 -0.32246,-0.32246 -0.32246,-0.87229 0,-0.56844 0.305924,-0.90124 0.307991,-0.33486 0.828889,-0.33486 0.467155,0 0.737939,0.30179 0.272851,0.29972 0.272851,0.81648 z m -0.380338,-0.11162 q -0.0041,-0.31212 -0.1757,-0.49816 -0.169498,-0.18603 -0.450618,-0.18603 -0.318326,0 -0.510562,0.17983 -0.19017,0.17983 -0.219108,0.50643 z"
         id="path1939" />
      <path
         d="m 35.575901,109.47692 q -0.06408,-0.0372 -0.140559,-0.0537 -0.07441,-0.0186 -0.165365,-0.0186 -0.32246,0 -0.496093,0.21084 -0.171566,0.20878 -0.171566,0.60152 v 1.21956 h -0.382405 v -2.3151 h 0.382405 v 0.35966 q 0.119889,-0.21084 0.312126,-0.31212 0.192236,-0.10335 0.467154,-0.10335 0.03927,0 0.08682,0.006 0.04754,0.004 0.105419,0.0145 z"
         id="path1941" />
      <path
         d="m 38.796374,109.1896 v 0.35967 q -0.16123,-0.0827 -0.334863,-0.12403 -0.173633,-0.0413 -0.359668,-0.0413 -0.283186,0 -0.425813,0.0868 -0.14056,0.0868 -0.14056,0.26045 0,0.13229 0.101286,0.20877 0.101286,0.0744 0.40721,0.14263 l 0.130224,0.0289 q 0.405143,0.0868 0.574642,0.24598 0.171565,0.15709 0.171565,0.44028 0,0.32246 -0.256315,0.51056 -0.254247,0.1881 -0.700731,0.1881 -0.186035,0 -0.388607,-0.0372 -0.200504,-0.0351 -0.423746,-0.10749 V 110.959 q 0.210839,0.10955 0.415478,0.16536 0.204638,0.0538 0.405143,0.0538 0.268717,0 0.413411,-0.091 0.144694,-0.093 0.144694,-0.26045 0,-0.15503 -0.10542,-0.23771 -0.103353,-0.0827 -0.456819,-0.15917 l -0.132292,-0.031 q -0.353466,-0.0744 -0.510563,-0.22738 -0.157096,-0.15503 -0.157096,-0.42375 0,-0.32659 0.23151,-0.50436 0.231511,-0.17776 0.657324,-0.17776 0.21084,0 0.396875,0.031 0.186035,0.031 0.343131,0.093 z"
         id="path1943" />
      <path
         d="m 39.902249,108.46406 v 0.65733 h 0.783414 v 0.29559 h -0.783414 v 1.25677 q 0,0.28318 0.07648,0.3638 0.07855,0.0806 0.316259,0.0806 h 0.390674 v 0.31833 h -0.390674 q -0.440283,0 -0.607714,-0.1633 -0.167432,-0.16536 -0.167432,-0.59944 v -1.25677 H 39.24079 v -0.29559 h 0.279052 v -0.65733 z"
         id="path1945" />
      <path
         d="m 41.146617,110.52285 v -1.40146 h 0.380338 v 1.38699 q 0,0.32866 0.128157,0.49403 0.128158,0.16329 0.384473,0.16329 0.307991,0 0.485758,-0.19637 0.179834,-0.19637 0.179834,-0.53536 v -1.31258 h 0.380338 v 2.3151 h -0.380338 v -0.35553 q -0.138493,0.21084 -0.322461,0.31419 -0.181901,0.10128 -0.423746,0.10128 -0.398942,0 -0.605648,-0.24804 -0.206705,-0.24805 -0.206705,-0.72554 z m 0.957047,-1.45727 z"
         id="path1947" />
      <path
         d="m 46.467217,108.22015 v 0.31626 h -0.363802 q -0.204639,0 -0.285254,0.0827 -0.07855,0.0827 -0.07855,0.29766 v 0.20464 h 0.626318 v 0.29559 h -0.626318 v 2.01951 H 45.357206 V 109.417 h -1.043863 v 2.01951 H 43.930937 V 109.417 h -0.363801 v -0.29559 h 0.363801 v -0.16123 q 0,-0.38654 0.179834,-0.56224 0.179834,-0.17777 0.570508,-0.17777 h 0.359667 v 0.31626 h -0.363802 q -0.204638,0 -0.285253,0.0827 -0.07855,0.0827 -0.07855,0.29766 v 0.20464 h 1.043863 v -0.16123 q 0,-0.38654 0.179834,-0.56224 0.179833,-0.17777 0.570507,-0.17777 z"
         id="path1949" />
      <path
         d="m 46.839288,110.91146 h 0.436148 v 0.52503 h -0.436148 z"
         id="path1951" />
      <path
         d="m 48.184939,110.91146 h 0.436149 v 0.52503 h -0.436149 z"
         id="path1953" />
      <path
         d="m 49.530593,110.91146 h 0.436148 v 0.52503 h -0.436148 z"
         id="path1955" />
    </g>
    <g
       aria-label="float
float
float
float
float
float
float
float
float
float
float
float"
       id="text27298"
       style="font-size:4.23333px;line-height:1.5;font-family:'DejaVu Sans';-inkscape-font-specification:'DejaVu Sans';stroke-width:0.264583">
      <path
         d="m 78.426009,89.170167 h 1.058332 v 3.216338 h -0.382405 v -2.900079 h -0.680062 q -0.204638,0 -0.285253,0.08268 -0.07855,0.08268 -0.07855,0.297656 v 0.204639 h 0.626318 v 0.295589 h -0.626318 v 2.019513 H 77.675665 V 90.36699 h -0.363801 v -0.295589 h 0.363801 v -0.16123 q 0,-0.38654 0.179834,-0.56224 0.179834,-0.177766 0.570508,-0.177766 z"
         id="path1958" />
      <path
         d="m 81.17726,90.338053 q -0.305925,0 -0.483691,0.239779 -0.177767,0.237711 -0.177767,0.653189 0,0.415478 0.1757,0.655257 0.177766,0.237711 0.485758,0.237711 0.303857,0 0.481624,-0.239778 0.177766,-0.239779 0.177766,-0.65319 0,-0.411344 -0.177766,-0.651122 -0.177767,-0.241846 -0.481624,-0.241846 z m 0,-0.322461 q 0.496093,0 0.77928,0.322461 0.283186,0.322461 0.283186,0.892968 0,0.56844 -0.283186,0.892968 -0.283187,0.322461 -0.77928,0.322461 -0.498161,0 -0.781347,-0.322461 -0.28112,-0.324528 -0.28112,-0.892968 0,-0.570507 0.28112,-0.892968 0.283186,-0.322461 0.781347,-0.322461 z"
         id="path1960" />
      <path
         d="m 83.922309,91.222753 q -0.460953,0 -0.63872,0.10542 -0.177767,0.10542 -0.177767,0.359667 0,0.202572 0.132292,0.322461 0.134358,0.117822 0.363802,0.117822 0.316259,0 0.506428,-0.223242 0.192236,-0.225309 0.192236,-0.597379 v -0.08475 z m 0.75861,-0.157096 v 1.320848 H 84.30058 v -0.351399 q -0.130224,0.210839 -0.324527,0.312125 -0.194304,0.09922 -0.475423,0.09922 -0.355534,0 -0.566373,-0.198438 -0.208773,-0.200504 -0.208773,-0.535367 0,-0.390673 0.260449,-0.589111 0.262516,-0.198437 0.781347,-0.198437 h 0.5333 v -0.03721 q 0,-0.262516 -0.173632,-0.405143 -0.171566,-0.144694 -0.483691,-0.144694 -0.198438,0 -0.38654,0.04754 -0.188102,0.04754 -0.361734,0.142627 v -0.351399 q 0.208772,-0.08061 0.405143,-0.119889 0.19637,-0.04134 0.382405,-0.04134 0.502294,0 0.750341,0.260449 0.248047,0.260449 0.248047,0.789616 z"
         id="path1962" />
      <path
         d="m 85.840537,89.414079 v 0.657324 h 0.783414 v 0.295589 h -0.783414 v 1.25677 q 0,0.283186 0.07648,0.363801 0.07855,0.08062 0.31626,0.08062 h 0.390673 v 0.318326 h -0.390673 q -0.440283,0 -0.607714,-0.163297 -0.167432,-0.165365 -0.167432,-0.599446 v -1.25677 H 85.17908 v -0.295589 h 0.279052 v -0.657324 z"
         id="path1964" />
      <path
         d="m 78.426009,95.520161 h 1.058332 V 98.7365 h -0.382405 v -2.900079 h -0.680062 q -0.204638,0 -0.285253,0.08268 -0.07855,0.08268 -0.07855,0.297656 v 0.204639 h 0.626318 v 0.295589 H 78.058073 V 98.7365 h -0.382406 v -2.019513 h -0.363801 v -0.295589 h 0.363801 v -0.161231 q 0,-0.386539 0.179834,-0.562239 0.179834,-0.177767 0.570508,-0.177767 z"
         id="path1966" />
      <path
         d="m 81.17726,96.688048 q -0.305925,0 -0.483691,0.239778 -0.177767,0.237712 -0.177767,0.65319 0,0.415478 0.1757,0.655256 0.177766,0.237712 0.485758,0.237712 0.303857,0 0.481624,-0.239779 0.177766,-0.239778 0.177766,-0.653189 0,-0.411344 -0.177766,-0.651123 -0.177767,-0.241845 -0.481624,-0.241845 z m 0,-0.322461 q 0.496093,0 0.77928,0.322461 0.283186,0.32246 0.283186,0.892968 0,0.56844 -0.283186,0.892968 -0.283187,0.32246 -0.77928,0.32246 -0.498161,0 -0.781347,-0.32246 -0.28112,-0.324528 -0.28112,-0.892968 0,-0.570508 0.28112,-0.892968 0.283186,-0.322461 0.781347,-0.322461 z"
         id="path1968" />
      <path
         d="m 83.922309,97.572748 q -0.460953,0 -0.63872,0.105419 -0.177767,0.10542 -0.177767,0.359668 0,0.202571 0.132292,0.322461 0.134358,0.117822 0.363802,0.117822 0.316259,0 0.506428,-0.223242 0.192236,-0.225309 0.192236,-0.597379 v -0.08475 z m 0.75861,-0.157097 V 98.7365 H 84.30058 v -0.3514 q -0.130224,0.21084 -0.324527,0.312126 -0.194304,0.09922 -0.475423,0.09922 -0.355534,0 -0.566373,-0.198437 -0.208773,-0.200504 -0.208773,-0.535367 0,-0.390674 0.260449,-0.589111 0.262516,-0.198437 0.781347,-0.198437 h 0.5333 v -0.03721 q 0,-0.262517 -0.173632,-0.405143 -0.171566,-0.144694 -0.483691,-0.144694 -0.198438,0 -0.38654,0.04754 -0.188102,0.04754 -0.361734,0.142627 v -0.3514 q 0.208772,-0.08061 0.405143,-0.119889 0.19637,-0.04134 0.382405,-0.04134 0.502294,0 0.750341,0.260449 0.248047,0.260449 0.248047,0.789615 z"
         id="path1970" />
      <path
         d="m 85.840537,95.764074 v 0.657324 h 0.783414 v 0.295589 h -0.783414 v 1.256769 q 0,0.283187 0.07648,0.363802 0.07855,0.08061 0.31626,0.08061 H 86.62395 V 98.7365 h -0.390673 q -0.440283,0 -0.607714,-0.163298 -0.167432,-0.165364 -0.167432,-0.599446 V 96.716987 H 85.17908 v -0.295589 h 0.279052 v -0.657324 z"
         id="path1972" />
      <path
         d="m 78.426009,101.87016 h 1.058332 v 3.21633 h -0.382405 v -2.90007 h -0.680062 q -0.204638,0 -0.285253,0.0827 -0.07855,0.0827 -0.07855,0.29765 v 0.20464 h 0.626318 v 0.29559 h -0.626318 v 2.01951 H 77.675665 V 103.067 h -0.363801 v -0.29559 h 0.363801 v -0.16123 q 0,-0.38654 0.179834,-0.56224 0.179834,-0.17776 0.570508,-0.17776 z"
         id="path1974" />
      <path
         d="m 81.17726,103.03804 q -0.305925,0 -0.483691,0.23978 -0.177767,0.23771 -0.177767,0.65319 0,0.41548 0.1757,0.65526 0.177766,0.23771 0.485758,0.23771 0.303857,0 0.481624,-0.23978 0.177766,-0.23978 0.177766,-0.65319 0,-0.41134 -0.177766,-0.65112 -0.177767,-0.24185 -0.481624,-0.24185 z m 0,-0.32246 q 0.496093,0 0.77928,0.32246 0.283186,0.32246 0.283186,0.89297 0,0.56844 -0.283186,0.89297 -0.283187,0.32246 -0.77928,0.32246 -0.498161,0 -0.781347,-0.32246 -0.28112,-0.32453 -0.28112,-0.89297 0,-0.57051 0.28112,-0.89297 0.283186,-0.32246 0.781347,-0.32246 z"
         id="path1976" />
      <path
         d="m 83.922309,103.92274 q -0.460953,0 -0.63872,0.10542 -0.177767,0.10542 -0.177767,0.35967 0,0.20257 0.132292,0.32246 0.134358,0.11782 0.363802,0.11782 0.316259,0 0.506428,-0.22324 0.192236,-0.22531 0.192236,-0.59738 v -0.0847 z m 0.75861,-0.15709 v 1.32084 H 84.30058 v -0.35139 q -0.130224,0.21083 -0.324527,0.31212 -0.194304,0.0992 -0.475423,0.0992 -0.355534,0 -0.566373,-0.19844 -0.208773,-0.2005 -0.208773,-0.53537 0,-0.39067 0.260449,-0.58911 0.262516,-0.19843 0.781347,-0.19843 h 0.5333 v -0.0372 q 0,-0.26252 -0.173632,-0.40514 -0.171566,-0.1447 -0.483691,-0.1447 -0.198438,0 -0.38654,0.0475 -0.188102,0.0476 -0.361734,0.14263 v -0.3514 q 0.208772,-0.0806 0.405143,-0.11989 0.19637,-0.0413 0.382405,-0.0413 0.502294,0 0.750341,0.26045 0.248047,0.26045 0.248047,0.78962 z"
         id="path1978" />
      <path
         d="m 85.840537,102.11407 v 0.65732 h 0.783414 v 0.29559 h -0.783414 v 1.25677 q 0,0.28319 0.07648,0.3638 0.07855,0.0806 0.31626,0.0806 h 0.390673 v 0.31832 h -0.390673 q -0.440283,0 -0.607714,-0.16329 -0.167432,-0.16537 -0.167432,-0.59945 v -1.25677 H 85.17908 v -0.29559 h 0.279052 v -0.65732 z"
         id="path1980" />
      <path
         d="m 78.426009,108.22015 h 1.058332 v 3.21634 h -0.382405 v -2.90008 h -0.680062 q -0.204638,0 -0.285253,0.0827 -0.07855,0.0827 -0.07855,0.29766 v 0.20464 h 0.626318 v 0.29559 h -0.626318 v 2.01951 H 77.675665 V 109.417 h -0.363801 v -0.29559 h 0.363801 v -0.16123 q 0,-0.38654 0.179834,-0.56224 0.179834,-0.17777 0.570508,-0.17777 z"
         id="path1982" />
      <path
         d="m 81.17726,109.38804 q -0.305925,0 -0.483691,0.23978 -0.177767,0.23771 -0.177767,0.65319 0,0.41547 0.1757,0.65525 0.177766,0.23771 0.485758,0.23771 0.303857,0 0.481624,-0.23978 0.177766,-0.23977 0.177766,-0.65318 0,-0.41135 -0.177766,-0.65113 -0.177767,-0.24184 -0.481624,-0.24184 z m 0,-0.32246 q 0.496093,0 0.77928,0.32246 0.283186,0.32246 0.283186,0.89297 0,0.56844 -0.283186,0.89296 -0.283187,0.32246 -0.77928,0.32246 -0.498161,0 -0.781347,-0.32246 -0.28112,-0.32452 -0.28112,-0.89296 0,-0.57051 0.28112,-0.89297 0.283186,-0.32246 0.781347,-0.32246 z"
         id="path1984" />
      <path
         d="m 83.922309,110.27274 q -0.460953,0 -0.63872,0.10542 -0.177767,0.10542 -0.177767,0.35966 0,0.20258 0.132292,0.32246 0.134358,0.11783 0.363802,0.11783 0.316259,0 0.506428,-0.22324 0.192236,-0.22531 0.192236,-0.59738 v -0.0847 z m 0.75861,-0.1571 v 1.32085 H 84.30058 v -0.3514 q -0.130224,0.21084 -0.324527,0.31213 -0.194304,0.0992 -0.475423,0.0992 -0.355534,0 -0.566373,-0.19843 -0.208773,-0.20051 -0.208773,-0.53537 0,-0.39067 0.260449,-0.58911 0.262516,-0.19844 0.781347,-0.19844 h 0.5333 v -0.0372 q 0,-0.26251 -0.173632,-0.40514 -0.171566,-0.14469 -0.483691,-0.14469 -0.198438,0 -0.38654,0.0475 -0.188102,0.0475 -0.361734,0.14263 v -0.3514 q 0.208772,-0.0806 0.405143,-0.11989 0.19637,-0.0413 0.382405,-0.0413 0.502294,0 0.750341,0.26045 0.248047,0.26044 0.248047,0.78961 z"
         id="path1986" />
      <path
         d="m 85.840537,108.46406 v 0.65733 h 0.783414 v 0.29559 h -0.783414 v 1.25677 q 0,0.28318 0.07648,0.3638 0.07855,0.0806 0.31626,0.0806 h 0.390673 v 0.31833 h -0.390673 q -0.440283,0 -0.607714,-0.1633 -0.167432,-0.16536 -0.167432,-0.59944 v -1.25677 H 85.17908 v -0.29559 h 0.279052 v -0.65733 z"
         id="path1988" />
      <path
         d="m 78.426009,114.57015 h 1.058332 v 3.21633 h -0.382405 v -2.90008 h -0.680062 q -0.204638,0 -0.285253,0.0827 -0.07855,0.0827 -0.07855,0.29765 v 0.20464 h 0.626318 v 0.29559 h -0.626318 v 2.01951 h -0.382406 v -2.01951 h -0.363801 v -0.29559 h 0.363801 v -0.16123 q 0,-0.38654 0.179834,-0.56224 0.179834,-0.17776 0.570508,-0.17776 z"
         id="path1990" />
      <path
         d="m 81.17726,115.73803 q -0.305925,0 -0.483691,0.23978 -0.177767,0.23771 -0.177767,0.65319 0,0.41548 0.1757,0.65526 0.177766,0.23771 0.485758,0.23771 0.303857,0 0.481624,-0.23978 0.177766,-0.23978 0.177766,-0.65319 0,-0.41134 -0.177766,-0.65112 -0.177767,-0.24185 -0.481624,-0.24185 z m 0,-0.32246 q 0.496093,0 0.77928,0.32246 0.283186,0.32246 0.283186,0.89297 0,0.56844 -0.283186,0.89297 -0.283187,0.32246 -0.77928,0.32246 -0.498161,0 -0.781347,-0.32246 -0.28112,-0.32453 -0.28112,-0.89297 0,-0.57051 0.28112,-0.89297 0.283186,-0.32246 0.781347,-0.32246 z"
         id="path1992" />
      <path
         d="m 83.922309,116.62273 q -0.460953,0 -0.63872,0.10542 -0.177767,0.10542 -0.177767,0.35967 0,0.20257 0.132292,0.32246 0.134358,0.11782 0.363802,0.11782 0.316259,0 0.506428,-0.22324 0.192236,-0.22531 0.192236,-0.59738 v -0.0847 z m 0.75861,-0.15709 v 1.32084 H 84.30058 v -0.3514 q -0.130224,0.21084 -0.324527,0.31213 -0.194304,0.0992 -0.475423,0.0992 -0.355534,0 -0.566373,-0.19844 -0.208773,-0.2005 -0.208773,-0.53537 0,-0.39067 0.260449,-0.58911 0.262516,-0.19843 0.781347,-0.19843 h 0.5333 v -0.0372 q 0,-0.26252 -0.173632,-0.40514 -0.171566,-0.1447 -0.483691,-0.1447 -0.198438,0 -0.38654,0.0475 -0.188102,0.0475 -0.361734,0.14263 v -0.3514 q 0.208772,-0.0806 0.405143,-0.11989 0.19637,-0.0413 0.382405,-0.0413 0.502294,0 0.750341,0.26045 0.248047,0.26045 0.248047,0.78962 z"
         id="path1994" />
      <path
         d="m 85.840537,114.81406 v 0.65732 h 0.783414 v 0.29559 h -0.783414 v 1.25677 q 0,0.28319 0.07648,0.3638 0.07855,0.0806 0.31626,0.0806 h 0.390673 v 0.31832 h -0.390673 q -0.440283,0 -0.607714,-0.16329 -0.167432,-0.16537 -0.167432,-0.59945 v -1.25677 H 85.17908 v -0.29559 h 0.279052 v -0.65732 z"
         id="path1996" />
      <path
         d="m 78.426009,120.92014 h 1.058332 v 3.21634 h -0.382405 v -2.90008 h -0.680062 q -0.204638,0 -0.285253,0.0827 -0.07855,0.0827 -0.07855,0.29766 v 0.20464 h 0.626318 v 0.29559 h -0.626318 v 2.01951 h -0.382406 v -2.01951 h -0.363801 v -0.29559 h 0.363801 v -0.16123 q 0,-0.38654 0.179834,-0.56224 0.179834,-0.17777 0.570508,-0.17777 z"
         id="path1998" />
      <path
         d="m 81.17726,122.08803 q -0.305925,0 -0.483691,0.23977 -0.177767,0.23772 -0.177767,0.65319 0,0.41548 0.1757,0.65526 0.177766,0.23771 0.485758,0.23771 0.303857,0 0.481624,-0.23978 0.177766,-0.23977 0.177766,-0.65319 0,-0.41134 -0.177766,-0.65112 -0.177767,-0.24184 -0.481624,-0.24184 z m 0,-0.32246 q 0.496093,0 0.77928,0.32246 0.283186,0.32246 0.283186,0.89296 0,0.56844 -0.283186,0.89297 -0.283187,0.32246 -0.77928,0.32246 -0.498161,0 -0.781347,-0.32246 -0.28112,-0.32453 -0.28112,-0.89297 0,-0.5705 0.28112,-0.89296 0.283186,-0.32246 0.781347,-0.32246 z"
         id="path2000" />
      <path
         d="m 83.922309,122.97273 q -0.460953,0 -0.63872,0.10542 -0.177767,0.10542 -0.177767,0.35966 0,0.20258 0.132292,0.32246 0.134358,0.11783 0.363802,0.11783 0.316259,0 0.506428,-0.22325 0.192236,-0.2253 0.192236,-0.59737 v -0.0847 z m 0.75861,-0.1571 v 1.32085 H 84.30058 v -0.3514 q -0.130224,0.21084 -0.324527,0.31212 -0.194304,0.0992 -0.475423,0.0992 -0.355534,0 -0.566373,-0.19843 -0.208773,-0.20051 -0.208773,-0.53537 0,-0.39068 0.260449,-0.58911 0.262516,-0.19844 0.781347,-0.19844 h 0.5333 v -0.0372 q 0,-0.26251 -0.173632,-0.40514 -0.171566,-0.14469 -0.483691,-0.14469 -0.198438,0 -0.38654,0.0475 -0.188102,0.0475 -0.361734,0.14263 v -0.3514 q 0.208772,-0.0806 0.405143,-0.11989 0.19637,-0.0413 0.382405,-0.0413 0.502294,0 0.750341,0.26044 0.248047,0.26045 0.248047,0.78962 z"
         id="path2002" />
      <path
         d="m 85.840537,121.16405 v 0.65733 h 0.783414 v 0.29559 h -0.783414 v 1.25676 q 0,0.28319 0.07648,0.36381 0.07855,0.0806 0.31626,0.0806 h 0.390673 v 0.31833 h -0.390673 q -0.440283,0 -0.607714,-0.1633 -0.167432,-0.16536 -0.167432,-0.59945 v -1.25676 H 85.17908 v -0.29559 h 0.279052 v -0.65733 z"
         id="path2004" />
      <path
         d="m 78.426009,127.27013 h 1.058332 v 3.21634 h -0.382405 v -2.90008 h -0.680062 q -0.204638,0 -0.285253,0.0827 -0.07855,0.0827 -0.07855,0.29765 v 0.20464 h 0.626318 v 0.29559 h -0.626318 v 2.01951 h -0.382406 v -2.01951 h -0.363801 v -0.29559 h 0.363801 v -0.16123 q 0,-0.38654 0.179834,-0.56224 0.179834,-0.17777 0.570508,-0.17777 z"
         id="path2006" />
      <path
         d="m 81.17726,128.43802 q -0.305925,0 -0.483691,0.23978 -0.177767,0.23771 -0.177767,0.65319 0,0.41548 0.1757,0.65526 0.177766,0.23771 0.485758,0.23771 0.303857,0 0.481624,-0.23978 0.177766,-0.23978 0.177766,-0.65319 0,-0.41135 -0.177766,-0.65112 -0.177767,-0.24185 -0.481624,-0.24185 z m 0,-0.32246 q 0.496093,0 0.77928,0.32246 0.283186,0.32246 0.283186,0.89297 0,0.56844 -0.283186,0.89297 -0.283187,0.32246 -0.77928,0.32246 -0.498161,0 -0.781347,-0.32246 -0.28112,-0.32453 -0.28112,-0.89297 0,-0.57051 0.28112,-0.89297 0.283186,-0.32246 0.781347,-0.32246 z"
         id="path2008" />
      <path
         d="m 83.922309,129.32272 q -0.460953,0 -0.63872,0.10542 -0.177767,0.10542 -0.177767,0.35967 0,0.20257 0.132292,0.32246 0.134358,0.11782 0.363802,0.11782 0.316259,0 0.506428,-0.22324 0.192236,-0.22531 0.192236,-0.59738 v -0.0847 z m 0.75861,-0.1571 v 1.32085 H 84.30058 v -0.3514 q -0.130224,0.21084 -0.324527,0.31213 -0.194304,0.0992 -0.475423,0.0992 -0.355534,0 -0.566373,-0.19844 -0.208773,-0.2005 -0.208773,-0.53537 0,-0.39067 0.260449,-0.58911 0.262516,-0.19844 0.781347,-0.19844 h 0.5333 v -0.0372 q 0,-0.26252 -0.173632,-0.40515 -0.171566,-0.14469 -0.483691,-0.14469 -0.198438,0 -0.38654,0.0475 -0.188102,0.0476 -0.361734,0.14263 v -0.3514 q 0.208772,-0.0806 0.405143,-0.11989 0.19637,-0.0413 0.382405,-0.0413 0.502294,0 0.750341,0.26045 0.248047,0.26045 0.248047,0.78961 z"
         id="path2010" />
      <path
         d="m 85.840537,127.51405 v 0.65732 h 0.783414 v 0.29559 h -0.783414 v 1.25677 q 0,0.28319 0.07648,0.3638 0.07855,0.0806 0.31626,0.0806 h 0.390673 v 0.31832 h -0.390673 q -0.440283,0 -0.607714,-0.16329 -0.167432,-0.16537 -0.167432,-0.59945 v -1.25677 H 85.17908 v -0.29559 h 0.279052 v -0.65732 z"
         id="path2012" />
      <path
         d="m 78.426009,133.62013 h 1.058332 v 3.21634 h -0.382405 v -2.90008 h -0.680062 q -0.204638,0 -0.285253,0.0827 -0.07855,0.0827 -0.07855,0.29766 v 0.20464 h 0.626318 v 0.29558 h -0.626318 v 2.01952 h -0.382406 v -2.01952 h -0.363801 v -0.29558 h 0.363801 v -0.16123 q 0,-0.38654 0.179834,-0.56224 0.179834,-0.17777 0.570508,-0.17777 z"
         id="path2014" />
      <path
         d="m 81.17726,134.78802 q -0.305925,0 -0.483691,0.23977 -0.177767,0.23772 -0.177767,0.65319 0,0.41548 0.1757,0.65526 0.177766,0.23771 0.485758,0.23771 0.303857,0 0.481624,-0.23978 0.177766,-0.23978 0.177766,-0.65319 0,-0.41134 -0.177766,-0.65112 -0.177767,-0.24184 -0.481624,-0.24184 z m 0,-0.32246 q 0.496093,0 0.77928,0.32246 0.283186,0.32246 0.283186,0.89296 0,0.56844 -0.283186,0.89297 -0.283187,0.32246 -0.77928,0.32246 -0.498161,0 -0.781347,-0.32246 -0.28112,-0.32453 -0.28112,-0.89297 0,-0.5705 0.28112,-0.89296 0.283186,-0.32246 0.781347,-0.32246 z"
         id="path2016" />
      <path
         d="m 83.922309,135.67272 q -0.460953,0 -0.63872,0.10542 -0.177767,0.10542 -0.177767,0.35966 0,0.20257 0.132292,0.32246 0.134358,0.11783 0.363802,0.11783 0.316259,0 0.506428,-0.22325 0.192236,-0.22531 0.192236,-0.59738 v -0.0847 z m 0.75861,-0.1571 v 1.32085 H 84.30058 v -0.3514 q -0.130224,0.21084 -0.324527,0.31212 -0.194304,0.0992 -0.475423,0.0992 -0.355534,0 -0.566373,-0.19843 -0.208773,-0.20051 -0.208773,-0.53537 0,-0.39068 0.260449,-0.58911 0.262516,-0.19844 0.781347,-0.19844 h 0.5333 v -0.0372 q 0,-0.26251 -0.173632,-0.40514 -0.171566,-0.14469 -0.483691,-0.14469 -0.198438,0 -0.38654,0.0475 -0.188102,0.0475 -0.361734,0.14262 v -0.35139 q 0.208772,-0.0806 0.405143,-0.11989 0.19637,-0.0413 0.382405,-0.0413 0.502294,0 0.750341,0.26044 0.248047,0.26045 0.248047,0.78962 z"
         id="path2018" />
      <path
         d="m 85.840537,133.86404 v 0.65733 h 0.783414 v 0.29558 h -0.783414 v 1.25677 q 0,0.28319 0.07648,0.36381 0.07855,0.0806 0.31626,0.0806 h 0.390673 v 0.31833 h -0.390673 q -0.440283,0 -0.607714,-0.1633 -0.167432,-0.16536 -0.167432,-0.59945 v -1.25677 H 85.17908 v -0.29558 h 0.279052 v -0.65733 z"
         id="path2020" />
      <path
         d="m 78.426009,139.97012 h 1.058332 v 3.21634 h -0.382405 v -2.90008 h -0.680062 q -0.204638,0 -0.285253,0.0827 -0.07855,0.0827 -0.07855,0.29765 v 0.20464 h 0.626318 v 0.29559 h -0.626318 v 2.01951 h -0.382406 v -2.01951 h -0.363801 v -0.29559 h 0.363801 v -0.16123 q 0,-0.38654 0.179834,-0.56224 0.179834,-0.17777 0.570508,-0.17777 z"
         id="path2022" />
      <path
         d="m 81.17726,141.13801 q -0.305925,0 -0.483691,0.23978 -0.177767,0.23771 -0.177767,0.65319 0,0.41548 0.1757,0.65525 0.177766,0.23772 0.485758,0.23772 0.303857,0 0.481624,-0.23978 0.177766,-0.23978 0.177766,-0.65319 0,-0.41135 -0.177766,-0.65112 -0.177767,-0.24185 -0.481624,-0.24185 z m 0,-0.32246 q 0.496093,0 0.77928,0.32246 0.283186,0.32246 0.283186,0.89297 0,0.56844 -0.283186,0.89297 -0.283187,0.32246 -0.77928,0.32246 -0.498161,0 -0.781347,-0.32246 -0.28112,-0.32453 -0.28112,-0.89297 0,-0.57051 0.28112,-0.89297 0.283186,-0.32246 0.781347,-0.32246 z"
         id="path2024" />
      <path
         d="m 83.922309,142.02271 q -0.460953,0 -0.63872,0.10542 -0.177767,0.10542 -0.177767,0.35967 0,0.20257 0.132292,0.32246 0.134358,0.11782 0.363802,0.11782 0.316259,0 0.506428,-0.22324 0.192236,-0.22531 0.192236,-0.59738 v -0.0848 z m 0.75861,-0.1571 v 1.32085 H 84.30058 v -0.3514 q -0.130224,0.21084 -0.324527,0.31213 -0.194304,0.0992 -0.475423,0.0992 -0.355534,0 -0.566373,-0.19844 -0.208773,-0.2005 -0.208773,-0.53537 0,-0.39067 0.260449,-0.58911 0.262516,-0.19844 0.781347,-0.19844 h 0.5333 v -0.0372 q 0,-0.26252 -0.173632,-0.40515 -0.171566,-0.14469 -0.483691,-0.14469 -0.198438,0 -0.38654,0.0475 -0.188102,0.0475 -0.361734,0.14263 v -0.3514 q 0.208772,-0.0806 0.405143,-0.11989 0.19637,-0.0413 0.382405,-0.0413 0.502294,0 0.750341,0.26045 0.248047,0.26045 0.248047,0.78961 z"
         id="path2026" />
      <path
         d="m 85.840537,140.21404 v 0.65732 h 0.783414 v 0.29559 h -0.783414 v 1.25677 q 0,0.28319 0.07648,0.3638 0.07855,0.0806 0.31626,0.0806 h 0.390673 v 0.31832 h -0.390673 q -0.440283,0 -0.607714,-0.16329 -0.167432,-0.16537 -0.167432,-0.59945 v -1.25677 H 85.17908 v -0.29559 h 0.279052 v -0.65732 z"
         id="path2028" />
      <path
         d="m 78.426009,146.32012 h 1.058332 v 3.21634 h -0.382405 v -2.90008 h -0.680062 q -0.204638,0 -0.285253,0.0827 -0.07855,0.0827 -0.07855,0.29766 v 0.20463 h 0.626318 v 0.29559 h -0.626318 v 2.01952 h -0.382406 v -2.01952 h -0.363801 v -0.29559 h 0.363801 v -0.16123 q 0,-0.38653 0.179834,-0.56223 0.179834,-0.17777 0.570508,-0.17777 z"
         id="path2030" />
      <path
         d="m 81.17726,147.48801 q -0.305925,0 -0.483691,0.23977 -0.177767,0.23771 -0.177767,0.65319 0,0.41548 0.1757,0.65526 0.177766,0.23771 0.485758,0.23771 0.303857,0 0.481624,-0.23978 0.177766,-0.23978 0.177766,-0.65319 0,-0.41134 -0.177766,-0.65112 -0.177767,-0.24184 -0.481624,-0.24184 z m 0,-0.32247 q 0.496093,0 0.77928,0.32247 0.283186,0.32246 0.283186,0.89296 0,0.56844 -0.283186,0.89297 -0.283187,0.32246 -0.77928,0.32246 -0.498161,0 -0.781347,-0.32246 -0.28112,-0.32453 -0.28112,-0.89297 0,-0.5705 0.28112,-0.89296 0.283186,-0.32247 0.781347,-0.32247 z"
         id="path2032" />
      <path
         d="m 83.922309,148.3727 q -0.460953,0 -0.63872,0.10542 -0.177767,0.10542 -0.177767,0.35967 0,0.20257 0.132292,0.32246 0.134358,0.11783 0.363802,0.11783 0.316259,0 0.506428,-0.22325 0.192236,-0.22531 0.192236,-0.59738 v -0.0847 z m 0.75861,-0.15709 v 1.32085 H 84.30058 v -0.3514 q -0.130224,0.21084 -0.324527,0.31212 -0.194304,0.0992 -0.475423,0.0992 -0.355534,0 -0.566373,-0.19844 -0.208773,-0.2005 -0.208773,-0.53536 0,-0.39068 0.260449,-0.58911 0.262516,-0.19844 0.781347,-0.19844 h 0.5333 v -0.0372 q 0,-0.26251 -0.173632,-0.40514 -0.171566,-0.14469 -0.483691,-0.14469 -0.198438,0 -0.38654,0.0475 -0.188102,0.0475 -0.361734,0.14262 v -0.3514 q 0.208772,-0.0806 0.405143,-0.11988 0.19637,-0.0413 0.382405,-0.0413 0.502294,0 0.750341,0.26045 0.248047,0.26045 0.248047,0.78962 z"
         id="path2034" />
      <path
         d="m 85.840537,146.56403 v 0.65732 h 0.783414 v 0.29559 h -0.783414 v 1.25677 q 0,0.28319 0.07648,0.36381 0.07855,0.0806 0.31626,0.0806 h 0.390673 v 0.31833 h -0.390673 q -0.440283,0 -0.607714,-0.1633 -0.167432,-0.16536 -0.167432,-0.59945 v -1.25677 H 85.17908 v -0.29559 h 0.279052 v -0.65732 z"
         id="path2036" />
      <path
         d="m 78.426009,152.67011 h 1.058332 v 3.21634 h -0.382405 v -2.90008 h -0.680062 q -0.204638,0 -0.285253,0.0827 -0.07855,0.0827 -0.07855,0.29765 v 0.20464 h 0.626318 v 0.29559 h -0.626318 v 2.01951 h -0.382406 v -2.01951 h -0.363801 v -0.29559 h 0.363801 v -0.16123 q 0,-0.38654 0.179834,-0.56224 0.179834,-0.17777 0.570508,-0.17777 z"
         id="path2038" />
      <path
         d="m 81.17726,153.838 q -0.305925,0 -0.483691,0.23978 -0.177767,0.23771 -0.177767,0.65319 0,0.41548 0.1757,0.65525 0.177766,0.23772 0.485758,0.23772 0.303857,0 0.481624,-0.23978 0.177766,-0.23978 0.177766,-0.65319 0,-0.41135 -0.177766,-0.65112 Q 81.481117,153.838 81.17726,153.838 Z m 0,-0.32246 q 0.496093,0 0.77928,0.32246 0.283186,0.32246 0.283186,0.89297 0,0.56844 -0.283186,0.89297 -0.283187,0.32246 -0.77928,0.32246 -0.498161,0 -0.781347,-0.32246 -0.28112,-0.32453 -0.28112,-0.89297 0,-0.57051 0.28112,-0.89297 0.283186,-0.32246 0.781347,-0.32246 z"
         id="path2040" />
      <path
         d="m 83.922309,154.7227 q -0.460953,0 -0.63872,0.10542 -0.177767,0.10542 -0.177767,0.35967 0,0.20257 0.132292,0.32246 0.134358,0.11782 0.363802,0.11782 0.316259,0 0.506428,-0.22324 0.192236,-0.22531 0.192236,-0.59738 v -0.0847 z m 0.75861,-0.1571 v 1.32085 H 84.30058 v -0.3514 q -0.130224,0.21084 -0.324527,0.31213 -0.194304,0.0992 -0.475423,0.0992 -0.355534,0 -0.566373,-0.19844 -0.208773,-0.20051 -0.208773,-0.53537 0,-0.39067 0.260449,-0.58911 0.262516,-0.19844 0.781347,-0.19844 h 0.5333 v -0.0372 q 0,-0.26252 -0.173632,-0.40515 -0.171566,-0.14469 -0.483691,-0.14469 -0.198438,0 -0.38654,0.0475 -0.188102,0.0475 -0.361734,0.14263 v -0.3514 q 0.208772,-0.0806 0.405143,-0.11989 0.19637,-0.0413 0.382405,-0.0413 0.502294,0 0.750341,0.26045 0.248047,0.26045 0.248047,0.78961 z"
         id="path2042" />
      <path
         d="m 85.840537,152.91403 v 0.65732 h 0.783414 v 0.29559 h -0.783414 v 1.25677 q 0,0.28318 0.07648,0.3638 0.07855,0.0806 0.31626,0.0806 h 0.390673 v 0.31832 h -0.390673 q -0.440283,0 -0.607714,-0.1633 -0.167432,-0.16536 -0.167432,-0.59944 v -1.25677 H 85.17908 v -0.29559 h 0.279052 v -0.65732 z"
         id="path2044" />
      <path
         d="m 78.426009,159.02011 h 1.058332 v 3.21634 h -0.382405 v -2.90008 h -0.680062 q -0.204638,0 -0.285253,0.0827 -0.07855,0.0827 -0.07855,0.29766 v 0.20463 h 0.626318 v 0.29559 h -0.626318 v 2.01952 h -0.382406 v -2.01952 h -0.363801 v -0.29559 h 0.363801 v -0.16123 q 0,-0.38654 0.179834,-0.56224 0.179834,-0.17776 0.570508,-0.17776 z"
         id="path2046" />
      <path
         d="m 81.17726,160.18799 q -0.305925,0 -0.483691,0.23978 -0.177767,0.23771 -0.177767,0.65319 0,0.41548 0.1757,0.65526 0.177766,0.23771 0.485758,0.23771 0.303857,0 0.481624,-0.23978 0.177766,-0.23978 0.177766,-0.65319 0,-0.41134 -0.177766,-0.65112 -0.177767,-0.24185 -0.481624,-0.24185 z m 0,-0.32246 q 0.496093,0 0.77928,0.32246 0.283186,0.32246 0.283186,0.89297 0,0.56844 -0.283186,0.89297 -0.283187,0.32246 -0.77928,0.32246 -0.498161,0 -0.781347,-0.32246 -0.28112,-0.32453 -0.28112,-0.89297 0,-0.57051 0.28112,-0.89297 0.283186,-0.32246 0.781347,-0.32246 z"
         id="path2048" />
      <path
         d="m 83.922309,161.07269 q -0.460953,0 -0.63872,0.10542 -0.177767,0.10542 -0.177767,0.35967 0,0.20257 0.132292,0.32246 0.134358,0.11782 0.363802,0.11782 0.316259,0 0.506428,-0.22324 0.192236,-0.22531 0.192236,-0.59738 v -0.0848 z m 0.75861,-0.15709 v 1.32085 H 84.30058 v -0.3514 q -0.130224,0.21084 -0.324527,0.31212 -0.194304,0.0992 -0.475423,0.0992 -0.355534,0 -0.566373,-0.19844 -0.208773,-0.2005 -0.208773,-0.53536 0,-0.39068 0.260449,-0.58911 0.262516,-0.19844 0.781347,-0.19844 h 0.5333 v -0.0372 q 0,-0.26251 -0.173632,-0.40514 -0.171566,-0.1447 -0.483691,-0.1447 -0.198438,0 -0.38654,0.0475 -0.188102,0.0475 -0.361734,0.14262 v -0.3514 q 0.208772,-0.0806 0.405143,-0.11989 0.19637,-0.0413 0.382405,-0.0413 0.502294,0 0.750341,0.26045 0.248047,0.26045 0.248047,0.78962 z"
         id="path2050" />
      <path
         d="m 85.840537,159.26402 v 0.65732 h 0.783414 v 0.29559 h -0.783414 v 1.25677 q 0,0.28319 0.07648,0.3638 0.07855,0.0806 0.31626,0.0806 h 0.390673 v 0.31833 h -0.390673 q -0.440283,0 -0.607714,-0.1633 -0.167432,-0.16537 -0.167432,-0.59945 v -1.25677 H 85.17908 v -0.29559 h 0.279052 V 159.264 Z"
         id="path2052" />
    </g>
    <path
       style="font-variation-settings:normal;opacity:1;vector-effect:none;fill:none;fill-opacity:1;stroke:#000000;stroke-width:0.264583;stroke-linecap:butt;stroke-linejoin:miter;stroke-miterlimit:4;stroke-dasharray:none;stroke-dashoffset:0;stroke-opacity:1;-inkscape-stroke:none;stop-color:#000000;stop-opacity:1"
       d="M 74.914206,94.369645 H 113.78395"
       id="path51245" />
    <path
       style="font-variation-settings:normal;opacity:1;vector-effect:none;fill:none;fill-opacity:1;stroke:#000000;stroke-width:0.264583;stroke-linecap:butt;stroke-linejoin:miter;stroke-miterlimit:4;stroke-dasharray:none;stroke-dashoffset:0;stroke-opacity:1;-inkscape-stroke:none;stop-color:#000000;stop-opacity:1"
       d="M 74.914206,100.71965 H 113.78395"
       id="path51327" />
    <path
       style="font-variation-settings:normal;opacity:1;vector-effect:none;fill:none;fill-opacity:1;stroke:#000000;stroke-width:0.264583;stroke-linecap:butt;stroke-linejoin:miter;stroke-miterlimit:4;stroke-dasharray:none;stroke-dashoffset:0;stroke-opacity:1;-inkscape-stroke:none;stop-color:#000000;stop-opacity:1"
       d="M 74.914206,107.06966 H 113.78395"
       id="path51329" />
    <path
       style="font-variation-settings:normal;opacity:1;fill:none;fill-opacity:1;stroke:#000000;stroke-width:0.264583;stroke-linecap:butt;stroke-linejoin:miter;stroke-miterlimit:4;stroke-dasharray:0.529166, 0.529166;stroke-dashoffset:0;stroke-opacity:1;stop-color:#000000;stop-opacity:1"
       d="M 21.997536,94.369645 H 60.867274"
       id="path51497" />
    <path
       style="font-variation-settings:normal;opacity:1;fill:none;fill-opacity:1;stroke:#000000;stroke-width:0.264583;stroke-linecap:butt;stroke-linejoin:miter;stroke-miterlimit:4;stroke-dasharray:0.529166, 0.529166;stroke-dashoffset:0;stroke-opacity:1;stop-color:#000000;stop-opacity:1"
       d="M 21.997536,100.71965 H 60.867274"
       id="path51499" />
    <path
       style="font-variation-settings:normal;opacity:1;fill:none;fill-opacity:1;stroke:#000000;stroke-width:0.264583;stroke-linecap:butt;stroke-linejoin:miter;stroke-miterlimit:4;stroke-dasharray:0.529166, 0.529166;stroke-dashoffset:0;stroke-opacity:1;stop-color:#000000;stop-opacity:1"
       d="M 21.997536,107.06966 H 60.867274"
       id="path51501" />
    <g
       aria-label="..."
       transform="rotate(90)"
       id="text52805"
       style="font-size:4.23333px;line-height:1.25;font-family:'DejaVu Sans';-inkscape-font-specification:'DejaVu Sans';stroke-width:0.264583">
      <path
         d="m 165.84697,-88.102928 h 0.43615 v 0.525032 h -0.43615 z"
         id="path2055" />
      <path
         d="m 167.19263,-88.102928 h 0.43614 v 0.525032 h -0.43614 z"
         id="path2057" />
      <path
         d="m 168.53828,-88.102928 h 0.43615 v 0.525032 h -0.43615 z"
         id="path2059" />
    </g>
    <path
       style="font-variation-settings:normal;opacity:1;vector-effect:none;fill:none;fill-opacity:1;stroke:#000000;stroke-width:0.264583;stroke-linecap:butt;stroke-linejoin:miter;stroke-miterlimit:4;stroke-dasharray:none;stroke-dashoffset:0;stroke-opacity:1;-inkscape-stroke:none;stop-color:#000000;stop-opacity:1"
       d="M 74.914206,113.41967 H 113.78395"
       id="path53813" />
    <path
       style="font-variation-settings:normal;opacity:1;vector-effect:none;fill:none;fill-opacity:1;stroke:#000000;stroke-width:0.264583;stroke-linecap:butt;stroke-linejoin:miter;stroke-miterlimit:4;stroke-dasharray:none;stroke-dashoffset:0;stroke-opacity:1;-inkscape-stroke:none;stop-color:#000000;stop-opacity:1"
       d="M 74.914206,119.76968 H 113.78395"
       id="path53815" />
    <path
       style="font-variation-settings:normal;opacity:1;vector-effect:none;fill:none;fill-opacity:1;stroke:#000000;stroke-width:0.264583;stroke-linecap:butt;stroke-linejoin:miter;stroke-miterlimit:4;stroke-dasharray:none;stroke-dashoffset:0;stroke-opacity:1;-inkscape-stroke:none;stop-color:#000000;stop-opacity:1"
       d="M 74.914206,126.11969 H 113.78395"
       id="path53817" />
    <path
       style="font-variation-settings:normal;opacity:1;vector-effect:none;fill:none;fill-opacity:1;stroke:#000000;stroke-width:0.264583;stroke-linecap:butt;stroke-linejoin:miter;stroke-miterlimit:4;stroke-dasharray:none;stroke-dashoffset:0;stroke-opacity:1;-inkscape-stroke:none;stop-color:#000000;stop-opacity:1"
       d="M 74.914206,132.4697 H 113.78395"
       id="path53819" />
    <path
       style="font-variation-settings:normal;opacity:1;vector-effect:none;fill:none;fill-opacity:1;stroke:#000000;stroke-width:0.264583;stroke-linecap:butt;stroke-linejoin:miter;stroke-miterlimit:4;stroke-dasharray:none;stroke-dashoffset:0;stroke-opacity:1;-inkscape-stroke:none;stop-color:#000000;stop-opacity:1"
       d="M 74.914206,138.81971 H 113.78395"
       id="path53821" />
    <path
       style="font-variation-settings:normal;opacity:1;vector-effect:none;fill:none;fill-opacity:1;stroke:#000000;stroke-width:0.264583;stroke-linecap:butt;stroke-linejoin:miter;stroke-miterlimit:4;stroke-dasharray:none;stroke-dashoffset:0;stroke-opacity:1;-inkscape-stroke:none;stop-color:#000000;stop-opacity:1"
       d="M 74.914206,145.16972 H 113.78395"
       id="path53823" />
    <path
       style="font-variation-settings:normal;opacity:1;vector-effect:none;fill:none;fill-opacity:1;stroke:#000000;stroke-width:0.264583;stroke-linecap:butt;stroke-linejoin:miter;stroke-miterlimit:4;stroke-dasharray:none;stroke-dashoffset:0;stroke-opacity:1;-inkscape-stroke:none;stop-color:#000000;stop-opacity:1"
       d="M 74.914206,151.51973 H 113.78395"
       id="path53825" />
    <path
       style="font-variation-settings:normal;opacity:1;vector-effect:none;fill:none;fill-opacity:1;stroke:#000000;stroke-width:0.264583;stroke-linecap:butt;stroke-linejoin:miter;stroke-miterlimit:4;stroke-dasharray:none;stroke-dashoffset:0;stroke-opacity:1;-inkscape-stroke:none;stop-color:#000000;stop-opacity:1"
       d="M 74.914206,157.86974 H 113.78395"
       id="path53827" />
    <path
       style="font-variation-settings:normal;opacity:1;vector-effect:none;fill:none;fill-opacity:1;stroke:#000000;stroke-width:0.264583;stroke-linecap:butt;stroke-linejoin:miter;stroke-miterlimit:4;stroke-dasharray:none;stroke-dashoffset:0;stroke-opacity:1;-inkscape-stroke:none;stop-color:#000000;stop-opacity:1"
       d="M 74.914206,164.21975 H 113.78395"
       id="path53829" />
    <path
       style="font-variation-settings:normal;opacity:1;vector-effect:none;fill:none;fill-opacity:1;stroke:#000000;stroke-width:0.5;stroke-linecap:butt;stroke-linejoin:miter;stroke-miterlimit:4;stroke-dasharray:none;stroke-dashoffset:0;stroke-opacity:1;-inkscape-stroke:none;marker-end:url(#Arrow1Mend);stop-color:#000000;stop-opacity:1"
       d="m 60.815294,109.68289 2.97933,-0.001 3.46158,-19.393136 6.41147,0.0211"
       id="path56266"
       sodipodi:nodetypes="cccc" />
  </g>
</svg>
