<?xml version="1.0" encoding="UTF-8" standalone="no"?>
<!-- Created with Inkscape (http://www.inkscape.org/) -->

<svg
   width="227.90285mm"
   height="86.183968mm"
   viewBox="0 0 227.90285 86.183968"
   version="1.1"
   id="svg5"
   inkscape:version="1.1.2 (0a00cf5339, 2022-02-04)"
   sodipodi:docname="two-reference-counters.svg"
   xmlns:inkscape="http://www.inkscape.org/namespaces/inkscape"
   xmlns:sodipodi="http://sodipodi.sourceforge.net/DTD/sodipodi-0.dtd"
   xmlns="http://www.w3.org/2000/svg"
   xmlns:svg="http://www.w3.org/2000/svg">
  <sodipodi:namedview
     id="namedview7"
     pagecolor="#ffffff"
     bordercolor="#666666"
     borderopacity="1.0"
     inkscape:pageshadow="2"
     inkscape:pageopacity="0.0"
     inkscape:pagecheckerboard="0"
     inkscape:document-units="mm"
     showgrid="false"
     inkscape:zoom="1.2856556"
     inkscape:cx="447.24264"
     inkscape:cy="190.56425"
     inkscape:window-width="2554"
     inkscape:window-height="1365"
     inkscape:window-x="1920"
     inkscape:window-y="32"
     inkscape:window-maximized="1"
     inkscape:current-layer="layer1"
     inkscape:snap-nodes="true"
     inkscape:snap-bbox="false"
     inkscape:snap-bbox-midpoints="false"
     inkscape:snap-object-midpoints="false"
     inkscape:object-nodes="false"
     inkscape:snap-center="false"
     fit-margin-top="5"
     fit-margin-left="5"
     fit-margin-right="5"
     fit-margin-bottom="5" />
  <defs
     id="defs2">
    <marker
       style="overflow:visible"
       id="Arrow1Mend"
       refX="0"
       refY="0"
       orient="auto"
       inkscape:stockid="Arrow1Mend"
       inkscape:isstock="true">
      <path
         transform="matrix(-0.4,0,0,-0.4,-4,0)"
         style="fill:context-stroke;fill-rule:evenodd;stroke:context-stroke;stroke-width:1pt"
         d="M 0,0 5,-5 -12.5,0 5,5 Z"
         id="path87550" />
    </marker>
    <marker
       style="overflow:visible"
       id="Arrow1Lend"
       refX="0"
       refY="0"
       orient="auto"
       inkscape:stockid="Arrow1Lend"
       inkscape:isstock="true">
      <path
         transform="matrix(-0.8,0,0,-0.8,-10,0)"
         style="fill:context-stroke;fill-rule:evenodd;stroke:context-stroke;stroke-width:1pt"
         d="M 0,0 5,-5 -12.5,0 5,5 Z"
         id="path87544" />
    </marker>
  </defs>
  <g
     inkscape:label="Layer 1"
     inkscape:groupmode="layer"
     id="layer1"
     transform="translate(1.6305437,-95.261078)">
    <path
       style="font-variation-settings:normal;opacity:1;fill:none;fill-opacity:1;stroke:#000000;stroke-width:1;stroke-linecap:butt;stroke-linejoin:miter;stroke-miterlimit:4;stroke-dasharray:none;stroke-dashoffset:0;stroke-opacity:1;marker-end:url(#Arrow1Mend);stop-color:#000000;stop-opacity:1"
       d="m 136.65753,113.89536 -27.14508,16.76381"
       id="path88110"
       sodipodi:nodetypes="cc" />
    <path
       style="font-variation-settings:normal;opacity:1;fill:none;fill-opacity:1;stroke:#000000;stroke-width:1;stroke-linecap:butt;stroke-linejoin:miter;stroke-miterlimit:4;stroke-dasharray:none;stroke-dashoffset:0;stroke-opacity:1;marker-end:url(#Arrow1Mend);stop-color:#000000;stop-opacity:1"
       d="M 136.65753,165.09247 109.51245,148.32866"
       id="path87539"
       sodipodi:nodetypes="cc" />
    <g
       aria-label="struct PyObject {
  ...
  uint32_t   ob_ref_local;
  Py_ssize_t ob_ref_shared;
  ...
};"
       id="text8702"
       style="font-size:6.35px;line-height:1.25;font-family:'DejaVu Sans';-inkscape-font-specification:'DejaVu Sans';text-align:center;text-anchor:middle;stroke-width:0.264583">
      <path
         d="m 6.4421369,117.21641 v 0.79375 q -0.2511474,-0.16123 -0.523999,-0.24185 -0.269751,-0.0837 -0.5426025,-0.0837 -0.3038575,0 -0.4588867,0.0899 -0.1550293,0.0868 -0.1550293,0.26045 0,0.24805 0.6635253,0.40308 l 0.034107,0.009 0.2604492,0.062 q 0.4960937,0.11782 0.7255371,0.38137 0.2325439,0.26045 0.2325439,0.70694 0,0.5364 -0.3534668,0.80615 -0.3503662,0.26665 -1.0572997,0.26665 -0.3131592,0 -0.6418213,-0.0558 -0.3286621,-0.0527 -0.666626,-0.16123 v -0.79375 q 0.3007568,0.17053 0.6108154,0.26045 0.3131592,0.0899 0.6046143,0.0899 0.3193603,0 0.4836914,-0.093 0.164331,-0.093 0.164331,-0.26975 0,-0.17364 -0.1178222,-0.26665 -0.1147217,-0.093 -0.5519043,-0.19844 l -0.2511475,-0.0558 q -0.5208984,-0.11782 -0.7596435,-0.36897 -0.2387451,-0.25115 -0.2387451,-0.67283 0,-0.50229 0.3627685,-0.78135 0.3627686,-0.27905 1.0200928,-0.27905 0.2945556,0 0.5860107,0.0496 0.2945557,0.0465 0.5705078,0.14263 z"
         style="fill:#0055d4"
         id="path857" />
      <path
         d="m 9.3318829,116.1219 v 0.98599 h 1.1875241 v 0.69763 H 9.3318829 v 1.64331 q 0,0.23254 0.1116211,0.33486 0.1147217,0.0992 0.3782715,0.0992 h 0.6976315 v 0.69763 H 9.7566632 q -0.7813477,0 -1.0572998,-0.24804 -0.2759521,-0.25115 -0.2759521,-0.92708 v -1.5999 H 7.5366437 v -0.69763 h 0.8867676 v -0.98599 z"
         style="fill:#0055d4"
         id="path859" />
      <path
         d="m 14.584275,118.06597 q -0.148828,-0.13643 -0.350366,-0.20464 -0.198437,-0.0682 -0.437182,-0.0682 -0.288355,0 -0.505396,0.10232 -0.21394,0.0992 -0.331763,0.29145 -0.07441,0.11782 -0.10542,0.28526 -0.02791,0.16743 -0.02791,0.50849 v 1.5999 h -0.908471 v -3.47265 h 0.908471 v 0.5395 q 0.133325,-0.29766 0.409278,-0.45889 0.275952,-0.16433 0.644921,-0.16433 0.186036,0 0.362769,0.0465 0.179834,0.0434 0.341064,0.13022 z"
         style="fill:#0055d4"
         id="path861" />
      <path
         d="m 15.334617,119.36821 v -2.26032 h 0.908471 v 2.1208 q 0,0.37517 0.10542,0.5364 0.10542,0.16123 0.350366,0.16123 0.244947,0 0.381373,-0.21704 0.139526,-0.21704 0.139526,-0.60772 v -1.99367 h 0.908472 v 3.47265 h -0.908472 v -0.51469 q -0.09612,0.28835 -0.328662,0.44648 -0.229444,0.15813 -0.555005,0.15813 -0.496094,0 -0.750342,-0.32866 -0.251147,-0.32866 -0.251147,-0.97359 z"
         style="fill:#0055d4"
         id="path863" />
      <path
         d="m 21.951267,120.40381 q -0.229443,0.13333 -0.492993,0.19844 -0.26355,0.0682 -0.567407,0.0682 -0.803052,0 -1.255737,-0.48369 -0.452686,-0.48369 -0.452686,-1.33945 0,-0.85887 0.455786,-1.34256 0.455786,-0.48679 1.258838,-0.48679 0.279053,0 0.536402,0.0651 0.260449,0.0651 0.517797,0.20154 v 0.83096 q -0.198437,-0.17053 -0.437182,-0.26045 -0.235645,-0.093 -0.489893,-0.093 -0.443384,0 -0.682129,0.28215 -0.238745,0.28216 -0.238745,0.80306 0,0.52089 0.238745,0.79995 0.238745,0.27905 0.682129,0.27905 0.26355,0 0.492993,-0.0868 0.229444,-0.0899 0.434082,-0.26975 z"
         style="fill:#0055d4"
         id="path865" />
      <path
         d="m 24.623973,116.1219 v 0.98599 h 1.187524 v 0.69763 h -1.187524 v 1.64331 q 0,0.23254 0.111621,0.33486 0.114722,0.0992 0.378271,0.0992 h 0.697632 v 0.69763 h -0.762744 q -0.781348,0 -1.0573,-0.24804 -0.275952,-0.25115 -0.275952,-0.92708 v -1.5999 h -0.886767 v -0.69763 h 0.886767 v -0.98599 z"
         style="fill:#0055d4"
         id="path867" />
      <path
         d="m 31.54758,116.72031 v 1.35806 h 0.375171 q 0.449585,0 0.629419,-0.15193 0.182935,-0.15193 0.182935,-0.5271 0,-0.37517 -0.182935,-0.5271 -0.179834,-0.15193 -0.629419,-0.15193 z m -0.914673,-0.76894 h 1.255738 q 0.958081,0 1.37666,0.34106 0.421679,0.34107 0.421679,1.10691 0,0.76585 -0.421679,1.10691 -0.418579,0.34107 -1.37666,0.34107 H 31.54758 v 1.73322 h -0.914673 z"
         style="font-weight:bold;font-family:'DejaVu Sans Mono';-inkscape-font-specification:'DejaVu Sans Mono Bold';text-align:start;text-anchor:start;fill:#4d4d4d"
         id="path869" />
      <path
         d="m 36.158152,120.95571 q -0.182935,0.4899 -0.440283,0.71314 -0.254248,0.22634 -0.620118,0.22634 H 34.34741 v -0.69143 h 0.368969 q 0.279053,0 0.409278,-0.0961 0.130224,-0.093 0.263549,-0.43718 l 0.06821,-0.18603 -1.320849,-3.37654 h 0.95498 l 0.79375,2.25412 0.759644,-2.25412 h 0.95498 z"
         style="font-weight:bold;font-family:'DejaVu Sans Mono';-inkscape-font-specification:'DejaVu Sans Mono Bold';text-align:start;text-anchor:start;fill:#4d4d4d"
         id="path871" />
      <path
         d="m 39.686617,116.68931 q -0.350366,0 -0.511597,0.37517 -0.16123,0.37207 -0.16123,1.20613 0,0.83095 0.16123,1.20612 0.161231,0.37208 0.511597,0.37208 0.353467,0 0.514697,-0.37208 0.161231,-0.37517 0.161231,-1.20612 0,-0.83406 -0.161231,-1.20613 -0.16123,-0.37517 -0.514697,-0.37517 z m -1.624707,1.5813 q 0,-1.18753 0.409277,-1.79524 0.412378,-0.60772 1.21543,-0.60772 0.806152,0 1.21543,0.60772 0.412378,0.60771 0.412378,1.79524 0,1.18442 -0.412378,1.79214 -0.409278,0.60771 -1.21543,0.60771 -0.803052,0 -1.21543,-0.60771 -0.409277,-0.60772 -0.409277,-1.79214 z"
         style="font-weight:bold;font-family:'DejaVu Sans Mono';-inkscape-font-specification:'DejaVu Sans Mono Bold';text-align:start;text-anchor:start;fill:#4d4d4d"
         id="path873" />
      <path
         d="m 44.235179,118.85352 q 0,-0.5023 -0.167432,-0.78755 -0.167431,-0.28526 -0.461987,-0.28526 -0.294556,0 -0.465088,0.28526 -0.170532,0.28525 -0.170532,0.78755 0,0.50229 0.170532,0.78755 0.170532,0.28525 0.465088,0.28525 0.294556,0 0.461987,-0.28525 0.167432,-0.28526 0.167432,-0.78755 z m -1.265039,-1.25264 q 0.167432,-0.28835 0.387573,-0.43098 0.223242,-0.14573 0.502295,-0.14573 0.617017,0 0.948779,0.47129 0.334864,0.47129 0.334864,1.35186 0,0.86816 -0.328663,1.34565 -0.328662,0.47749 -0.923974,0.47749 -0.313159,0 -0.545703,-0.15193 -0.232544,-0.15193 -0.375171,-0.45268 v 0.51469 h -0.905371 v -4.82451 h 0.905371 z"
         style="font-weight:bold;font-family:'DejaVu Sans Mono';-inkscape-font-specification:'DejaVu Sans Mono Bold';text-align:start;text-anchor:start;fill:#4d4d4d"
         id="path875" />
      <path
         d="m 48.0582,120.44722 q 0,0.78135 -0.282153,1.11311 -0.279053,0.33486 -0.930176,0.33486 h -0.979785 v -0.69763 h 0.725537 q 0.303857,0 0.430981,-0.17053 0.127124,-0.17053 0.127124,-0.57981 v -2.6417 h -0.920874 v -0.69763 H 48.0582 Z m 0,-3.96875 h -0.908472 v -1.0604 H 48.0582 Z"
         style="font-weight:bold;font-family:'DejaVu Sans Mono';-inkscape-font-specification:'DejaVu Sans Mono Bold';text-align:start;text-anchor:start;fill:#4d4d4d"
         id="path877" />
      <path
         d="m 52.662568,120.41001 q -0.316259,0.13023 -0.644921,0.19534 -0.328663,0.0651 -0.694532,0.0651 -0.871264,0 -1.333252,-0.46509 -0.458886,-0.46819 -0.458886,-1.34565 0,-0.84956 0.443383,-1.34256 0.443384,-0.49299 1.209229,-0.49299 0.772046,0 1.196826,0.45889 0.427881,0.45578 0.427881,1.28674 v 0.36897 h -2.353345 q 0.0031,0.40928 0.241846,0.61082 0.238745,0.20153 0.713135,0.20153 0.313159,0 0.617016,-0.0899 0.303858,-0.0899 0.63562,-0.28526 z m -0.768945,-1.95337 q -0.0062,-0.35967 -0.186035,-0.5426 -0.176733,-0.18604 -0.523999,-0.18604 -0.313159,0 -0.499194,0.19224 -0.186036,0.18914 -0.220142,0.5395 z"
         style="font-weight:bold;font-family:'DejaVu Sans Mono';-inkscape-font-specification:'DejaVu Sans Mono Bold';text-align:start;text-anchor:start;fill:#4d4d4d"
         id="path879" />
      <path
         d="m 56.358469,120.40381 q -0.229443,0.13333 -0.492993,0.19844 -0.26355,0.0682 -0.567407,0.0682 -0.803052,0 -1.255738,-0.48369 -0.452685,-0.48369 -0.452685,-1.33945 0,-0.85887 0.455786,-1.34256 0.455786,-0.48679 1.258838,-0.48679 0.279053,0 0.536401,0.0651 0.26045,0.0651 0.517798,0.20154 v 0.83096 q -0.198437,-0.17053 -0.437182,-0.26045 -0.235645,-0.093 -0.489893,-0.093 -0.443384,0 -0.682129,0.28215 -0.238745,0.28216 -0.238745,0.80306 0,0.52089 0.238745,0.79995 0.238745,0.27905 0.682129,0.27905 0.26355,0 0.492993,-0.0868 0.229443,-0.0899 0.434082,-0.26975 z"
         style="font-weight:bold;font-family:'DejaVu Sans Mono';-inkscape-font-specification:'DejaVu Sans Mono Bold';text-align:start;text-anchor:start;fill:#4d4d4d"
         id="path881" />
      <path
         d="m 59.031173,116.1219 v 0.98599 h 1.187524 v 0.69763 h -1.187524 v 1.64331 q 0,0.23254 0.111621,0.33486 0.114721,0.0992 0.378271,0.0992 h 0.697632 v 0.69763 h -0.762744 q -0.781348,0 -1.0573,-0.24804 -0.275952,-0.25115 -0.275952,-0.92708 v -1.5999 h -0.886768 v -0.69763 h 0.886768 v -0.98599 z"
         style="font-weight:bold;font-family:'DejaVu Sans Mono';-inkscape-font-specification:'DejaVu Sans Mono Bold';text-align:start;text-anchor:start;fill:#4d4d4d"
         id="path883" />
      <path
         d="m 67.802731,121.02393 v 0.59221 h -0.465088 q -0.772046,0 -1.035595,-0.22944 -0.26045,-0.22945 -0.26045,-0.91468 v -0.66662 q 0,-0.46819 -0.167431,-0.64492 -0.164331,-0.17984 -0.598413,-0.17984 h -0.192237 v -0.59221 h 0.192237 q 0.434082,0 0.598413,-0.17673 0.167431,-0.17674 0.167431,-0.64803 v -0.66662 q 0,-0.68523 0.26045,-0.91157 0.263549,-0.22945 1.035595,-0.22945 h 0.465088 v 0.58911 h -0.381372 q -0.322461,0 -0.430981,0.13023 -0.108521,0.13022 -0.108521,0.57361 v 0.64802 q 0,0.5116 -0.151929,0.71933 -0.151928,0.20774 -0.542602,0.26665 0.390674,0.0651 0.542602,0.27596 0.151929,0.21084 0.151929,0.71933 v 0.63562 q 0,0.44649 0.108521,0.57671 0.10852,0.13333 0.430981,0.13333 z"
         style="font-weight:bold;font-family:'DejaVu Sans Mono';-inkscape-font-specification:'DejaVu Sans Mono Bold';text-align:start;text-anchor:start;fill:#4d4d4d"
         id="path885" />
      <path
         d="m 12.407664,127.38013 h 1.032495 v 1.13791 h -1.032495 z"
         style="font-weight:bold;font-family:'DejaVu Sans Mono';-inkscape-font-specification:'DejaVu Sans Mono Bold';text-align:start;text-anchor:start;fill:#4d4d4d"
         id="path887" />
      <path
         d="m 16.230686,127.38013 h 1.032495 v 1.13791 h -1.032495 z"
         style="font-weight:bold;font-family:'DejaVu Sans Mono';-inkscape-font-specification:'DejaVu Sans Mono Bold';text-align:start;text-anchor:start;fill:#4d4d4d"
         id="path889" />
      <path
         d="m 20.053709,127.38013 h 1.032495 v 1.13791 h -1.032495 z"
         style="font-weight:bold;font-family:'DejaVu Sans Mono';-inkscape-font-specification:'DejaVu Sans Mono Bold';text-align:start;text-anchor:start;fill:#4d4d4d"
         id="path891" />
      <path
         d="m 11.511595,135.24321 v -2.26032 h 0.908471 v 2.1208 q 0,0.37517 0.10542,0.5364 0.10542,0.16123 0.350367,0.16123 0.244946,0 0.381372,-0.21704 0.139526,-0.21704 0.139526,-0.60772 v -1.99367 h 0.908472 v 3.47265 h -0.908472 v -0.51469 q -0.09612,0.28835 -0.328662,0.44648 -0.229443,0.15813 -0.555005,0.15813 -0.496094,0 -0.750342,-0.32866 -0.251147,-0.32866 -0.251147,-0.97359 z"
         style="fill:#0055d4"
         id="path893" />
      <path
         d="m 15.523752,132.98289 h 1.79834 v 2.77502 h 1.128613 v 0.69763 h -3.168798 v -0.69763 h 1.131714 v -2.07739 h -0.889869 z m 0.889869,-1.68982 h 0.908471 v 1.0604 h -0.908471 z"
         style="fill:#0055d4"
         id="path895" />
      <path
         d="m 21.982273,134.20142 v 2.25412 h -0.90227 v -2.1146 q 0,-0.37827 -0.108521,-0.5395 -0.10542,-0.16433 -0.347265,-0.16433 -0.244947,0 -0.387574,0.22014 -0.139526,0.22014 -0.139526,0.61082 v 1.98747 h -0.90227 v -3.47265 h 0.90227 v 0.5209 q 0.09612,-0.28836 0.328662,-0.44649 0.232544,-0.15813 0.561206,-0.15813 0.492993,0 0.744141,0.32866 0.251147,0.32556 0.251147,0.97359 z"
         style="fill:#0055d4"
         id="path897" />
      <path
         d="m 24.623973,131.9969 v 0.98599 h 1.187524 v 0.69763 h -1.187524 v 1.64331 q 0,0.23254 0.111621,0.33486 0.114722,0.0992 0.378271,0.0992 h 0.697632 v 0.69763 h -0.762744 q -0.781348,0 -1.0573,-0.24804 -0.275952,-0.25115 -0.275952,-0.92708 v -1.5999 h -0.886767 v -0.69763 h 0.886767 v -0.98599 z"
         style="fill:#0055d4"
         id="path899" />
      <path
         d="m 28.009811,134.38435 h -0.489892 v -0.80615 h 0.489892 q 0.341065,0 0.5271,-0.13333 0.189136,-0.13642 0.189136,-0.38137 0,-0.25735 -0.189136,-0.39997 -0.186035,-0.14573 -0.5271,-0.14573 -0.260449,0 -0.558105,0.0651 -0.297657,0.0651 -0.617017,0.18914 v -0.83096 q 0.31936,-0.0961 0.629419,-0.14573 0.310059,-0.0527 0.595313,-0.0527 0.731738,0 1.141015,0.31936 0.409278,0.31936 0.409278,0.88057 0,0.41238 -0.235645,0.67593 -0.235645,0.26045 -0.672827,0.34106 0.496094,0.0868 0.756543,0.39688 0.260449,0.30695 0.260449,0.80925 0,0.67283 -0.430981,1.02629 -0.430982,0.35347 -1.252637,0.35347 -0.350366,0 -0.691431,-0.0589 -0.337964,-0.0589 -0.648022,-0.17053 v -0.84956 q 0.291455,0.14572 0.629419,0.22324 0.337964,0.0744 0.710034,0.0744 0.37207,0 0.589111,-0.17053 0.217041,-0.17363 0.217041,-0.46509 0,-0.35656 -0.217041,-0.5488 -0.217041,-0.19534 -0.613916,-0.19534 z"
         style="fill:#0055d4"
         id="path901" />
      <path
         d="m 31.476267,135.64939 h 1.950268 v 0.80615 H 30.48718 v -0.78134 l 0.496093,-0.5271 q 0.883667,-0.93948 1.072803,-1.15652 0.232544,-0.26665 0.334863,-0.47129 0.10232,-0.20774 0.10232,-0.40928 0,-0.31006 -0.189136,-0.47749 -0.186035,-0.17053 -0.5302,-0.17053 -0.244946,0 -0.551904,0.0992 -0.303858,0.0961 -0.635621,0.28215 v -0.85266 q 0.331763,-0.12092 0.648023,-0.18293 0.31936,-0.0651 0.610815,-0.0651 0.734839,0 1.153418,0.34417 0.42168,0.34106 0.42168,0.93327 0,0.27286 -0.09302,0.5116 -0.08992,0.23875 -0.313159,0.5302 -0.164331,0.21084 -0.90227,0.94878 -0.399976,0.39998 -0.63562,0.63872 z"
         style="fill:#0055d4"
         id="path903" />
      <path
         d="m 37.776658,137.36401 v 0.58912 h -3.823023 v -0.58912 z"
         style="fill:#0055d4"
         id="path905" />
      <path
         d="m 39.91606,131.9969 v 0.98599 h 1.187525 v 0.69763 H 39.91606 v 1.64331 q 0,0.23254 0.111622,0.33486 0.114721,0.0992 0.378271,0.0992 h 0.697632 v 0.69763 h -0.762744 q -0.781348,0 -1.0573,-0.24804 -0.275952,-0.25115 -0.275952,-0.92708 v -1.5999 h -0.886768 v -0.69763 h 0.886768 v -0.98599 z"
         style="fill:#0055d4"
         id="path907" />
      <path
         d="m 54.978708,133.63711 q -0.325561,0 -0.511596,0.28836 -0.186035,0.28525 -0.186035,0.79685 0,0.51159 0.186035,0.79995 0.186035,0.28525 0.511596,0.28525 0.328663,0 0.514698,-0.28525 0.186035,-0.28836 0.186035,-0.79995 0,-0.5116 -0.186035,-0.79685 -0.186035,-0.28836 -0.514698,-0.28836 z m -1.606103,1.08521 q 0,-0.84026 0.434082,-1.33016 0.437183,-0.49299 1.172021,-0.49299 0.73794,0 1.172022,0.49299 0.437183,0.4899 0.437183,1.33016 0,0.84025 -0.437183,1.33325 -0.434082,0.48989 -1.172022,0.48989 -0.734838,0 -1.172021,-0.48989 -0.434082,-0.493 -0.434082,-1.33325 z"
         style="font-weight:bold;font-family:'DejaVu Sans Mono';-inkscape-font-specification:'DejaVu Sans Mono Bold';text-align:start;text-anchor:start;fill:#4d4d4d"
         id="path909" />
      <path
         d="m 59.527266,134.72852 q 0,-0.5023 -0.167431,-0.78755 -0.167432,-0.28526 -0.461987,-0.28526 -0.294556,0 -0.465088,0.28526 -0.170533,0.28525 -0.170533,0.78755 0,0.50229 0.170533,0.78755 0.170532,0.28525 0.465088,0.28525 0.294555,0 0.461987,-0.28525 0.167431,-0.28526 0.167431,-0.78755 z m -1.265039,-1.25264 q 0.167432,-0.28835 0.387574,-0.43098 0.223242,-0.14573 0.502295,-0.14573 0.617016,0 0.948779,0.47129 0.334863,0.47129 0.334863,1.35186 0,0.86816 -0.328662,1.34565 -0.328662,0.47749 -0.923975,0.47749 -0.313159,0 -0.545703,-0.15193 -0.232544,-0.15193 -0.375171,-0.45268 v 0.51469 h -0.905371 v -4.82451 h 0.905371 z"
         style="font-weight:bold;font-family:'DejaVu Sans Mono';-inkscape-font-specification:'DejaVu Sans Mono Bold';text-align:start;text-anchor:start;fill:#4d4d4d"
         id="path911" />
      <path
         d="m 64.537816,137.36401 v 0.58912 h -3.823023 v -0.58912 z"
         style="font-weight:bold;font-family:'DejaVu Sans Mono';-inkscape-font-specification:'DejaVu Sans Mono Bold';text-align:start;text-anchor:start;fill:#4d4d4d"
         id="path913" />
      <path
         d="m 68.106589,133.94097 q -0.148829,-0.13643 -0.350367,-0.20464 -0.198437,-0.0682 -0.437182,-0.0682 -0.288355,0 -0.505396,0.10232 -0.21394,0.0992 -0.331763,0.29145 -0.07441,0.11782 -0.105419,0.28525 -0.02791,0.16744 -0.02791,0.5085 v 1.5999 h -0.908471 v -3.47265 h 0.908471 v 0.5395 q 0.133325,-0.29766 0.409278,-0.45889 0.275952,-0.16433 0.644922,-0.16433 0.186035,0 0.362768,0.0465 0.179834,0.0434 0.341065,0.13022 z"
         style="font-weight:bold;font-family:'DejaVu Sans Mono';-inkscape-font-specification:'DejaVu Sans Mono Bold';text-align:start;text-anchor:start;fill:#4d4d4d"
         id="path915" />
      <path
         d="m 71.777681,136.28501 q -0.31626,0.13023 -0.644922,0.19534 -0.328662,0.0651 -0.694531,0.0651 -0.871265,0 -1.333252,-0.46509 -0.458887,-0.46819 -0.458887,-1.34565 0,-0.84956 0.443384,-1.34256 0.443384,-0.49299 1.209228,-0.49299 0.772046,0 1.196826,0.45889 0.427881,0.45578 0.427881,1.28674 v 0.36897 h -2.353344 q 0.0031,0.40928 0.241845,0.61082 0.238745,0.20153 0.713135,0.20153 0.313159,0 0.617017,-0.0899 0.303857,-0.0899 0.63562,-0.28526 z m -0.768946,-1.95337 q -0.0062,-0.35967 -0.186035,-0.5426 -0.176733,-0.18604 -0.523999,-0.18604 -0.313159,0 -0.499194,0.19224 -0.186035,0.18914 -0.220142,0.5395 z"
         style="font-weight:bold;font-family:'DejaVu Sans Mono';-inkscape-font-specification:'DejaVu Sans Mono Bold';text-align:start;text-anchor:start;fill:#4d4d4d"
         id="path917" />
      <path
         d="m 74.475189,132.67903 v 0.30386 h 1.066602 v 0.69763 h -1.066602 v 2.77502 h -0.908472 v -2.77502 h -0.843359 v -0.69763 h 0.843359 v -0.24185 q 0,-0.62632 0.26045,-0.86816 0.260449,-0.24185 0.967382,-0.24185 h 0.747242 v 0.69763 h -0.710035 q -0.204638,0 -0.279052,0.0744 -0.07131,0.0744 -0.07752,0.27595 z"
         style="font-weight:bold;font-family:'DejaVu Sans Mono';-inkscape-font-specification:'DejaVu Sans Mono Bold';text-align:start;text-anchor:start;fill:#4d4d4d"
         id="path919" />
      <path
         d="m 79.829907,137.36401 v 0.58912 h -3.823022 v -0.58912 z"
         style="font-weight:bold;font-family:'DejaVu Sans Mono';-inkscape-font-specification:'DejaVu Sans Mono Bold';text-align:start;text-anchor:start;fill:#4d4d4d"
         id="path921" />
      <path
         d="m 81.029832,135.00757 v -2.67891 h -0.920874 v -0.69763 h 1.829346 v 3.37654 q 0,0.40928 0.127124,0.57981 0.127124,0.17053 0.430981,0.17053 h 0.725537 v 0.69763 h -0.979785 q -0.648022,0 -0.930175,-0.33486 -0.282154,-0.33486 -0.282154,-1.11311 z"
         style="font-weight:bold;font-family:'DejaVu Sans Mono';-inkscape-font-specification:'DejaVu Sans Mono Bold';text-align:start;text-anchor:start;fill:#4d4d4d"
         id="path923" />
      <path
         d="m 85.562887,133.63711 q -0.325561,0 -0.511596,0.28836 -0.186035,0.28525 -0.186035,0.79685 0,0.51159 0.186035,0.79995 0.186035,0.28525 0.511596,0.28525 0.328662,0 0.514698,-0.28525 0.186035,-0.28836 0.186035,-0.79995 0,-0.5116 -0.186035,-0.79685 -0.186036,-0.28836 -0.514698,-0.28836 z m -1.606103,1.08521 q 0,-0.84026 0.434082,-1.33016 0.437182,-0.49299 1.172021,-0.49299 0.73794,0 1.172022,0.49299 0.437182,0.4899 0.437182,1.33016 0,0.84025 -0.437182,1.33325 -0.434082,0.48989 -1.172022,0.48989 -0.734839,0 -1.172021,-0.48989 -0.434082,-0.493 -0.434082,-1.33325 z"
         style="font-weight:bold;font-family:'DejaVu Sans Mono';-inkscape-font-specification:'DejaVu Sans Mono Bold';text-align:start;text-anchor:start;fill:#4d4d4d"
         id="path925" />
      <path
         d="m 90.765669,136.27881 q -0.229443,0.13333 -0.492993,0.19844 -0.26355,0.0682 -0.567407,0.0682 -0.803052,0 -1.255738,-0.48369 -0.452685,-0.48369 -0.452685,-1.33945 0,-0.85887 0.455786,-1.34256 0.455786,-0.48679 1.258838,-0.48679 0.279053,0 0.536401,0.0651 0.260449,0.0651 0.517798,0.20154 v 0.83096 q -0.198437,-0.17053 -0.437183,-0.26045 -0.235644,-0.093 -0.489892,-0.093 -0.443384,0 -0.682129,0.28215 -0.238745,0.28216 -0.238745,0.80306 0,0.52089 0.238745,0.79995 0.238745,0.27905 0.682129,0.27905 0.26355,0 0.492993,-0.0868 0.229443,-0.0899 0.434082,-0.26975 z"
         style="font-weight:bold;font-family:'DejaVu Sans Mono';-inkscape-font-specification:'DejaVu Sans Mono Bold';text-align:start;text-anchor:start;fill:#4d4d4d"
         id="path927" />
      <path
         d="m 93.469378,134.82464 q -0.508496,0 -0.710034,0.13022 -0.201538,0.13022 -0.201538,0.44648 0,0.23565 0.139527,0.37517 0.139526,0.13953 0.378271,0.13953 0.359668,0 0.558105,-0.26975 0.198438,-0.27285 0.198438,-0.75964 v -0.062 z m 1.265039,-0.35037 v 1.98127 h -0.90227 v -0.38757 q -0.164331,0.22944 -0.42168,0.35347 -0.257348,0.12402 -0.567407,0.12402 -0.592212,0 -0.923975,-0.31316 -0.328662,-0.31316 -0.328662,-0.87436 0,-0.60772 0.393775,-0.89607 0.393774,-0.29146 1.21853,-0.29146 h 0.629419 v -0.15193 q 0,-0.22014 -0.16123,-0.33176 -0.15813,-0.11472 -0.468189,-0.11472 -0.325561,0 -0.632519,0.0837 -0.303858,0.0806 -0.635621,0.26045 v -0.77514 q 0.300757,-0.12403 0.610816,-0.18294 0.310058,-0.0589 0.657324,-0.0589 0.84646,0 1.187524,0.34417 0.344165,0.34416 0.344165,1.23093 z"
         style="font-weight:bold;font-family:'DejaVu Sans Mono';-inkscape-font-specification:'DejaVu Sans Mono Bold';text-align:start;text-anchor:start;fill:#4d4d4d"
         id="path929" />
      <path
         d="m 96.321916,135.00757 v -2.67891 h -0.920874 v -0.69763 h 1.829346 v 3.37654 q 0,0.40928 0.127124,0.57981 0.127124,0.17053 0.430981,0.17053 h 0.725537 v 0.69763 h -0.979785 q -0.648022,0 -0.930176,-0.33486 -0.282153,-0.33486 -0.282153,-1.11311 z"
         style="font-weight:bold;font-family:'DejaVu Sans Mono';-inkscape-font-specification:'DejaVu Sans Mono Bold';text-align:start;text-anchor:start;fill:#4d4d4d"
         id="path931" />
      <path
         d="m 100.33718,135.31763 h 1.0325 v 0.84026 l -0.60772,1.18752 h -0.66662 l 0.24184,-1.18752 z m 0,-2.15801 h 1.0325 v 1.13171 h -1.0325 z"
         style="font-weight:bold;font-family:'DejaVu Sans Mono';-inkscape-font-specification:'DejaVu Sans Mono Bold';text-align:start;text-anchor:start;fill:#4d4d4d"
         id="path933" />
      <path
         d="m 12.432469,140.53281 v 1.35806 h 0.375171 q 0.449585,0 0.629419,-0.15193 0.182934,-0.15193 0.182934,-0.5271 0,-0.37517 -0.182934,-0.5271 -0.179834,-0.15193 -0.629419,-0.15193 z m -0.914673,-0.76894 h 1.255737 q 0.958081,0 1.37666,0.34106 0.42168,0.34107 0.42168,1.10691 0,0.76585 -0.42168,1.10691 -0.418579,0.34107 -1.37666,0.34107 h -0.341064 v 1.73322 h -0.914673 z"
         style="fill:#0055d4"
         id="path935" />
      <path
         d="m 17.043039,144.76821 q -0.182934,0.4899 -0.440283,0.71314 -0.254248,0.22634 -0.620117,0.22634 h -0.750342 v -0.69143 h 0.36897 q 0.279053,0 0.409277,-0.0961 0.130225,-0.093 0.26355,-0.43718 l 0.06821,-0.18604 -1.32085,-3.37653 h 0.954981 l 0.79375,2.25412 0.759643,-2.25412 h 0.954981 z"
         style="fill:#0055d4"
         id="path937" />
      <path
         d="m 22.484568,145.30151 v 0.58912 h -3.823022 v -0.58912 z"
         style="fill:#0055d4"
         id="path939" />
      <path
         d="m 25.557249,141.02891 v 0.79375 q -0.251147,-0.16123 -0.523999,-0.24185 -0.269751,-0.0837 -0.542602,-0.0837 -0.303858,0 -0.458887,0.0899 -0.155029,0.0868 -0.155029,0.26045 0,0.24805 0.663525,0.40308 l 0.03411,0.009 0.26045,0.062 q 0.496093,0.11782 0.725537,0.38137 0.232544,0.26045 0.232544,0.70694 0,0.5364 -0.353467,0.80615 -0.350366,0.26665 -1.0573,0.26665 -0.313159,0 -0.641821,-0.0558 -0.328662,-0.0527 -0.666626,-0.16123 v -0.79375 q 0.300757,0.17053 0.610815,0.26045 0.31316,0.0899 0.604615,0.0899 0.31936,0 0.483691,-0.093 0.164331,-0.093 0.164331,-0.26975 0,-0.17364 -0.117822,-0.26665 -0.114722,-0.093 -0.551905,-0.19844 l -0.251147,-0.0558 q -0.520898,-0.11782 -0.759644,-0.36897 -0.238745,-0.25115 -0.238745,-0.67283 0,-0.50229 0.362769,-0.78135 0.362768,-0.27905 1.020093,-0.27905 0.294555,0 0.58601,0.0496 0.294556,0.0465 0.570508,0.14263 z"
         style="fill:#0055d4"
         id="path941" />
      <path
         d="m 29.38027,141.02891 v 0.79375 q -0.251147,-0.16123 -0.523999,-0.24185 -0.269751,-0.0837 -0.542602,-0.0837 -0.303858,0 -0.458887,0.0899 -0.155029,0.0868 -0.155029,0.26045 0,0.24805 0.663525,0.40308 l 0.03411,0.009 0.26045,0.062 q 0.496093,0.11782 0.725537,0.38137 0.232544,0.26045 0.232544,0.70694 0,0.5364 -0.353467,0.80615 -0.350366,0.26665 -1.0573,0.26665 -0.313159,0 -0.641821,-0.0558 -0.328662,-0.0527 -0.666626,-0.16123 v -0.79375 q 0.300757,0.17053 0.610815,0.26045 0.313159,0.0899 0.604615,0.0899 0.31936,0 0.483691,-0.093 0.164331,-0.093 0.164331,-0.26975 0,-0.17364 -0.117822,-0.26665 -0.114722,-0.093 -0.551905,-0.19844 l -0.251147,-0.0558 q -0.520898,-0.11782 -0.759644,-0.36897 -0.238745,-0.25115 -0.238745,-0.67283 0,-0.50229 0.362769,-0.78135 0.362768,-0.27905 1.020093,-0.27905 0.294555,0 0.58601,0.0496 0.294556,0.0465 0.570508,0.14263 z"
         style="fill:#0055d4"
         id="path943" />
      <path
         d="m 30.815842,140.92039 h 1.79834 v 2.77502 h 1.128613 v 0.69763 h -3.168799 v -0.69763 h 1.131714 v -2.07739 h -0.889868 z m 0.889868,-1.68982 h 0.908472 v 1.0604 H 31.70571 Z"
         style="fill:#0055d4"
         id="path945" />
      <path
         d="m 34.530344,140.92039 h 2.775025 v 0.71003 l -1.826246,2.08359 h 1.826246 v 0.67903 H 34.45593 v -0.71003 l 1.829346,-2.08359 h -1.754932 z"
         style="fill:#0055d4"
         id="path947" />
      <path
         d="m 41.193502,144.22251 q -0.31626,0.13023 -0.644922,0.19534 -0.328662,0.0651 -0.694531,0.0651 -0.871265,0 -1.333252,-0.46509 -0.458887,-0.46819 -0.458887,-1.34565 0,-0.84956 0.443384,-1.34256 0.443384,-0.49299 1.209228,-0.49299 0.772046,0 1.196826,0.45889 0.427881,0.45578 0.427881,1.28674 v 0.36897 h -2.353344 q 0.0031,0.40928 0.241845,0.61082 0.238745,0.20153 0.713135,0.20153 0.313159,0 0.617017,-0.0899 0.303857,-0.0899 0.63562,-0.28526 z m -0.768945,-1.95337 q -0.0062,-0.35967 -0.186036,-0.5426 -0.176733,-0.18604 -0.523999,-0.18604 -0.313159,0 -0.499194,0.19224 -0.186035,0.18914 -0.220142,0.5395 z"
         style="fill:#0055d4"
         id="path949" />
      <path
         d="m 45.422703,145.30151 v 0.58912 h -3.823022 v -0.58912 z"
         style="fill:#0055d4"
         id="path951" />
      <path
         d="m 47.562106,139.9344 v 0.98599 h 1.187524 v 0.69763 h -1.187524 v 1.64331 q 0,0.23254 0.111621,0.33486 0.114722,0.0992 0.378272,0.0992 h 0.697631 v 0.69763 h -0.762744 q -0.781347,0 -1.057299,-0.24804 -0.275953,-0.25115 -0.275953,-0.92708 v -1.5999 h -0.886767 v -0.69763 h 0.886767 v -0.98599 z"
         style="fill:#0055d4"
         id="path953" />
      <path
         d="m 54.978708,141.57461 q -0.325561,0 -0.511596,0.28836 -0.186035,0.28525 -0.186035,0.79685 0,0.51159 0.186035,0.79995 0.186035,0.28525 0.511596,0.28525 0.328663,0 0.514698,-0.28525 0.186035,-0.28836 0.186035,-0.79995 0,-0.5116 -0.186035,-0.79685 -0.186035,-0.28836 -0.514698,-0.28836 z m -1.606103,1.08521 q 0,-0.84026 0.434082,-1.33016 0.437183,-0.49299 1.172021,-0.49299 0.73794,0 1.172022,0.49299 0.437183,0.4899 0.437183,1.33016 0,0.84025 -0.437183,1.33325 -0.434082,0.48989 -1.172022,0.48989 -0.734838,0 -1.172021,-0.48989 -0.434082,-0.493 -0.434082,-1.33325 z"
         style="font-weight:bold;font-family:'DejaVu Sans Mono';-inkscape-font-specification:'DejaVu Sans Mono Bold';text-align:start;text-anchor:start;fill:#4d4d4d"
         id="path955" />
      <path
         d="m 59.527266,142.66602 q 0,-0.5023 -0.167431,-0.78755 -0.167432,-0.28526 -0.461987,-0.28526 -0.294556,0 -0.465088,0.28526 -0.170533,0.28525 -0.170533,0.78755 0,0.50229 0.170533,0.78755 0.170532,0.28525 0.465088,0.28525 0.294555,0 0.461987,-0.28525 0.167431,-0.28526 0.167431,-0.78755 z m -1.265039,-1.25264 q 0.167432,-0.28835 0.387574,-0.43098 0.223242,-0.14573 0.502295,-0.14573 0.617016,0 0.948779,0.47129 0.334863,0.47129 0.334863,1.35186 0,0.86816 -0.328662,1.34565 -0.328662,0.47749 -0.923975,0.47749 -0.313159,0 -0.545703,-0.15193 -0.232544,-0.15193 -0.375171,-0.45268 v 0.51469 h -0.905371 v -4.82451 h 0.905371 z"
         style="font-weight:bold;font-family:'DejaVu Sans Mono';-inkscape-font-specification:'DejaVu Sans Mono Bold';text-align:start;text-anchor:start;fill:#4d4d4d"
         id="path957" />
      <path
         d="m 64.537816,145.30151 v 0.58912 h -3.823023 v -0.58912 z"
         style="font-weight:bold;font-family:'DejaVu Sans Mono';-inkscape-font-specification:'DejaVu Sans Mono Bold';text-align:start;text-anchor:start;fill:#4d4d4d"
         id="path959" />
      <path
         d="m 68.106589,141.87847 q -0.148829,-0.13643 -0.350367,-0.20464 -0.198437,-0.0682 -0.437182,-0.0682 -0.288355,0 -0.505396,0.10232 -0.21394,0.0992 -0.331763,0.29145 -0.07441,0.11782 -0.105419,0.28525 -0.02791,0.16744 -0.02791,0.5085 v 1.5999 h -0.908471 v -3.47265 h 0.908471 v 0.5395 q 0.133325,-0.29766 0.409278,-0.45889 0.275952,-0.16433 0.644922,-0.16433 0.186035,0 0.362768,0.0465 0.179834,0.0434 0.341065,0.13022 z"
         style="font-weight:bold;font-family:'DejaVu Sans Mono';-inkscape-font-specification:'DejaVu Sans Mono Bold';text-align:start;text-anchor:start;fill:#4d4d4d"
         id="path961" />
      <path
         d="m 71.777681,144.22251 q -0.31626,0.13023 -0.644922,0.19534 -0.328662,0.0651 -0.694531,0.0651 -0.871265,0 -1.333252,-0.46509 -0.458887,-0.46819 -0.458887,-1.34565 0,-0.84956 0.443384,-1.34256 0.443384,-0.49299 1.209228,-0.49299 0.772046,0 1.196826,0.45889 0.427881,0.45578 0.427881,1.28674 v 0.36897 h -2.353344 q 0.0031,0.40928 0.241845,0.61082 0.238745,0.20153 0.713135,0.20153 0.313159,0 0.617017,-0.0899 0.303857,-0.0899 0.63562,-0.28526 z m -0.768946,-1.95337 q -0.0062,-0.35967 -0.186035,-0.5426 -0.176733,-0.18604 -0.523999,-0.18604 -0.313159,0 -0.499194,0.19224 -0.186035,0.18914 -0.220142,0.5395 z"
         style="font-weight:bold;font-family:'DejaVu Sans Mono';-inkscape-font-specification:'DejaVu Sans Mono Bold';text-align:start;text-anchor:start;fill:#4d4d4d"
         id="path963" />
      <path
         d="m 74.475189,140.61653 v 0.30386 h 1.066602 v 0.69763 h -1.066602 v 2.77502 h -0.908472 v -2.77502 h -0.843359 v -0.69763 h 0.843359 v -0.24185 q 0,-0.62632 0.26045,-0.86816 0.260449,-0.24185 0.967382,-0.24185 h 0.747242 v 0.69763 h -0.710035 q -0.204638,0 -0.279052,0.0744 -0.07131,0.0744 -0.07752,0.27595 z"
         style="font-weight:bold;font-family:'DejaVu Sans Mono';-inkscape-font-specification:'DejaVu Sans Mono Bold';text-align:start;text-anchor:start;fill:#4d4d4d"
         id="path965" />
      <path
         d="m 79.829907,145.30151 v 0.58912 h -3.823022 v -0.58912 z"
         style="font-weight:bold;font-family:'DejaVu Sans Mono';-inkscape-font-specification:'DejaVu Sans Mono Bold';text-align:start;text-anchor:start;fill:#4d4d4d"
         id="path967" />
      <path
         d="m 82.902586,141.02891 v 0.79375 q -0.251147,-0.16123 -0.523999,-0.24185 -0.269751,-0.0837 -0.542602,-0.0837 -0.303858,0 -0.458887,0.0899 -0.155029,0.0868 -0.155029,0.26045 0,0.24805 0.663525,0.40308 l 0.03411,0.009 0.26045,0.062 q 0.496093,0.11782 0.725537,0.38137 0.232544,0.26045 0.232544,0.70694 0,0.5364 -0.353467,0.80615 -0.350366,0.26665 -1.0573,0.26665 -0.313159,0 -0.641821,-0.0558 -0.328662,-0.0527 -0.666626,-0.16123 v -0.79375 q 0.300757,0.17053 0.610815,0.26045 0.313159,0.0899 0.604614,0.0899 0.319361,0 0.483692,-0.093 0.164331,-0.093 0.164331,-0.26975 0,-0.17364 -0.117822,-0.26665 -0.114722,-0.093 -0.551905,-0.19844 l -0.251147,-0.0558 q -0.520898,-0.11782 -0.759644,-0.36897 -0.238745,-0.25115 -0.238745,-0.67283 0,-0.50229 0.362769,-0.78135 0.362768,-0.27905 1.020093,-0.27905 0.294555,0 0.58601,0.0496 0.294556,0.0465 0.570508,0.14263 z"
         style="font-weight:bold;font-family:'DejaVu Sans Mono';-inkscape-font-specification:'DejaVu Sans Mono Bold';text-align:start;text-anchor:start;fill:#4d4d4d"
         id="path969" />
      <path
         d="m 86.973654,142.13892 v 2.25412 h -0.902271 v -2.1146 q 0,-0.37517 -0.10852,-0.5364 -0.10542,-0.16123 -0.347266,-0.16123 -0.248047,0 -0.387573,0.22014 -0.139526,0.21704 -0.139526,0.60462 v 1.98747 h -0.902271 v -4.82451 h 0.902271 v 1.87276 q 0.09612,-0.28836 0.328662,-0.44649 0.232544,-0.15813 0.561206,-0.15813 0.492993,0 0.74414,0.32866 0.251148,0.32556 0.251148,0.97359 z"
         style="font-weight:bold;font-family:'DejaVu Sans Mono';-inkscape-font-specification:'DejaVu Sans Mono Bold';text-align:start;text-anchor:start;fill:#4d4d4d"
         id="path971" />
      <path
         d="m 89.646358,142.76213 q -0.508497,0 -0.710035,0.13023 -0.201538,0.13022 -0.201538,0.44648 0,0.23565 0.139527,0.37517 0.139526,0.13953 0.378271,0.13953 0.359668,0 0.558106,-0.26975 0.198437,-0.27285 0.198437,-0.75964 v -0.062 z m 1.265039,-0.35036 v 1.98127 h -0.902271 v -0.38757 q -0.164331,0.22944 -0.42168,0.35347 -0.257348,0.12402 -0.567407,0.12402 -0.592212,0 -0.923974,-0.31316 -0.328663,-0.31316 -0.328663,-0.87436 0,-0.60772 0.393775,-0.89607 0.393774,-0.29146 1.21853,-0.29146 h 0.629419 v -0.15193 q 0,-0.22014 -0.16123,-0.33176 -0.15813,-0.11472 -0.468189,-0.11472 -0.325561,0 -0.632519,0.0837 -0.303858,0.0806 -0.635621,0.26045 v -0.77514 q 0.300757,-0.12403 0.610816,-0.18294 0.310058,-0.0589 0.657324,-0.0589 0.84646,0 1.187525,0.34417 0.344165,0.34416 0.344165,1.23093 z"
         style="font-weight:bold;font-family:'DejaVu Sans Mono';-inkscape-font-specification:'DejaVu Sans Mono Bold';text-align:start;text-anchor:start;fill:#4d4d4d"
         id="path973" />
      <path
         d="m 94.867743,141.87847 q -0.148828,-0.13643 -0.350367,-0.20464 -0.198437,-0.0682 -0.437182,-0.0682 -0.288355,0 -0.505396,0.10232 -0.21394,0.0992 -0.331762,0.29145 -0.07441,0.11782 -0.10542,0.28525 -0.02791,0.16744 -0.02791,0.5085 v 1.5999 h -0.908471 v -3.47265 h 0.908471 v 0.5395 q 0.133326,-0.29766 0.409278,-0.45889 0.275952,-0.16433 0.644922,-0.16433 0.186035,0 0.362768,0.0465 0.179834,0.0434 0.341065,0.13022 z"
         style="font-weight:bold;font-family:'DejaVu Sans Mono';-inkscape-font-specification:'DejaVu Sans Mono Bold';text-align:start;text-anchor:start;fill:#4d4d4d"
         id="path975" />
      <path
         d="m 98.538835,144.22251 q -0.31626,0.13023 -0.644922,0.19534 -0.328662,0.0651 -0.694531,0.0651 -0.871265,0 -1.333252,-0.46509 -0.458887,-0.46819 -0.458887,-1.34565 0,-0.84956 0.443384,-1.34256 0.443384,-0.49299 1.209228,-0.49299 0.772046,0 1.196827,0.45889 0.42788,0.45578 0.42788,1.28674 v 0.36897 h -2.353344 q 0.0031,0.40928 0.241845,0.61082 0.238746,0.20153 0.713135,0.20153 0.313159,0 0.617017,-0.0899 0.303857,-0.0899 0.63562,-0.28526 z m -0.768945,-1.95337 q -0.0062,-0.35967 -0.186036,-0.5426 -0.176733,-0.18604 -0.523999,-0.18604 -0.313159,0 -0.499194,0.19224 -0.186035,0.18914 -0.220141,0.5395 z"
         style="font-weight:bold;font-family:'DejaVu Sans Mono';-inkscape-font-specification:'DejaVu Sans Mono Bold';text-align:start;text-anchor:start;fill:#4d4d4d"
         id="path977" />
      <path
         d="m 101.39758,141.41338 v -1.84485 h 0.90537 v 4.82451 h -0.90537 v -0.51469 q -0.14573,0.30075 -0.37827,0.45268 -0.22944,0.15193 -0.5426,0.15193 -0.595315,0 -0.923977,-0.47749 -0.328662,-0.47749 -0.328662,-1.34565 0,-0.88057 0.331762,-1.35186 0.334864,-0.47129 0.951877,-0.47129 0.27906,0 0.4992,0.14573 0.22324,0.14263 0.39067,0.43098 z m -1.26504,1.25264 q 0,0.50229 0.16743,0.78755 0.16744,0.28525 0.46199,0.28525 0.29456,0 0.46509,-0.28525 0.17053,-0.28526 0.17053,-0.78755 0,-0.5023 -0.17053,-0.78755 -0.17053,-0.28526 -0.46509,-0.28526 -0.29455,0 -0.46199,0.28526 -0.16743,0.28525 -0.16743,0.78755 z"
         style="font-weight:bold;font-family:'DejaVu Sans Mono';-inkscape-font-specification:'DejaVu Sans Mono Bold';text-align:start;text-anchor:start;fill:#4d4d4d"
         id="path979" />
      <path
         d="m 104.1602,143.25513 h 1.0325 v 0.84026 l -0.60772,1.18752 h -0.66662 l 0.24184,-1.18752 z m 0,-2.15801 h 1.0325 v 1.13171 h -1.0325 z"
         style="font-weight:bold;font-family:'DejaVu Sans Mono';-inkscape-font-specification:'DejaVu Sans Mono Bold';text-align:start;text-anchor:start;fill:#4d4d4d"
         id="path981" />
      <path
         d="m 12.407664,151.19263 h 1.032495 v 1.13791 h -1.032495 z"
         style="font-weight:bold;font-family:'DejaVu Sans Mono';-inkscape-font-specification:'DejaVu Sans Mono Bold';text-align:start;text-anchor:start;fill:#4d4d4d"
         id="path983" />
      <path
         d="m 16.230686,151.19263 h 1.032495 v 1.13791 h -1.032495 z"
         style="font-weight:bold;font-family:'DejaVu Sans Mono';-inkscape-font-specification:'DejaVu Sans Mono Bold';text-align:start;text-anchor:start;fill:#4d4d4d"
         id="path985" />
      <path
         d="m 20.053709,151.19263 h 1.032495 v 1.13791 h -1.032495 z"
         style="font-weight:bold;font-family:'DejaVu Sans Mono';-inkscape-font-specification:'DejaVu Sans Mono Bold';text-align:start;text-anchor:start;fill:#4d4d4d"
         id="path987" />
      <path
         d="m 3.9275618,160.71143 h 0.3751708 q 0.322461,0 0.4340821,-0.13333 0.1116211,-0.13332 0.1116211,-0.57671 v -0.63562 q 0,-0.50849 0.1519287,-0.71933 0.1519287,-0.21084 0.5395019,-0.27596 -0.3906738,-0.0589 -0.5426025,-0.26665 -0.1488281,-0.20774 -0.1488281,-0.71933 v -0.64802 q 0,-0.43719 -0.1116211,-0.57051 -0.1085205,-0.13333 -0.4340821,-0.13333 H 3.9275618 v -0.58911 h 0.4650878 q 0.7689453,0 1.026294,0.22944 0.2604492,0.22635 0.2604492,0.91158 v 0.66662 q 0,0.46819 0.1674316,0.64803 0.1705322,0.17673 0.6077149,0.17673 h 0.1922363 v 0.59221 H 6.4545393 q -0.4371827,0 -0.6077149,0.17983 -0.1674316,0.17984 -0.1674316,0.64493 v 0.66662 q 0,0.68523 -0.2604492,0.91468 -0.2573487,0.22944 -1.026294,0.22944 H 3.9275618 Z"
         style="font-weight:bold;font-family:'DejaVu Sans Mono';-inkscape-font-specification:'DejaVu Sans Mono Bold';text-align:start;text-anchor:start;fill:#4d4d4d"
         id="path989" />
      <path
         d="m 8.5846417,159.13013 h 1.0324951 v 0.84026 L 9.009422,161.15791 H 8.342796 l 0.2418457,-1.18752 z m 0,-2.15801 h 1.0324951 v 1.13171 H 8.5846417 Z"
         style="font-weight:bold;font-family:'DejaVu Sans Mono';-inkscape-font-specification:'DejaVu Sans Mono Bold';text-align:start;text-anchor:start;fill:#4d4d4d"
         id="path991" />
    </g>
    <ellipse
       style="font-variation-settings:normal;opacity:1;fill:#fff6d5;fill-opacity:1;fill-rule:evenodd;stroke:#000000;stroke-width:0.5;stroke-linecap:butt;stroke-linejoin:miter;stroke-miterlimit:4;stroke-dasharray:none;stroke-dashoffset:0;stroke-opacity:1;stop-color:#000000;stop-opacity:1"
       id="path87350"
       cx="169.99622"
       cy="113.2676"
       rx="51.026093"
       ry="12.756523" />
    <ellipse
       style="font-variation-settings:normal;opacity:1;fill:#ffd5f6;fill-opacity:1;fill-rule:evenodd;stroke:#000000;stroke-width:0.5;stroke-linecap:butt;stroke-linejoin:miter;stroke-miterlimit:4;stroke-dasharray:none;stroke-dashoffset:0;stroke-opacity:1;stop-color:#000000;stop-opacity:1"
       id="ellipse87432"
       cx="169.99622"
       cy="163.43852"
       rx="51.026093"
       ry="12.756523" />
    <g
       aria-label="local reference counter,
freely mutated by thread"
       id="text78240"
       style="font-size:6.35px;line-height:1.25;font-family:'DejaVu Sans';-inkscape-font-specification:'DejaVu Sans';text-align:center;text-anchor:middle;stroke-width:0.264583">
      <path
         d="m 133.00777,106.22617 h 0.57051 v 4.82451 h -0.57051 z"
         id="path994" />
      <path
         d="m 136.11766,107.978 q -0.45889,0 -0.72554,0.35967 -0.26665,0.35657 -0.26665,0.97978 0,0.62322 0.26355,0.98289 0.26665,0.35657 0.72864,0.35657 0.45578,0 0.72243,-0.35967 0.26665,-0.35967 0.26665,-0.97979 0,-0.61701 -0.26665,-0.97668 -0.26665,-0.36277 -0.72243,-0.36277 z m 0,-0.48369 q 0.74414,0 1.16892,0.48369 0.42478,0.48369 0.42478,1.33945 0,0.85267 -0.42478,1.33946 -0.42478,0.48369 -1.16892,0.48369 -0.74724,0 -1.17202,-0.48369 -0.42168,-0.48679 -0.42168,-1.33946 0,-0.85576 0.42168,-1.33945 0.42478,-0.48369 1.17202,-0.48369 z"
         id="path996" />
      <path
         d="m 141.15611,107.71135 v 0.5333 q -0.24185,-0.13332 -0.48679,-0.19844 -0.24185,-0.0682 -0.48989,-0.0682 -0.55501,0 -0.86197,0.35347 -0.30696,0.35036 -0.30696,0.98598 0,0.63562 0.30696,0.98909 0.30696,0.35037 0.86197,0.35037 0.24804,0 0.48989,-0.0651 0.24494,-0.0682 0.48679,-0.20154 v 0.5271 q -0.23875,0.11162 -0.49609,0.16743 -0.25425,0.0558 -0.54261,0.0558 -0.78444,0 -1.24643,-0.49299 -0.46199,-0.493 -0.46199,-1.33016 0,-0.84956 0.46509,-1.33635 0.46819,-0.48679 1.28054,-0.48679 0.26355,0 0.5147,0.0558 0.25115,0.0527 0.48679,0.16123 z"
         id="path998" />
      <path
         d="m 143.7265,109.30505 q -0.69143,0 -0.95808,0.15813 -0.26666,0.15813 -0.26666,0.5395 0,0.30386 0.19844,0.4837 0.20154,0.17673 0.54571,0.17673 0.47439,0 0.75964,-0.33486 0.28835,-0.33797 0.28835,-0.89607 v -0.12713 z m 1.13791,-0.23564 v 1.98127 h -0.57051 v -0.5271 q -0.19533,0.31626 -0.48679,0.46819 -0.29145,0.14883 -0.71313,0.14883 -0.5333,0 -0.84956,-0.29766 -0.31316,-0.30075 -0.31316,-0.80305 0,-0.58601 0.39067,-0.88367 0.39378,-0.29765 1.17202,-0.29765 h 0.79995 v -0.0558 q 0,-0.39378 -0.26045,-0.60772 -0.25734,-0.21704 -0.72553,-0.21704 -0.29766,0 -0.57981,0.0713 -0.28216,0.0713 -0.5426,0.21395 v -0.5271 q 0.31315,-0.12093 0.60771,-0.17984 0.29456,-0.062 0.57361,-0.062 0.75344,0 1.12551,0.39067 0.37207,0.39068 0.37207,1.18443 z"
         id="path1000" />
      <path
         d="m 146.03953,106.22617 h 0.57051 v 4.82451 h -0.57051 z"
         id="path1002" />
      <path
         d="m 151.83453,108.11133 q -0.0961,-0.0558 -0.21084,-0.0806 -0.11162,-0.0279 -0.24805,-0.0279 -0.48369,0 -0.74414,0.31626 -0.25735,0.31316 -0.25735,0.90227 v 1.82934 h -0.57361 v -3.47265 h 0.57361 v 0.5395 q 0.17984,-0.31626 0.46819,-0.46819 0.28836,-0.15503 0.70073,-0.15503 0.0589,0 0.13023,0.009 0.0713,0.006 0.15813,0.0217 z"
         id="path1004" />
      <path
         d="m 155.26378,109.17173 v 0.27905 h -2.6231 q 0.0372,0.58911 0.35347,0.89917 0.31936,0.30696 0.88676,0.30696 0.32867,0 0.63562,-0.0806 0.31006,-0.0806 0.61392,-0.24184 v 0.5395 q -0.30696,0.13022 -0.62942,0.19844 -0.32246,0.0682 -0.65422,0.0682 -0.83096,0 -1.31775,-0.48369 -0.48369,-0.48369 -0.48369,-1.30845 0,-0.85266 0.45888,-1.35186 0.46199,-0.50229 1.24334,-0.50229 0.70073,0 1.10691,0.45269 0.40928,0.44958 0.40928,1.22473 z m -0.57051,-0.16743 q -0.006,-0.46819 -0.26355,-0.74725 -0.25425,-0.27905 -0.67593,-0.27905 -0.47749,0 -0.76584,0.26975 -0.28526,0.26975 -0.32867,0.75965 z"
         id="path1006" />
      <path
         d="m 157.95819,106.22617 v 0.47439 h -0.54571 q -0.30696,0 -0.42788,0.12402 -0.11782,0.12403 -0.11782,0.44649 v 0.30696 h 0.93948 v 0.44338 h -0.93948 v 3.02927 h -0.57361 v -3.02927 h -0.5457 v -0.44338 h 0.5457 v -0.24185 q 0,-0.57981 0.26975,-0.84336 0.26975,-0.26665 0.85576,-0.26665 z"
         id="path1008" />
      <path
         d="m 161.40604,109.17173 v 0.27905 h -2.6231 q 0.0372,0.58911 0.35347,0.89917 0.31936,0.30696 0.88677,0.30696 0.32866,0 0.63562,-0.0806 0.31006,-0.0806 0.61391,-0.24184 v 0.5395 q -0.30696,0.13022 -0.62942,0.19844 -0.32246,0.0682 -0.65422,0.0682 -0.83096,0 -1.31775,-0.48369 -0.48369,-0.48369 -0.48369,-1.30845 0,-0.85266 0.45889,-1.35186 0.46198,-0.50229 1.24333,-0.50229 0.70073,0 1.10691,0.45269 0.40928,0.44958 0.40928,1.22473 z m -0.57051,-0.16743 q -0.006,-0.46819 -0.26355,-0.74725 -0.25425,-0.27905 -0.67593,-0.27905 -0.47749,0 -0.76584,0.26975 -0.28526,0.26975 -0.32866,0.75965 z"
         id="path1010" />
      <path
         d="m 164.35469,108.11133 q -0.0961,-0.0558 -0.21083,-0.0806 -0.11163,-0.0279 -0.24805,-0.0279 -0.48369,0 -0.74414,0.31626 -0.25735,0.31316 -0.25735,0.90227 v 1.82934 h -0.57361 v -3.47265 h 0.57361 v 0.5395 q 0.17983,-0.31626 0.46819,-0.46819 0.28835,-0.15503 0.70073,-0.15503 0.0589,0 0.13022,0.009 0.0713,0.006 0.15813,0.0217 z"
         id="path1012" />
      <path
         d="m 167.78394,109.17173 v 0.27905 h -2.62309 q 0.0372,0.58911 0.35346,0.89917 0.31936,0.30696 0.88677,0.30696 0.32866,0 0.63562,-0.0806 0.31006,-0.0806 0.61392,-0.24184 v 0.5395 q -0.30696,0.13022 -0.62942,0.19844 -0.32246,0.0682 -0.65423,0.0682 -0.83095,0 -1.31774,-0.48369 -0.4837,-0.48369 -0.4837,-1.30845 0,-0.85266 0.45889,-1.35186 0.46199,-0.50229 1.24334,-0.50229 0.70073,0 1.10691,0.45269 0.40927,0.44958 0.40927,1.22473 z m -0.57051,-0.16743 q -0.006,-0.46819 -0.26355,-0.74725 -0.25424,-0.27905 -0.67592,-0.27905 -0.47749,0 -0.76585,0.26975 -0.28525,0.26975 -0.32866,0.75965 z"
         id="path1014" />
      <path
         d="m 171.60696,108.95469 v 2.09599 h -0.5705 v -2.07739 q 0,-0.49299 -0.19224,-0.73794 -0.19224,-0.24495 -0.57671,-0.24495 -0.46199,0 -0.72864,0.29456 -0.26665,0.29456 -0.26665,0.80305 v 1.96267 h -0.57361 v -3.47265 h 0.57361 v 0.5395 q 0.20464,-0.31316 0.48059,-0.46819 0.27906,-0.15503 0.64182,-0.15503 0.59842,0 0.90538,0.37207 0.30695,0.36897 0.30695,1.08831 z"
         id="path1016" />
      <path
         d="m 175.24395,107.71135 v 0.5333 q -0.24184,-0.13332 -0.48679,-0.19844 -0.24184,-0.0682 -0.48989,-0.0682 -0.55501,0 -0.86196,0.35347 -0.30696,0.35036 -0.30696,0.98598 0,0.63562 0.30696,0.98909 0.30695,0.35037 0.86196,0.35037 0.24805,0 0.48989,-0.0651 0.24495,-0.0682 0.48679,-0.20154 v 0.5271 q -0.23874,0.11162 -0.49609,0.16743 -0.25425,0.0558 -0.5426,0.0558 -0.78445,0 -1.24644,-0.49299 -0.46199,-0.493 -0.46199,-1.33016 0,-0.84956 0.46509,-1.33635 0.46819,-0.48679 1.28054,-0.48679 0.26355,0 0.5147,0.0558 0.25115,0.0527 0.48679,0.16123 z"
         id="path1018" />
      <path
         d="m 179.2065,109.17173 v 0.27905 h -2.62309 q 0.0372,0.58911 0.35346,0.89917 0.31936,0.30696 0.88677,0.30696 0.32866,0 0.63562,-0.0806 0.31006,-0.0806 0.61392,-0.24184 v 0.5395 q -0.30696,0.13022 -0.62942,0.19844 -0.32246,0.0682 -0.65423,0.0682 -0.83095,0 -1.31774,-0.48369 -0.4837,-0.48369 -0.4837,-1.30845 0,-0.85266 0.45889,-1.35186 0.46199,-0.50229 1.24334,-0.50229 0.70073,0 1.1069,0.45269 0.40928,0.44958 0.40928,1.22473 z m -0.57051,-0.16743 q -0.006,-0.46819 -0.26355,-0.74725 -0.25424,-0.27905 -0.67592,-0.27905 -0.47749,0 -0.76585,0.26975 -0.28525,0.26975 -0.32866,0.75965 z"
         id="path1020" />
      <path
         d="m 184.66043,107.71135 v 0.5333 q -0.24185,-0.13332 -0.48679,-0.19844 -0.24185,-0.0682 -0.48989,-0.0682 -0.55501,0 -0.86197,0.35347 -0.30696,0.35036 -0.30696,0.98598 0,0.63562 0.30696,0.98909 0.30696,0.35037 0.86197,0.35037 0.24804,0 0.48989,-0.0651 0.24494,-0.0682 0.48679,-0.20154 v 0.5271 q -0.23875,0.11162 -0.49609,0.16743 -0.25425,0.0558 -0.54261,0.0558 -0.78444,0 -1.24643,-0.49299 -0.46199,-0.493 -0.46199,-1.33016 0,-0.84956 0.46509,-1.33635 0.46819,-0.48679 1.28054,-0.48679 0.26355,0 0.5147,0.0558 0.25115,0.0527 0.48679,0.16123 z"
         id="path1022" />
      <path
         d="m 186.99827,107.978 q -0.45888,0 -0.72553,0.35967 -0.26666,0.35657 -0.26666,0.97978 0,0.62322 0.26355,0.98289 0.26666,0.35657 0.72864,0.35657 0.45579,0 0.72244,-0.35967 0.26665,-0.35967 0.26665,-0.97979 0,-0.61701 -0.26665,-0.97668 -0.26665,-0.36277 -0.72244,-0.36277 z m 0,-0.48369 q 0.74414,0 1.16892,0.48369 0.42478,0.48369 0.42478,1.33945 0,0.85267 -0.42478,1.33946 -0.42478,0.48369 -1.16892,0.48369 -0.74724,0 -1.17202,-0.48369 -0.42168,-0.48679 -0.42168,-1.33946 0,-0.85576 0.42168,-1.33945 0.42478,-0.48369 1.17202,-0.48369 z"
         id="path1024" />
      <path
         d="m 189.47874,109.68022 v -2.10219 h 0.57051 v 2.08049 q 0,0.49299 0.19224,0.74104 0.19223,0.24495 0.57671,0.24495 0.46198,0 0.72863,-0.29456 0.26976,-0.29456 0.26976,-0.80305 v -1.96887 h 0.5705 v 3.47265 h -0.5705 v -0.5333 q -0.20774,0.31626 -0.4837,0.47129 -0.27285,0.15193 -0.63562,0.15193 -0.59841,0 -0.90847,-0.37207 -0.31006,-0.37207 -0.31006,-1.08831 z m 1.43557,-2.18591 z"
         id="path1026" />
      <path
         d="m 196.44886,108.95469 v 2.09599 h -0.57051 v -2.07739 q 0,-0.49299 -0.19223,-0.73794 -0.19224,-0.24495 -0.57671,-0.24495 -0.46199,0 -0.72864,0.29456 -0.26665,0.29456 -0.26665,0.80305 v 1.96267 h -0.57361 v -3.47265 h 0.57361 v 0.5395 q 0.20464,-0.31316 0.48059,-0.46819 0.27905,-0.15503 0.64182,-0.15503 0.59841,0 0.90537,0.37207 0.30696,0.36897 0.30696,1.08831 z"
         id="path1028" />
      <path
         d="m 198.15108,106.59204 v 0.98599 h 1.17512 v 0.44338 h -1.17512 v 1.88516 q 0,0.42478 0.11472,0.5457 0.11782,0.12092 0.47439,0.12092 h 0.58601 v 0.47749 h -0.58601 q -0.66042,0 -0.91157,-0.24494 -0.25115,-0.24805 -0.25115,-0.89917 v -1.88516 h -0.41858 v -0.44338 h 0.41858 v -0.98599 z"
         id="path1030" />
      <path
         d="m 203.0469,109.17173 v 0.27905 h -2.62309 q 0.0372,0.58911 0.35346,0.89917 0.31936,0.30696 0.88677,0.30696 0.32866,0 0.63562,-0.0806 0.31006,-0.0806 0.61392,-0.24184 v 0.5395 q -0.30696,0.13022 -0.62942,0.19844 -0.32246,0.0682 -0.65422,0.0682 -0.83096,0 -1.31775,-0.48369 -0.4837,-0.48369 -0.4837,-1.30845 0,-0.85266 0.45889,-1.35186 0.46199,-0.50229 1.24334,-0.50229 0.70073,0 1.10691,0.45269 0.40927,0.44958 0.40927,1.22473 z m -0.5705,-0.16743 q -0.006,-0.46819 -0.26355,-0.74725 -0.25425,-0.27905 -0.67593,-0.27905 -0.47749,0 -0.76585,0.26975 -0.28525,0.26975 -0.32866,0.75965 z"
         id="path1032" />
      <path
         d="m 205.99556,108.11133 q -0.0961,-0.0558 -0.21084,-0.0806 -0.11162,-0.0279 -0.24805,-0.0279 -0.48369,0 -0.74414,0.31626 -0.25735,0.31316 -0.25735,0.90227 v 1.82934 h -0.5736 v -3.47265 h 0.5736 v 0.5395 q 0.17984,-0.31626 0.46819,-0.46819 0.28836,-0.15503 0.70074,-0.15503 0.0589,0 0.13022,0.009 0.0713,0.006 0.15813,0.0217 z"
         id="path1034" />
      <path
         d="m 206.7397,110.26313 h 0.65423 v 0.5333 l -0.5085,0.99219 h -0.39998 l 0.25425,-0.99219 z"
         id="path1036" />
      <path
         d="m 132.70856,114.16367 v 0.47439 h -0.5457 q -0.30696,0 -0.42788,0.12402 -0.11782,0.12403 -0.11782,0.44649 v 0.30696 h 0.93948 v 0.44338 h -0.93948 v 3.02927 h -0.57361 v -3.02927 h -0.5457 v -0.44338 h 0.5457 v -0.24185 q 0,-0.57981 0.26975,-0.84336 0.26975,-0.26665 0.85576,-0.26665 z"
         id="path1038" />
      <path
         d="m 135.19833,116.04883 q -0.0961,-0.0558 -0.21084,-0.0806 -0.11162,-0.0279 -0.24804,-0.0279 -0.48369,0 -0.74414,0.31626 -0.25735,0.31315 -0.25735,0.90227 v 1.82934 h -0.57361 v -3.47265 h 0.57361 v 0.5395 q 0.17983,-0.31626 0.46819,-0.46819 0.28835,-0.15503 0.70073,-0.15503 0.0589,0 0.13022,0.009 0.0713,0.006 0.15813,0.0217 z"
         id="path1040" />
      <path
         d="m 138.62758,117.10923 v 0.27905 h -2.62309 q 0.0372,0.58911 0.35346,0.89917 0.31936,0.30696 0.88677,0.30696 0.32866,0 0.63562,-0.0806 0.31006,-0.0806 0.61392,-0.24184 v 0.5395 q -0.30696,0.13022 -0.62942,0.19844 -0.32246,0.0682 -0.65423,0.0682 -0.83095,0 -1.31774,-0.48369 -0.4837,-0.48369 -0.4837,-1.30845 0,-0.85266 0.45889,-1.35186 0.46199,-0.50229 1.24334,-0.50229 0.70073,0 1.1069,0.45269 0.40928,0.44958 0.40928,1.22473 z m -0.57051,-0.16743 q -0.006,-0.46819 -0.26355,-0.74725 -0.25424,-0.27905 -0.67592,-0.27905 -0.47749,0 -0.76585,0.26975 -0.28525,0.26975 -0.32866,0.75965 z"
         id="path1042" />
      <path
         d="m 142.53432,117.10923 v 0.27905 h -2.62309 q 0.0372,0.58911 0.35346,0.89917 0.31936,0.30696 0.88677,0.30696 0.32866,0 0.63562,-0.0806 0.31006,-0.0806 0.61392,-0.24184 v 0.5395 q -0.30696,0.13022 -0.62942,0.19844 -0.32246,0.0682 -0.65423,0.0682 -0.83095,0 -1.31775,-0.48369 -0.48369,-0.48369 -0.48369,-1.30845 0,-0.85266 0.45889,-1.35186 0.46199,-0.50229 1.24333,-0.50229 0.70074,0 1.10691,0.45269 0.40928,0.44958 0.40928,1.22473 z m -0.57051,-0.16743 q -0.006,-0.46819 -0.26355,-0.74725 -0.25424,-0.27905 -0.67592,-0.27905 -0.47749,0 -0.76585,0.26975 -0.28525,0.26975 -0.32866,0.75965 z"
         id="path1044" />
      <path
         d="m 143.4707,114.16367 h 0.57051 v 4.82451 h -0.57051 z"
         id="path1046" />
      <path
         d="m 146.6798,119.31064 q -0.24184,0.62012 -0.47129,0.80926 -0.22944,0.18913 -0.61391,0.18913 h -0.45579 v -0.47749 h 0.33487 q 0.23564,0 0.36586,-0.11162 0.13023,-0.11162 0.28836,-0.5271 l 0.10232,-0.26045 -1.40457,-3.41684 h 0.60462 l 1.0852,2.71611 1.08521,-2.71611 h 0.60461 z"
         id="path1048" />
      <path
         d="m 153.71503,116.18215 q 0.21394,-0.38447 0.5116,-0.56741 0.29766,-0.18293 0.70073,-0.18293 0.54261,0 0.83716,0.38137 0.29456,0.37827 0.29456,1.07901 v 2.09599 h -0.57361 v -2.07739 q 0,-0.49919 -0.17674,-0.74104 -0.17673,-0.24185 -0.5395,-0.24185 -0.44338,0 -0.70073,0.29456 -0.25735,0.29455 -0.25735,0.80305 v 1.96267 h -0.57361 v -2.07739 q 0,-0.5023 -0.17673,-0.74104 -0.17673,-0.24185 -0.5457,-0.24185 -0.43719,0 -0.69453,0.29766 -0.25735,0.29456 -0.25735,0.79995 v 1.96267 h -0.57361 v -3.47265 h 0.57361 v 0.5395 q 0.19533,-0.31936 0.46819,-0.47129 0.27285,-0.15193 0.64802,-0.15193 0.37827,0 0.64182,0.19224 0.26665,0.19223 0.39377,0.5581 z"
         id="path1050" />
      <path
         d="m 157.13808,117.61772 v -2.10219 h 0.57051 v 2.08049 q 0,0.49299 0.19223,0.74104 0.19224,0.24495 0.57671,0.24495 0.46199,0 0.72864,-0.29456 0.26975,-0.29456 0.26975,-0.80305 v -1.96887 h 0.57051 v 3.47265 h -0.57051 v -0.5333 q -0.20774,0.31626 -0.48369,0.47129 -0.27285,0.15193 -0.63562,0.15193 -0.59841,0 -0.90847,-0.37207 -0.31006,-0.37207 -0.31006,-1.08831 z m 1.43557,-2.18591 z"
         id="path1052" />
      <path
         d="m 161.78586,114.52954 v 0.98599 h 1.17512 v 0.44338 h -1.17512 v 1.88516 q 0,0.42478 0.11472,0.5457 0.11782,0.12092 0.47439,0.12092 h 0.58601 v 0.47749 h -0.58601 q -0.66042,0 -0.91157,-0.24494 -0.25115,-0.24805 -0.25115,-0.89917 v -1.88516 h -0.41858 v -0.44338 h 0.41858 v -0.98599 z"
         id="path1054" />
      <path
         d="m 165.28952,117.24255 q -0.69143,0 -0.95808,0.15813 -0.26665,0.15813 -0.26665,0.5395 0,0.30386 0.19844,0.4837 0.20154,0.17673 0.5457,0.17673 0.47439,0 0.75964,-0.33486 0.28836,-0.33797 0.28836,-0.89607 v -0.12713 z m 1.13792,-0.23564 v 1.98127 h -0.57051 v -0.5271 q -0.19534,0.31626 -0.48679,0.46819 -0.29146,0.14883 -0.71314,0.14883 -0.5333,0 -0.84956,-0.29766 -0.31316,-0.30075 -0.31316,-0.80305 0,-0.58601 0.39068,-0.88367 0.39377,-0.29765 1.17202,-0.29765 h 0.79995 v -0.0558 q 0,-0.39378 -0.26045,-0.60772 -0.25735,-0.21704 -0.72554,-0.21704 -0.29765,0 -0.57981,0.0713 -0.28215,0.0713 -0.5426,0.21395 v -0.5271 q 0.31316,-0.12093 0.60772,-0.17984 0.29455,-0.062 0.5736,-0.062 0.75345,0 1.12552,0.39067 0.37207,0.39068 0.37207,1.18443 z"
         id="path1056" />
      <path
         d="m 168.16687,114.52954 v 0.98599 h 1.17512 v 0.44338 h -1.17512 v 1.88516 q 0,0.42478 0.11472,0.5457 0.11782,0.12092 0.47439,0.12092 h 0.58601 v 0.47749 h -0.58601 q -0.66043,0 -0.91158,-0.24494 -0.25114,-0.24805 -0.25114,-0.89917 v -1.88516 h -0.41858 v -0.44338 h 0.41858 v -0.98599 z"
         id="path1058" />
      <path
         d="m 173.06269,117.10923 v 0.27905 h -2.6231 q 0.0372,0.58911 0.35347,0.89917 0.31936,0.30696 0.88677,0.30696 0.32866,0 0.63562,-0.0806 0.31006,-0.0806 0.61391,-0.24184 v 0.5395 q -0.30695,0.13022 -0.62942,0.19844 -0.32246,0.0682 -0.65422,0.0682 -0.83096,0 -1.31775,-0.48369 -0.48369,-0.48369 -0.48369,-1.30845 0,-0.85266 0.45889,-1.35186 0.46198,-0.50229 1.24333,-0.50229 0.70073,0 1.10691,0.45269 0.40928,0.44958 0.40928,1.22473 z m -0.57051,-0.16743 q -0.006,-0.46819 -0.26355,-0.74725 -0.25425,-0.27905 -0.67593,-0.27905 -0.47749,0 -0.76584,0.26975 -0.28525,0.26975 -0.32866,0.75965 z"
         id="path1060" />
      <path
         d="m 176.2842,116.04263 v -1.87896 h 0.57051 v 4.82451 h -0.57051 v -0.5209 q -0.17984,0.31006 -0.45579,0.46199 -0.27285,0.14883 -0.65732,0.14883 -0.62942,0 -1.0263,-0.5023 -0.39377,-0.50229 -0.39377,-1.32085 0,-0.81855 0.39377,-1.32085 0.39688,-0.50229 1.0263,-0.50229 0.38447,0 0.65732,0.15193 0.27595,0.14883 0.45579,0.45889 z m -1.94407,1.21232 q 0,0.62942 0.25735,0.98909 0.26045,0.35657 0.71313,0.35657 0.45269,0 0.71314,-0.35657 0.26045,-0.35967 0.26045,-0.98909 0,-0.62941 -0.26045,-0.98598 -0.26045,-0.35967 -0.71314,-0.35967 -0.45268,0 -0.71313,0.35967 -0.25735,0.35657 -0.25735,0.98598 z"
         id="path1062" />
      <path
         d="m 182.54118,117.25495 q 0,-0.62941 -0.26045,-0.98598 -0.25735,-0.35967 -0.71003,-0.35967 -0.45269,0 -0.71314,0.35967 -0.25735,0.35657 -0.25735,0.98598 0,0.62942 0.25735,0.98909 0.26045,0.35657 0.71314,0.35657 0.45268,0 0.71003,-0.35657 0.26045,-0.35967 0.26045,-0.98909 z m -1.94097,-1.21232 q 0.17984,-0.31006 0.45269,-0.45889 0.27595,-0.15193 0.65732,-0.15193 0.63252,0 1.0263,0.50229 0.39687,0.5023 0.39687,1.32085 0,0.81856 -0.39687,1.32085 -0.39378,0.5023 -1.0263,0.5023 -0.38137,0 -0.65732,-0.14883 -0.27285,-0.15193 -0.45269,-0.46199 v 0.5209 h -0.5736 v -4.82451 h 0.5736 z"
         id="path1064" />
      <path
         d="m 185.52394,119.31064 q -0.24184,0.62012 -0.47128,0.80926 -0.22945,0.18913 -0.61392,0.18913 h -0.45579 v -0.47749 h 0.33487 q 0.23564,0 0.36587,-0.11162 0.13022,-0.11162 0.28835,-0.5271 l 0.10232,-0.26045 -1.40457,-3.41684 h 0.60462 l 1.0852,2.71611 1.08521,-2.71611 h 0.60461 z"
         id="path1066" />
      <path
         d="m 190.41977,114.52954 v 0.98599 h 1.17512 v 0.44338 h -1.17512 v 1.88516 q 0,0.42478 0.11472,0.5457 0.11782,0.12092 0.47439,0.12092 h 0.58601 v 0.47749 h -0.58601 q -0.66043,0 -0.91157,-0.24494 -0.25115,-0.24805 -0.25115,-0.89917 v -1.88516 h -0.41858 v -0.44338 h 0.41858 v -0.98599 z"
         id="path1068" />
      <path
         d="m 195.23188,116.89219 v 2.09599 h -0.57051 v -2.07739 q 0,-0.49299 -0.19223,-0.73794 -0.19224,-0.24495 -0.57671,-0.24495 -0.46199,0 -0.72864,0.29456 -0.26665,0.29455 -0.26665,0.80305 v 1.96267 h -0.57361 v -4.82451 h 0.57361 v 1.89136 q 0.20464,-0.31316 0.48059,-0.46819 0.27905,-0.15503 0.64182,-0.15503 0.59841,0 0.90537,0.37207 0.30696,0.36897 0.30696,1.08831 z"
         id="path1070" />
      <path
         d="m 198.38208,116.04883 q -0.0961,-0.0558 -0.21084,-0.0806 -0.11162,-0.0279 -0.24805,-0.0279 -0.48369,0 -0.74414,0.31626 -0.25735,0.31315 -0.25735,0.90227 v 1.82934 h -0.57361 v -3.47265 h 0.57361 v 0.5395 q 0.17984,-0.31626 0.46819,-0.46819 0.28835,-0.15503 0.70073,-0.15503 0.0589,0 0.13023,0.009 0.0713,0.006 0.15813,0.0217 z"
         id="path1072" />
      <path
         d="m 201.81132,117.10923 v 0.27905 h -2.6231 q 0.0372,0.58911 0.35347,0.89917 0.31936,0.30696 0.88677,0.30696 0.32866,0 0.63562,-0.0806 0.31006,-0.0806 0.61391,-0.24184 v 0.5395 q -0.30695,0.13022 -0.62941,0.19844 -0.32247,0.0682 -0.65423,0.0682 -0.83096,0 -1.31775,-0.48369 -0.48369,-0.48369 -0.48369,-1.30845 0,-0.85266 0.45889,-1.35186 0.46199,-0.50229 1.24333,-0.50229 0.70074,0 1.10691,0.45269 0.40928,0.44958 0.40928,1.22473 z m -0.57051,-0.16743 q -0.006,-0.46819 -0.26355,-0.74725 -0.25425,-0.27905 -0.67593,-0.27905 -0.47749,0 -0.76584,0.26975 -0.28525,0.26975 -0.32866,0.75965 z"
         id="path1074" />
      <path
         d="m 204.32589,117.24255 q -0.69143,0 -0.95808,0.15813 -0.26665,0.15813 -0.26665,0.5395 0,0.30386 0.19844,0.4837 0.20154,0.17673 0.5457,0.17673 0.47439,0 0.75965,-0.33486 0.28835,-0.33797 0.28835,-0.89607 v -0.12713 z m 1.13792,-0.23564 v 1.98127 h -0.57051 v -0.5271 q -0.19533,0.31626 -0.48679,0.46819 -0.29146,0.14883 -0.71313,0.14883 -0.53331,0 -0.84957,-0.29766 -0.31315,-0.30075 -0.31315,-0.80305 0,-0.58601 0.39067,-0.88367 0.39377,-0.29765 1.17202,-0.29765 h 0.79995 v -0.0558 q 0,-0.39378 -0.26045,-0.60772 -0.25735,-0.21704 -0.72553,-0.21704 -0.29766,0 -0.57981,0.0713 -0.28216,0.0713 -0.54261,0.21395 v -0.5271 q 0.31316,-0.12093 0.60772,-0.17984 0.29455,-0.062 0.57361,-0.062 0.75344,0 1.12551,0.39067 0.37207,0.39068 0.37207,1.18443 z"
         id="path1076" />
      <path
         d="m 208.92406,116.04263 v -1.87896 h 0.57051 v 4.82451 h -0.57051 v -0.5209 q -0.17983,0.31006 -0.45578,0.46199 -0.27285,0.14883 -0.65733,0.14883 -0.62942,0 -1.02629,-0.5023 -0.39378,-0.50229 -0.39378,-1.32085 0,-0.81855 0.39378,-1.32085 0.39687,-0.50229 1.02629,-0.50229 0.38448,0 0.65733,0.15193 0.27595,0.14883 0.45578,0.45889 z m -1.94406,1.21232 q 0,0.62942 0.25734,0.98909 0.26045,0.35657 0.71314,0.35657 0.45269,0 0.71313,-0.35657 0.26045,-0.35967 0.26045,-0.98909 0,-0.62941 -0.26045,-0.98598 -0.26044,-0.35967 -0.71313,-0.35967 -0.45269,0 -0.71314,0.35967 -0.25734,0.35657 -0.25734,0.98598 z"
         id="path1078" />
    </g>
    <g
       aria-label="shared reference counter,
carefully guarded"
       id="text78332"
       style="font-size:6.35px;line-height:1.25;font-family:'DejaVu Sans';-inkscape-font-specification:'DejaVu Sans';text-align:center;text-anchor:middle;stroke-width:0.264583">
      <path
         d="m 131.72568,158.90959 v 0.5395 q -0.24185,-0.12403 -0.5023,-0.18604 -0.26045,-0.062 -0.5395,-0.062 -0.42478,0 -0.63872,0.13023 -0.21084,0.13022 -0.21084,0.39067 0,0.19844 0.15193,0.31316 0.15193,0.11162 0.61081,0.21394 l 0.19534,0.0434 q 0.60772,0.13022 0.86196,0.36897 0.25735,0.23564 0.25735,0.66042 0,0.48369 -0.38447,0.76585 -0.38137,0.28215 -1.0511,0.28215 -0.27905,0 -0.58291,-0.0558 -0.30076,-0.0527 -0.63562,-0.16123 v -0.58911 q 0.31626,0.16433 0.62322,0.24804 0.30696,0.0806 0.60771,0.0806 0.40308,0 0.62012,-0.13643 0.21704,-0.13952 0.21704,-0.39067 0,-0.23254 -0.15813,-0.35657 -0.15503,-0.12402 -0.68523,-0.23874 l -0.19843,-0.0465 q -0.5302,-0.11162 -0.76585,-0.34107 -0.23564,-0.23254 -0.23564,-0.63562 0,-0.48989 0.34726,-0.75654 0.34727,-0.26665 0.98599,-0.26665 0.31626,0 0.59531,0.0465 0.27905,0.0465 0.5147,0.13953 z"
         id="path1081" />
      <path
         d="m 135.70683,160.18393 v 2.09599 h -0.57051 v -2.07739 q 0,-0.49299 -0.19223,-0.73794 -0.19224,-0.24495 -0.57671,-0.24495 -0.46199,0 -0.72864,0.29456 -0.26665,0.29456 -0.26665,0.80305 v 1.96267 h -0.57361 v -4.82451 h 0.57361 v 1.89136 q 0.20464,-0.31316 0.48059,-0.46819 0.27905,-0.15503 0.64182,-0.15503 0.59841,0 0.90537,0.37207 0.30696,0.36897 0.30696,1.08831 z"
         id="path1083" />
      <path
         d="m 138.42294,160.53429 q -0.69143,0 -0.95808,0.15813 -0.26665,0.15813 -0.26665,0.5395 0,0.30386 0.19844,0.4837 0.20154,0.17673 0.5457,0.17673 0.47439,0 0.75965,-0.33486 0.28835,-0.33797 0.28835,-0.89607 v -0.12713 z m 1.13792,-0.23564 v 1.98127 h -0.57051 v -0.5271 q -0.19534,0.31626 -0.48679,0.46819 -0.29146,0.14883 -0.71314,0.14883 -0.5333,0 -0.84956,-0.29766 -0.31316,-0.30075 -0.31316,-0.80305 0,-0.58601 0.39068,-0.88367 0.39377,-0.29765 1.17202,-0.29765 h 0.79995 v -0.0558 q 0,-0.39378 -0.26045,-0.60772 -0.25735,-0.21704 -0.72554,-0.21704 -0.29765,0 -0.5798,0.0713 -0.28216,0.0713 -0.54261,0.21394 v -0.5271 q 0.31316,-0.12093 0.60772,-0.17984 0.29455,-0.062 0.57361,-0.062 0.75344,0 1.12551,0.39067 0.37207,0.39068 0.37207,1.18443 z"
         id="path1085" />
      <path
         d="m 142.74826,159.34057 q -0.0961,-0.0558 -0.21084,-0.0806 -0.11162,-0.0279 -0.24805,-0.0279 -0.48369,0 -0.74414,0.31626 -0.25734,0.31316 -0.25734,0.90227 v 1.82934 h -0.57361 v -3.47265 h 0.57361 v 0.5395 q 0.17983,-0.31626 0.46818,-0.46819 0.28836,-0.15503 0.70074,-0.15503 0.0589,0 0.13022,0.009 0.0713,0.006 0.15813,0.0217 z"
         id="path1087" />
      <path
         d="m 146.17751,160.40097 v 0.27905 h -2.6231 q 0.0372,0.58911 0.35347,0.89917 0.31936,0.30696 0.88677,0.30696 0.32866,0 0.63562,-0.0806 0.31006,-0.0806 0.61391,-0.24184 v 0.5395 q -0.30695,0.13022 -0.62942,0.19844 -0.32246,0.0682 -0.65422,0.0682 -0.83096,0 -1.31775,-0.48369 -0.48369,-0.48369 -0.48369,-1.30845 0,-0.85266 0.45889,-1.35185 0.46198,-0.5023 1.24333,-0.5023 0.70073,0 1.10691,0.45269 0.40928,0.44958 0.40928,1.22473 z m -0.57051,-0.16743 q -0.006,-0.46819 -0.26355,-0.74725 -0.25425,-0.27905 -0.67593,-0.27905 -0.47749,0 -0.76584,0.26975 -0.28526,0.26975 -0.32866,0.75965 z"
         id="path1089" />
      <path
         d="m 149.39902,159.33437 v -1.87896 h 0.57051 v 4.82451 h -0.57051 v -0.5209 q -0.17984,0.31006 -0.45579,0.46199 -0.27285,0.14883 -0.65732,0.14883 -0.62942,0 -1.0263,-0.5023 -0.39377,-0.50229 -0.39377,-1.32085 0,-0.81855 0.39377,-1.32084 0.39688,-0.5023 1.0263,-0.5023 0.38447,0 0.65732,0.15193 0.27595,0.14883 0.45579,0.45889 z m -1.94407,1.21232 q 0,0.62942 0.25735,0.98909 0.26045,0.35657 0.71313,0.35657 0.45269,0 0.71314,-0.35657 0.26045,-0.35967 0.26045,-0.98909 0,-0.62941 -0.26045,-0.98598 -0.26045,-0.35967 -0.71314,-0.35967 -0.45268,0 -0.71313,0.35967 -0.25735,0.35657 -0.25735,0.98598 z"
         id="path1091" />
      <path
         d="m 155.17541,159.34057 q -0.0961,-0.0558 -0.21084,-0.0806 -0.11162,-0.0279 -0.24805,-0.0279 -0.48369,0 -0.74414,0.31626 -0.25735,0.31316 -0.25735,0.90227 v 1.82934 h -0.5736 v -3.47265 h 0.5736 v 0.5395 q 0.17984,-0.31626 0.46819,-0.46819 0.28836,-0.15503 0.70073,-0.15503 0.0589,0 0.13023,0.009 0.0713,0.006 0.15813,0.0217 z"
         id="path1093" />
      <path
         d="m 158.60466,160.40097 v 0.27905 h -2.6231 q 0.0372,0.58911 0.35347,0.89917 0.31936,0.30696 0.88677,0.30696 0.32866,0 0.63562,-0.0806 0.31005,-0.0806 0.61391,-0.24184 v 0.5395 q -0.30696,0.13022 -0.62942,0.19844 -0.32246,0.0682 -0.65422,0.0682 -0.83096,0 -1.31775,-0.48369 -0.48369,-0.48369 -0.48369,-1.30845 0,-0.85266 0.45889,-1.35185 0.46198,-0.5023 1.24333,-0.5023 0.70073,0 1.10691,0.45269 0.40928,0.44958 0.40928,1.22473 z m -0.57051,-0.16743 q -0.006,-0.46819 -0.26355,-0.74725 -0.25425,-0.27905 -0.67593,-0.27905 -0.47749,0 -0.76584,0.26975 -0.28526,0.26975 -0.32866,0.75965 z"
         id="path1095" />
      <path
         d="m 161.29907,157.45541 v 0.47439 h -0.54571 q -0.30695,0 -0.42788,0.12402 -0.11782,0.12403 -0.11782,0.44649 v 0.30696 h 0.93948 v 0.44338 h -0.93948 v 3.02927 h -0.57361 v -3.02927 h -0.5457 v -0.44338 h 0.5457 v -0.24185 q 0,-0.57981 0.26975,-0.84336 0.26975,-0.26665 0.85576,-0.26665 z"
         id="path1097" />
      <path
         d="m 164.74692,160.40097 v 0.27905 h -2.6231 q 0.0372,0.58911 0.35347,0.89917 0.31936,0.30696 0.88677,0.30696 0.32866,0 0.63562,-0.0806 0.31006,-0.0806 0.61391,-0.24184 v 0.5395 q -0.30695,0.13022 -0.62942,0.19844 -0.32246,0.0682 -0.65422,0.0682 -0.83096,0 -1.31775,-0.48369 -0.48369,-0.48369 -0.48369,-1.30845 0,-0.85266 0.45889,-1.35185 0.46198,-0.5023 1.24333,-0.5023 0.70073,0 1.10691,0.45269 0.40928,0.44958 0.40928,1.22473 z m -0.57051,-0.16743 q -0.006,-0.46819 -0.26355,-0.74725 -0.25425,-0.27905 -0.67593,-0.27905 -0.47749,0 -0.76584,0.26975 -0.28525,0.26975 -0.32866,0.75965 z"
         id="path1099" />
      <path
         d="m 167.69558,159.34057 q -0.0961,-0.0558 -0.21084,-0.0806 -0.11162,-0.0279 -0.24805,-0.0279 -0.48369,0 -0.74414,0.31626 -0.25735,0.31316 -0.25735,0.90227 v 1.82934 h -0.57361 v -3.47265 h 0.57361 v 0.5395 q 0.17983,-0.31626 0.46819,-0.46819 0.28835,-0.15503 0.70073,-0.15503 0.0589,0 0.13023,0.009 0.0713,0.006 0.15813,0.0217 z"
         id="path1101" />
      <path
         d="m 171.12482,160.40097 v 0.27905 h -2.62309 q 0.0372,0.58911 0.35346,0.89917 0.31936,0.30696 0.88677,0.30696 0.32866,0 0.63562,-0.0806 0.31006,-0.0806 0.61392,-0.24184 v 0.5395 q -0.30696,0.13022 -0.62942,0.19844 -0.32246,0.0682 -0.65423,0.0682 -0.83095,0 -1.31774,-0.48369 -0.4837,-0.48369 -0.4837,-1.30845 0,-0.85266 0.45889,-1.35185 0.46199,-0.5023 1.24334,-0.5023 0.70073,0 1.1069,0.45269 0.40928,0.44958 0.40928,1.22473 z m -0.57051,-0.16743 q -0.006,-0.46819 -0.26355,-0.74725 -0.25424,-0.27905 -0.67592,-0.27905 -0.47749,0 -0.76585,0.26975 -0.28525,0.26975 -0.32866,0.75965 z"
         id="path1103" />
      <path
         d="m 174.94784,160.18393 v 2.09599 h -0.5705 v -2.07739 q 0,-0.49299 -0.19224,-0.73794 -0.19224,-0.24495 -0.57671,-0.24495 -0.46199,0 -0.72864,0.29456 -0.26665,0.29456 -0.26665,0.80305 v 1.96267 h -0.57361 v -3.47265 h 0.57361 v 0.5395 q 0.20464,-0.31316 0.48059,-0.46819 0.27906,-0.15503 0.64183,-0.15503 0.59841,0 0.90537,0.37207 0.30695,0.36897 0.30695,1.08831 z"
         id="path1105" />
      <path
         d="m 178.58483,158.94059 v 0.5333 q -0.24184,-0.13332 -0.48679,-0.19844 -0.24184,-0.0682 -0.48989,-0.0682 -0.55501,0 -0.86196,0.35347 -0.30696,0.35036 -0.30696,0.98598 0,0.63563 0.30696,0.98909 0.30695,0.35037 0.86196,0.35037 0.24805,0 0.48989,-0.0651 0.24495,-0.0682 0.48679,-0.20154 v 0.5271 q -0.23874,0.11162 -0.49609,0.16743 -0.25425,0.0558 -0.5426,0.0558 -0.78445,0 -1.24644,-0.49299 -0.46199,-0.493 -0.46199,-1.33016 0,-0.84956 0.46509,-1.33635 0.46819,-0.48679 1.28054,-0.48679 0.26355,0 0.5147,0.0558 0.25115,0.0527 0.48679,0.16123 z"
         id="path1107" />
      <path
         d="m 182.54738,160.40097 v 0.27905 h -2.6231 q 0.0372,0.58911 0.35347,0.89917 0.31936,0.30696 0.88677,0.30696 0.32866,0 0.63562,-0.0806 0.31006,-0.0806 0.61391,-0.24184 v 0.5395 q -0.30695,0.13022 -0.62941,0.19844 -0.32247,0.0682 -0.65423,0.0682 -0.83095,0 -1.31775,-0.48369 -0.48369,-0.48369 -0.48369,-1.30845 0,-0.85266 0.45889,-1.35185 0.46199,-0.5023 1.24333,-0.5023 0.70074,0 1.10691,0.45269 0.40928,0.44958 0.40928,1.22473 z m -0.57051,-0.16743 q -0.006,-0.46819 -0.26355,-0.74725 -0.25425,-0.27905 -0.67593,-0.27905 -0.47749,0 -0.76584,0.26975 -0.28525,0.26975 -0.32866,0.75965 z"
         id="path1109" />
      <path
         d="m 188.00131,158.94059 v 0.5333 q -0.24184,-0.13332 -0.48679,-0.19844 -0.24185,-0.0682 -0.48989,-0.0682 -0.55501,0 -0.86197,0.35347 -0.30695,0.35036 -0.30695,0.98598 0,0.63563 0.30695,0.98909 0.30696,0.35037 0.86197,0.35037 0.24804,0 0.48989,-0.0651 0.24495,-0.0682 0.48679,-0.20154 v 0.5271 q -0.23874,0.11162 -0.49609,0.16743 -0.25425,0.0558 -0.5426,0.0558 -0.78445,0 -1.24644,-0.49299 -0.46199,-0.493 -0.46199,-1.33016 0,-0.84956 0.46509,-1.33635 0.46819,-0.48679 1.28054,-0.48679 0.26355,0 0.5147,0.0558 0.25115,0.0527 0.48679,0.16123 z"
         id="path1111" />
      <path
         d="m 190.33915,159.20724 q -0.45888,0 -0.72553,0.35967 -0.26665,0.35657 -0.26665,0.97978 0,0.62322 0.26355,0.98289 0.26665,0.35657 0.72863,0.35657 0.45579,0 0.72244,-0.35967 0.26665,-0.35967 0.26665,-0.97979 0,-0.61701 -0.26665,-0.97668 -0.26665,-0.36277 -0.72244,-0.36277 z m 0,-0.48369 q 0.74414,0 1.16892,0.48369 0.42479,0.48369 0.42479,1.33945 0,0.85267 -0.42479,1.33946 -0.42478,0.48369 -1.16892,0.48369 -0.74724,0 -1.17202,-0.48369 -0.42168,-0.48679 -0.42168,-1.33946 0,-0.85576 0.42168,-1.33945 0.42478,-0.48369 1.17202,-0.48369 z"
         id="path1113" />
      <path
         d="m 192.81962,160.90946 v -2.10219 h 0.57051 v 2.08049 q 0,0.49299 0.19224,0.74104 0.19223,0.24495 0.5767,0.24495 0.46199,0 0.72864,-0.29456 0.26975,-0.29456 0.26975,-0.80305 v -1.96887 h 0.57051 v 3.47265 h -0.57051 v -0.5333 q -0.20774,0.31626 -0.48369,0.47129 -0.27285,0.15193 -0.63562,0.15193 -0.59841,0 -0.90847,-0.37207 -0.31006,-0.37207 -0.31006,-1.08831 z m 1.43557,-2.18591 z"
         id="path1115" />
      <path
         d="m 199.78974,160.18393 v 2.09599 h -0.57051 v -2.07739 q 0,-0.49299 -0.19223,-0.73794 -0.19224,-0.24495 -0.57671,-0.24495 -0.46199,0 -0.72864,0.29456 -0.26665,0.29456 -0.26665,0.80305 v 1.96267 h -0.57361 v -3.47265 h 0.57361 v 0.5395 q 0.20464,-0.31316 0.48059,-0.46819 0.27905,-0.15503 0.64182,-0.15503 0.59841,0 0.90537,0.37207 0.30696,0.36897 0.30696,1.08831 z"
         id="path1117" />
      <path
         d="m 201.49196,157.82128 v 0.98599 h 1.17512 v 0.44338 h -1.17512 v 1.88516 q 0,0.42478 0.11472,0.5457 0.11782,0.12092 0.47439,0.12092 h 0.58601 v 0.47749 h -0.58601 q -0.66042,0 -0.91157,-0.24494 -0.25115,-0.24805 -0.25115,-0.89917 v -1.88516 h -0.41858 v -0.44338 h 0.41858 v -0.98599 z"
         id="path1119" />
      <path
         d="m 206.38778,160.40097 v 0.27905 h -2.62309 q 0.0372,0.58911 0.35347,0.89917 0.31936,0.30696 0.88676,0.30696 0.32867,0 0.63562,-0.0806 0.31006,-0.0806 0.61392,-0.24184 v 0.5395 q -0.30696,0.13022 -0.62942,0.19844 -0.32246,0.0682 -0.65422,0.0682 -0.83096,0 -1.31775,-0.48369 -0.48369,-0.48369 -0.48369,-1.30845 0,-0.85266 0.45888,-1.35185 0.46199,-0.5023 1.24334,-0.5023 0.70073,0 1.10691,0.45269 0.40927,0.44958 0.40927,1.22473 z m -0.5705,-0.16743 q -0.006,-0.46819 -0.26355,-0.74725 -0.25425,-0.27905 -0.67593,-0.27905 -0.47749,0 -0.76585,0.26975 -0.28525,0.26975 -0.32866,0.75965 z"
         id="path1121" />
      <path
         d="m 209.33644,159.34057 q -0.0961,-0.0558 -0.21084,-0.0806 -0.11162,-0.0279 -0.24805,-0.0279 -0.48369,0 -0.74414,0.31626 -0.25734,0.31316 -0.25734,0.90227 v 1.82934 h -0.57361 v -3.47265 h 0.57361 v 0.5395 q 0.17983,-0.31626 0.46818,-0.46819 0.28836,-0.15503 0.70074,-0.15503 0.0589,0 0.13022,0.009 0.0713,0.006 0.15813,0.0217 z"
         id="path1123" />
      <path
         d="m 210.08058,161.49237 h 0.65423 v 0.5333 l -0.5085,0.99219 h -0.39997 l 0.25424,-0.99219 z"
         id="path1125" />
      <path
         d="m 145.36205,166.87809 v 0.5333 q -0.24184,-0.13332 -0.48679,-0.19844 -0.24184,-0.0682 -0.48989,-0.0682 -0.555,0 -0.86196,0.35347 -0.30696,0.35036 -0.30696,0.98598 0,0.63562 0.30696,0.98909 0.30696,0.35037 0.86196,0.35037 0.24805,0 0.48989,-0.0651 0.24495,-0.0682 0.48679,-0.20154 v 0.5271 q -0.23874,0.11162 -0.49609,0.16743 -0.25425,0.0558 -0.5426,0.0558 -0.78445,0 -1.24644,-0.49299 -0.46198,-0.493 -0.46198,-1.33016 0,-0.84956 0.46508,-1.33635 0.46819,-0.48679 1.28055,-0.48679 0.26355,0 0.51469,0.0558 0.25115,0.0527 0.48679,0.16123 z"
         id="path1127" />
      <path
         d="m 147.93244,168.47179 q -0.69143,0 -0.95808,0.15813 -0.26665,0.15813 -0.26665,0.5395 0,0.30386 0.19844,0.4837 0.20153,0.17673 0.5457,0.17673 0.47439,0 0.75964,-0.33486 0.28836,-0.33797 0.28836,-0.89607 v -0.12713 z m 1.13792,-0.23564 v 1.98127 h -0.57051 v -0.5271 q -0.19534,0.31626 -0.48679,0.46819 -0.29146,0.14883 -0.71314,0.14883 -0.5333,0 -0.84956,-0.29766 -0.31316,-0.30075 -0.31316,-0.80305 0,-0.58601 0.39068,-0.88367 0.39377,-0.29765 1.17202,-0.29765 h 0.79995 v -0.0558 q 0,-0.39378 -0.26045,-0.60772 -0.25735,-0.21704 -0.72554,-0.21704 -0.29765,0 -0.57981,0.0713 -0.28215,0.0713 -0.5426,0.21394 v -0.5271 q 0.31316,-0.12093 0.60771,-0.17984 0.29456,-0.062 0.57361,-0.062 0.75345,0 1.12552,0.39067 0.37207,0.39068 0.37207,1.18443 z"
         id="path1129" />
      <path
         d="m 152.25776,167.27807 q -0.0961,-0.0558 -0.21084,-0.0806 -0.11162,-0.0279 -0.24805,-0.0279 -0.48369,0 -0.74414,0.31626 -0.25735,0.31316 -0.25735,0.90227 v 1.82934 h -0.57361 v -3.47265 h 0.57361 v 0.5395 q 0.17984,-0.31626 0.46819,-0.46819 0.28835,-0.15503 0.70073,-0.15503 0.0589,0 0.13023,0.009 0.0713,0.006 0.15813,0.0217 z"
         id="path1131" />
      <path
         d="m 155.68701,168.33847 v 0.27905 h -2.6231 q 0.0372,0.58911 0.35347,0.89917 0.31936,0.30696 0.88677,0.30696 0.32866,0 0.63562,-0.0806 0.31005,-0.0806 0.61391,-0.24184 v 0.5395 q -0.30696,0.13022 -0.62942,0.19844 -0.32246,0.0682 -0.65422,0.0682 -0.83096,0 -1.31775,-0.48369 -0.48369,-0.48369 -0.48369,-1.30845 0,-0.85266 0.45888,-1.35185 0.46199,-0.5023 1.24334,-0.5023 0.70073,0 1.10691,0.45269 0.40928,0.44958 0.40928,1.22473 z m -0.57051,-0.16743 q -0.006,-0.46819 -0.26355,-0.74725 -0.25425,-0.27905 -0.67593,-0.27905 -0.47749,0 -0.76584,0.26975 -0.28526,0.26975 -0.32867,0.75965 z"
         id="path1133" />
      <path
         d="m 158.38142,165.39291 v 0.47439 h -0.54571 q -0.30696,0 -0.42788,0.12402 -0.11782,0.12403 -0.11782,0.44649 v 0.30696 h 0.93948 v 0.44338 h -0.93948 v 3.02927 h -0.57361 v -3.02927 h -0.5457 v -0.44338 h 0.5457 v -0.24185 q 0,-0.57981 0.26975,-0.84336 0.26975,-0.26665 0.85576,-0.26665 z"
         id="path1135" />
      <path
         d="m 158.79999,168.84696 v -2.10219 h 0.57051 v 2.08049 q 0,0.49299 0.19224,0.74104 0.19223,0.24495 0.57671,0.24495 0.46198,0 0.72864,-0.29456 0.26975,-0.29456 0.26975,-0.80305 v -1.96887 h 0.5705 v 3.47265 h -0.5705 v -0.5333 q -0.20774,0.31626 -0.4837,0.47129 -0.27285,0.15193 -0.63562,0.15193 -0.59841,0 -0.90847,-0.37207 -0.31006,-0.37207 -0.31006,-1.08831 z m 1.43558,-2.18591 z"
         id="path1137" />
      <path
         d="m 162.88347,165.39291 h 0.5705 v 4.82451 h -0.5705 z"
         id="path1139" />
      <path
         d="m 164.6477,165.39291 h 0.57051 v 4.82451 h -0.57051 z"
         id="path1141" />
      <path
         d="m 167.85681,170.53988 q -0.24185,0.62012 -0.47129,0.80926 -0.22945,0.18913 -0.61392,0.18913 h -0.45579 v -0.47749 h 0.33487 q 0.23564,0 0.36587,-0.11162 0.13022,-0.11162 0.28835,-0.5271 l 0.10232,-0.26045 -1.40456,-3.41684 h 0.60461 l 1.0852,2.71611 1.08521,-2.71611 h 0.60461 z"
         id="path1143" />
      <path
         d="m 174.47346,168.44079 q 0,-0.62012 -0.25735,-0.96118 -0.25425,-0.34107 -0.71624,-0.34107 -0.45888,0 -0.71623,0.34107 -0.25425,0.34106 -0.25425,0.96118 0,0.61701 0.25425,0.95808 0.25735,0.34106 0.71623,0.34106 0.46199,0 0.71624,-0.34106 0.25735,-0.34107 0.25735,-0.95808 z m 0.5705,1.34565 q 0,0.88677 -0.39377,1.31775 -0.39377,0.43408 -1.20613,0.43408 -0.30075,0 -0.56741,-0.0465 -0.26665,-0.0434 -0.51779,-0.13642 v -0.55501 q 0.25114,0.13643 0.49609,0.20154 0.24495,0.0651 0.4992,0.0651 0.5612,0 0.84025,-0.29455 0.27906,-0.29146 0.27906,-0.88367 v -0.28215 q -0.17674,0.30695 -0.45269,0.45888 -0.27595,0.15193 -0.66042,0.15193 -0.63872,0 -1.0294,-0.48679 -0.39067,-0.48679 -0.39067,-1.28984 0,-0.80616 0.39067,-1.29295 0.39068,-0.48679 1.0294,-0.48679 0.38447,0 0.66042,0.15193 0.27595,0.15193 0.45269,0.45889 v -0.5271 h 0.5705 z"
         id="path1145" />
      <path
         d="m 176.16017,168.84696 v -2.10219 h 0.57051 v 2.08049 q 0,0.49299 0.19224,0.74104 0.19223,0.24495 0.57671,0.24495 0.46198,0 0.72863,-0.29456 0.26976,-0.29456 0.26976,-0.80305 v -1.96887 h 0.5705 v 3.47265 h -0.5705 v -0.5333 q -0.20774,0.31626 -0.4837,0.47129 -0.27285,0.15193 -0.63562,0.15193 -0.59841,0 -0.90847,-0.37207 -0.31006,-0.37207 -0.31006,-1.08831 z m 1.43557,-2.18591 z"
         id="path1147" />
      <path
         d="m 181.82185,168.47179 q -0.69144,0 -0.95809,0.15813 -0.26665,0.15813 -0.26665,0.5395 0,0.30386 0.19844,0.4837 0.20154,0.17673 0.5457,0.17673 0.47439,0 0.75965,-0.33486 0.28835,-0.33797 0.28835,-0.89607 v -0.12713 z m 1.13791,-0.23564 v 1.98127 h -0.57051 v -0.5271 q -0.19533,0.31626 -0.48679,0.46819 -0.29145,0.14883 -0.71313,0.14883 -0.5333,0 -0.84956,-0.29766 -0.31316,-0.30075 -0.31316,-0.80305 0,-0.58601 0.39067,-0.88367 0.39377,-0.29765 1.17202,-0.29765 h 0.79995 v -0.0558 q 0,-0.39378 -0.26045,-0.60772 -0.25734,-0.21704 -0.72553,-0.21704 -0.29766,0 -0.57981,0.0713 -0.28216,0.0713 -0.54261,0.21394 v -0.5271 q 0.31316,-0.12093 0.60772,-0.17984 0.29455,-0.062 0.57361,-0.062 0.75344,0 1.12551,0.39067 0.37207,0.39068 0.37207,1.18443 z"
         id="path1149" />
      <path
         d="m 186.14716,167.27807 q -0.0961,-0.0558 -0.21084,-0.0806 -0.11162,-0.0279 -0.24804,-0.0279 -0.4837,0 -0.74414,0.31626 -0.25735,0.31316 -0.25735,0.90227 v 1.82934 h -0.57361 v -3.47265 h 0.57361 v 0.5395 q 0.17983,-0.31626 0.46819,-0.46819 0.28835,-0.15503 0.70073,-0.15503 0.0589,0 0.13022,0.009 0.0713,0.006 0.15813,0.0217 z"
         id="path1151" />
      <path
         d="m 188.91909,167.27187 v -1.87896 h 0.57051 v 4.82451 h -0.57051 v -0.5209 q -0.17984,0.31006 -0.45579,0.46199 -0.27285,0.14883 -0.65732,0.14883 -0.62942,0 -1.0263,-0.5023 -0.39377,-0.50229 -0.39377,-1.32085 0,-0.81855 0.39377,-1.32084 0.39688,-0.5023 1.0263,-0.5023 0.38447,0 0.65732,0.15193 0.27595,0.14883 0.45579,0.45889 z m -1.94407,1.21232 q 0,0.62942 0.25735,0.98909 0.26045,0.35657 0.71313,0.35657 0.45269,0 0.71314,-0.35657 0.26045,-0.35967 0.26045,-0.98909 0,-0.62941 -0.26045,-0.98598 -0.26045,-0.35967 -0.71314,-0.35967 -0.45268,0 -0.71313,0.35967 -0.25735,0.35657 -0.25735,0.98598 z"
         id="path1153" />
      <path
         d="m 193.63508,168.33847 v 0.27905 h -2.6231 q 0.0372,0.58911 0.35347,0.89917 0.31936,0.30696 0.88677,0.30696 0.32866,0 0.63562,-0.0806 0.31006,-0.0806 0.61391,-0.24184 v 0.5395 q -0.30695,0.13022 -0.62942,0.19844 -0.32246,0.0682 -0.65422,0.0682 -0.83096,0 -1.31775,-0.48369 -0.48369,-0.48369 -0.48369,-1.30845 0,-0.85266 0.45889,-1.35185 0.46198,-0.5023 1.24333,-0.5023 0.70073,0 1.10691,0.45269 0.40928,0.44958 0.40928,1.22473 z m -0.57051,-0.16743 q -0.006,-0.46819 -0.26355,-0.74725 -0.25425,-0.27905 -0.67593,-0.27905 -0.47749,0 -0.76584,0.26975 -0.28526,0.26975 -0.32866,0.75965 z"
         id="path1155" />
      <path
         d="m 196.85659,167.27187 v -1.87896 h 0.57051 v 4.82451 h -0.57051 v -0.5209 q -0.17984,0.31006 -0.45579,0.46199 -0.27285,0.14883 -0.65732,0.14883 -0.62942,0 -1.0263,-0.5023 -0.39377,-0.50229 -0.39377,-1.32085 0,-0.81855 0.39377,-1.32084 0.39688,-0.5023 1.0263,-0.5023 0.38447,0 0.65732,0.15193 0.27595,0.14883 0.45579,0.45889 z m -1.94407,1.21232 q 0,0.62942 0.25735,0.98909 0.26045,0.35657 0.71313,0.35657 0.45269,0 0.71314,-0.35657 0.26045,-0.35967 0.26045,-0.98909 0,-0.62941 -0.26045,-0.98598 -0.26045,-0.35967 -0.71314,-0.35967 -0.45268,0 -0.71313,0.35967 -0.25735,0.35657 -0.25735,0.98598 z"
         id="path1157" />
    </g>
  </g>
</svg>
